<?xml version="1.0" standalone="no"?>
<!DOCTYPE svg PUBLIC "-//W3C//DTD SVG 1.1//EN" "http://www.w3.org/Graphics/SVG/1.1/DTD/svg11.dtd">
<svg xmlns="http://www.w3.org/2000/svg">
<metadata>Copyright (C) 2016 by original authors @ fontello.com</metadata>
<defs>
<font id="icon-font" horiz-adv-x="1000" >
<font-face font-family="icon-font" font-weight="400" font-stretch="normal" units-per-em="1000" ascent="850" descent="-150" />
<missing-glyph horiz-adv-x="1000" />
<glyph glyph-name="eye-close" unicode="&#xe800;" d="M722 806l-578-778c-9-13-6-30 6-39 12-9 30-7 39 5l578 778c9 13 6 30-6 39-12 9-30 7-39-5l0 0z m-339-543l-28-38c-65 45-108 119-108 204 0 39 9 77 26 110-34-17-65-37-91-56-57-40-101-81-123-103 22-22 66-63 123-104 40-28 91-60 149-83l-31-41c-48 21-98 49-148 85-87 62-143 124-146 126-8 9-8 24 0 33 3 3 59 64 146 127 52 36 104 66 155 87 64 26 127 40 187 40 50 0 103-10 157-29l-34-45c-38 12-79 19-120 19-43 0-86-8-127-21-45-38-70-92-70-151 0-66 33-125 83-160z m-1-94l-32-44c51-18 102-27 150-27 60 0 123 14 188 42 51 22 103 53 155 91 89 65 145 129 147 131 9 10 9 25 0 35-2 2-58 67-147 131-45 34-91 61-136 82l-45-61c24-34 37-75 37-118 0-113-89-205-199-205-24 0-46 4-67 12l-31-42c30-14 63-21 98-21 137 0 248 115 248 256 0 41-9 80-26 115 34-19 65-39 92-59 57-42 101-84 123-107-22-23-66-66-123-108-76-56-193-123-314-123-40 0-80 8-118 20z" horiz-adv-x="1000" />

<glyph glyph-name="eye-open" unicode="&#xe801;" d="M990 380c-2 3-58 67-147 132-52 38-104 69-155 90-65 28-128 42-188 42-60 0-123-14-188-42-51-21-103-52-155-90-88-65-145-129-147-132-9-10-9-24 0-34 2-3 59-67 147-132 52-38 104-69 155-91 65-27 128-42 188-42 60 0 123 15 188 42 51 22 103 53 155 91 89 65 145 129 147 132 9 10 9 24 0 34l0 0z m-362 191c45-39 71-96 71-157 0-113-89-205-199-205-109 0-199 92-199 205 0 61 26 118 71 157 41 14 84 22 128 22 44 0 87-8 128-22l0 0z m186-316c-76-56-193-122-314-122-121 0-237 66-314 122-57 42-101 85-123 108 22 23 66 66 123 108 27 19 58 40 92 58-17-35-26-74-26-115 0-141 111-256 248-256 137 0 248 115 248 256 0 41-9 80-26 115 34-18 65-39 92-58 57-42 101-85 123-108-22-23-66-66-123-108l0 0z" horiz-adv-x="1000" />

<glyph glyph-name="cart" unicode="&#xe802;" d="M413-139c-60 0-108 49-108 109 0 60 48 108 108 108 60 0 109-48 109-108 0-60-49-109-109-109l0 0z m0 163c-30 0-54-24-54-54 0-30 24-55 54-55 30 0 54 25 54 55 0 30-24 54-54 54l0 0z m380-163c-60 0-109 49-109 109 0 60 49 108 109 108 60 0 108-48 108-108 0-60-48-109-108-109l0 0z m0 163c-30 0-54-24-54-54 0-30 24-55 54-55 30 0 54 25 54 55 0 30-24 54-54 54l0 0z m138 681c-14 16-35 25-57 25l-664 0-5 33c-7 42-47 76-90 76l-54 0c-15 0-28-12-28-27 0-15 13-27 28-27l54 0c16 0 33-15 36-31l91-545c7-43 46-76 90-76l542 0c15 0 27 12 27 27 0 15-12 27-27 27l-542 0c-17 0-34 15-37 31l-13 80 541 47c42 4 80 40 87 81l36 219c4 22-2 44-15 60l0 0z m-38-51l-37-219c-2-17-21-34-38-35l-545-48-54 324 655 0c7 0 12-2 15-6 3-4 5-10 4-16l0 0z" horiz-adv-x="1000" />

<glyph glyph-name="box" unicode="&#xe803;" d="M959 572l-184 228c-3 6-12 9-19 9h-481c-6 0-16-3-19-9l-184-228c-3-3-3-9-3-13v-647c0-12 9-25 25-25h850c12 0 25 10 25 25v647c-3 4-6 10-10 13l0 0z m-65 6h-353v188h206l147-188z m-606 185h206v-188h-356l150 188z m-172-826v594h800v-594h-800z m0 0m497 260l-72-72v269c0 12-10 25-25 25-13 0-25-10-25-25v-269l-72 69c-10 9-25 9-35 0-9-10-9-25 0-35l113-112 3-3c0 0 0 0 0 0 0 0 0 0 0 0 0 0 0 0 0 0 0 0 0 0 3 0 0 0 0 0 0 0 0 0 0 0 3 0h0c0 0 0 0 3 0h0c0 0 0 0 4 0h0c0 0 0 0 3 0 0 0 3 0 3 0 0 0 3 0 3 0 0 0 0 0 3 0h0c0 0 0 0 3 0h0c0 0 0 0 3 0h0c0 0 0 0 3 0 0 0 0 0 0 0 0 0 0 0 4 0 0 0 0 0 0 0 0 0 0 0 0 0 0 0 0 0 0 0 0 0 0 0 3 3l112 112c10 10 10 25 0 35-15 12-31 12-40 3l0 0z m0 0" horiz-adv-x="1000" />

<glyph glyph-name="alarm" unicode="&#xe804;" d="M822 67a248 248 0 0 0-100 199v167a306 306 0 0 1-222 294v40a84 84 0 1 1-166 0v-40a306 306 0 0 1-223-294v-166a248 248 0 0 0-99-200 28 28 0 0 1 16-50h253a141 141 0 0 1-3-28 139 139 0 1 1 278 0 141 141 0 0 1-3 28h252a28 28 0 0 1 17 50h0z m-432 698a28 28 0 1 0 55 0v-27c-9 0-18 0-28 0s-18 0-28 0v29z m111-778a84 84 0 1 0-163 30h157a84 84 0 0 0 5-28z m-404 85a309 309 0 0 1 36 56 302 302 0 0 1 33 139v166a250 250 0 0 0 499 0v-166a303 303 0 0 1 34-139 307 307 0 0 1 36-56h-638z" horiz-adv-x="833" />

<glyph glyph-name="block-page" unicode="&#xe805;" d="M144 806l0 0 0-906c0-6 5-11 12-11l683 0c6 0 11 5 11 11l0 906c0 6-5 11-11 11l-683 0c-7 0-12-5-12-11l0 0z m-33 0c0 24 20 44 45 44l683 0c24 0 44-20 44-44l0-906c0-25-19-44-44-44l-683 0c-25 0-45 19-45 44l0 906 0 0z m150-84l0 0 0-122c0 9-7 17-17 17l512 0c-10 0-17-8-17-17l0 122c0-9 7-16 17-16l-512 0c10 0 17 7 17 16l0 0z m-33 0c0 9 7 17 16 17l512 0c9 0 16-8 16-17l0-122c0-9-7-17-16-17l-512 0c-9 0-16 8-16 17l0 122 0 0z m140-264l0 0-123 0c10 0 17 7 17 16l0-480c0 8-7 15-17 15l123 0c-10 0-17-7-17-15l0 480c0-9 7-16 17-16l0 0z m0 32c9 0 16-7 16-16l0-480c0-9-7-16-16-16l-123 0c-9 0-16 7-16 16l0 480c0 9 7 16 16 16l123 0 0 0z m388-32l0 0-273 0c9 0 16 7 16 16l0-481c0 9-7 16-16 16l273 0c-8 0-16-7-16-16l0 481c0-9 8-16 16-16l0 0z m0 32c9 0 16-8 16-16l0-481c0-8-7-15-16-15l-273 0c-9 0-16 7-16 15l0 481c0 9 7 16 16 16l273 0 0 0z" horiz-adv-x="1000" />

<glyph glyph-name="move" unicode="&#xe806;" d="M987 369l-163 163c-11 11-28 11-38 0-11-10-11-27 0-38l116-117-369 0 0 370 117-117c5-5 12-8 19-8 7 0 14 3 19 8 11 11 11 28 0 38l-163 164c-11 10-28 10-39 0l-163-164c-10-10-10-27 0-38 11-11 28-11 39 0l116 117 0-370-369 0 117 117c10 11 10 28 0 38-11 11-28 11-39 0l-163-163c-11-10-11-28 0-38l163-163c6-6 13-8 19-8 7 0 14 2 20 8 10 10 10 28 0 38l-117 117 369 0 0-370-116 117c-11 11-28 11-39 0-10-10-10-28 0-38l163-164c6-5 13-8 20-8 7 0 14 3 19 8l163 164c11 10 11 28 0 38-10 11-28 11-38 0l-117-117 0 370 369 0-116-117c-11-10-11-28 0-38 5-6 12-8 19-8 7 0 14 2 19 8l163 163c11 10 11 28 0 38l0 0z" horiz-adv-x="1000" />

<glyph glyph-name="point-4" unicode="&#xe807;" d="M525 306l6 0c20 0 36 16 36 36 0 20-16 36-36 36l-6 0c-20 0-36-16-36-36 0-20 16-36 36-36l0 0z m133 0l6 0c20 0 36 16 36 36 0 20-16 36-36 36l-6 0c-20 0-36-16-36-36 0-20 16-36 36-36l0 0z m134 0l5 0c20 0 36 16 36 36 0 20-16 36-36 36l-5 0c-20 0-36-16-36-36 0-20 16-36 36-36l0 0z m133 0l6 0c20 0 36 16 36 36 0 20-16 36-36 36l-6 0c-20 0-36-16-36-36 0-20 16-36 36-36l0 0z m-431 447l0-6c0-20 17-36 37-36 20 0 36 16 36 36l0 6c0 20-16 36-36 36-20 0-37-16-37-36l0 0z m0-134l0-5c0-20 17-36 37-36 20 0 36 16 36 36l0 5c0 20-16 37-36 37-20 0-37-17-37-37l0 0z m0-133l0-5c0-20 17-37 37-37 20 0 36 17 36 37l0 5c0 20-16 36-36 36-20 0-37-16-37-36l0 0z" horiz-adv-x="1000" />

<glyph glyph-name="code" unicode="&#xe808;" d="M238 88c-7 0-13 3-18 8l-210 220c-10 11-10 29 0 39l210 220c10 11 26 11 37 0 10-10 10-28 0-39l-191-200 191-201c10-10 10-28 0-39-6-5-12-8-19-8l0 0z m524 0c-7 0-13 3-19 8-10 11-10 29 0 39l192 201-192 200c-10 11-10 29 0 39 11 11 27 11 38 0l209-220c10-10 10-28 0-39l-209-220c-6-5-12-8-19-8l0 0z m-393 0c-5 0-9 2-14 5-12 8-16 25-8 37l262 440c7 13 24 17 36 9 12-8 16-25 8-38l-262-440c-5-8-13-13-22-13l0 0z" horiz-adv-x="1000" />

<glyph glyph-name="point-3" unicode="&#xe809;" d="M525 306l6 0c20 0 36 16 36 36 0 20-16 36-36 36l-6 0c-20 0-36-16-36-36 0-20 16-36 36-36l0 0z m-33-100l0-6c0-20 16-36 36-36 20 0 36 16 36 36l0 6c0 20-16 36-36 36-20 0-36-16-36-36l0 0z m0-134l0-5c0-20 16-36 36-36 20 0 36 16 36 36l0 5c0 20-16 36-36 36-20 0-36-16-36-36l0 0z m0-133l0-6c0-20 16-36 36-36 20 0 36 16 36 36l0 6c0 20-16 36-36 36-20 0-36-16-36-36l0 0z m2 814l0-6c0-20 17-36 37-36 20 0 36 16 36 36l0 6c0 20-16 36-36 36-20 0-37-16-37-36l0 0z m0-134l0-5c0-20 17-36 37-36 20 0 36 16 36 36l0 5c0 20-16 37-36 37-20 0-37-17-37-37l0 0z m0-133l0-5c0-20 17-37 37-37 20 0 36 17 36 37l0 5c0 20-16 36-36 36-20 0-37-16-37-36l0 0z" horiz-adv-x="1000" />

<glyph glyph-name="point-1" unicode="&#xe80a;" d="M525 306l6 0c20 0 36 16 36 36 0 20-16 36-36 36l-6 0c-20 0-36-16-36-36 0-20 16-36 36-36l0 0z m133 0l6 0c20 0 36 16 36 36 0 20-16 36-36 36l-6 0c-20 0-36-16-36-36 0-20 16-36 36-36l0 0z m134 0l5 0c20 0 36 16 36 36 0 20-16 36-36 36l-5 0c-20 0-36-16-36-36 0-20 16-36 36-36l0 0z m133 0l6 0c20 0 36 16 36 36 0 20-16 36-36 36l-6 0c-20 0-36-16-36-36 0-20 16-36 36-36l0 0z m-433-100l0-6c0-20 16-36 36-36 20 0 36 16 36 36l0 6c0 20-16 36-36 36-20 0-36-16-36-36l0 0z m0-134l0-5c0-20 16-36 36-36 20 0 36 16 36 36l0 5c0 20-16 36-36 36-20 0-36-16-36-36l0 0z m0-133l0-6c0-20 16-36 36-36 20 0 36 16 36 36l0 6c0 20-16 36-36 36-20 0-36-16-36-36l0 0z m2 814l0-6c0-20 17-36 37-36 20 0 36 16 36 36l0 6c0 20-16 36-36 36-20 0-37-16-37-36l0 0z m0-134l0-5c0-20 17-36 37-36 20 0 36 16 36 36l0 5c0 20-16 37-36 37-20 0-37-17-37-37l0 0z m0-133l0-5c0-20 17-37 37-37 20 0 36 17 36 37l0 5c0 20-16 36-36 36-20 0-37-16-37-36l0 0z" horiz-adv-x="1000" />

<glyph glyph-name="level-page" unicode="&#xe80b;" d="M850 186c0-3-2-5-5-5l-64 0 0 469c0 31-25 57-57 57l-350 0 0 86c0 3 2 5 5 5l466 0c3 0 5-2 5-5l0-607 0 0z m-121-143c0-3-2-5-5-5l-60 0 0 476c0 32-26 57-57 57l-354 0 0 79c0 2 2 5 5 5l466 0c3 0 5-3 5-5l0-607 0 0z m-117-136c0-3-2-5-5-5l-466 0c-3 0-6 2-6 5l0 607c0 3 3 5 6 5l466 0c3 0 5-2 5-5l0-607 0 0z m233 943l-466 0c-32 0-57-26-57-57l0-86-64 0c-32 0-57-26-57-57l0-79-60 0c-32 0-58-25-58-57l0-607c0-31 26-57 58-57l466 0c31 0 57 26 57 57l0 78 60 0c32 0 57 26 57 58l0 86 64 0c32 0 57 25 57 57l0 607c0 31-25 57-57 57l0 0 0 0z" horiz-adv-x="1000" />

<glyph glyph-name="rocket" unicode="&#xe80c;" d="M673 399c-67 0-122 54-122 121 0 67 55 122 122 122 67 0 122-55 122-122 0-67-55-121-122-121l0 0z m0 194c-40 0-73-32-73-73 0-40 33-73 73-73 40 0 73 33 73 73 0 41-33 73-73 73l0 0z m-632-730c-6 0-12 3-17 7-7 7-9 17-6 26 75 206 154 310 234 310 26 0 51-11 74-33 35-36 36-71 31-95-16-73-120-145-308-213-2-1-5-2-8-2l0 0z m211 295c-24 0-52-21-82-61-29-40-58-96-87-167 65 26 117 52 156 79 52 36 67 63 71 80 3 17-3 33-19 49-13 13-26 20-39 20l0 0z m713 679c-126 0-239-22-334-64-79-35-147-84-201-145-10-12-20-23-28-35-42-3-85-19-128-50-36-25-72-60-108-105-60-74-96-147-98-150-5-11-2-24 8-31 4-3 9-4 14-4 6 0 12 2 17 7 0 0 23 23 63 45 33 19 83 41 144 44 15-39 59-86 81-107 21-22 68-66 107-81-4-61-25-112-44-144-22-40-45-63-45-64-9-8-10-21-3-31 5-6 12-10 20-10 4 0 7 1 11 2 3 2 76 39 150 99 44 35 79 72 105 108 30 43 47 86 49 128 12 9 24 18 35 28 62 54 111 122 145 201 43 96 64 208 64 335l0 24-24 0 0 0z m-797-478c46 68 117 151 197 177-32-55-48-106-54-138-56-3-105-20-143-39l0 0z m344-344c19 38 35 87 39 143 32 6 83 22 138 54-26-80-110-151-177-197l0 0z m236 299c-101-90-206-110-221-110 0 0-10 0-37 19-18 13-40 32-61 53-21 21-40 43-53 61-19 27-19 37-19 37 0 15 20 120 109 222 107 121 271 187 474 192-5-204-71-368-192-475l0 1z" horiz-adv-x="1000" />

<glyph glyph-name="point-2" unicode="&#xe80d;" d="M81 306l5 0c20 0 36 16 36 36 0 20-16 36-36 36l-5 0c-20 0-37-16-37-36 0-20 17-36 37-36l0 0z m133 0l5 0c20 0 37 16 37 36 0 20-17 36-37 36l-5 0c-20 0-36-16-36-36 0-20 16-36 36-36l0 0z m133 0l6 0c20 0 36 16 36 36 0 20-16 36-36 36l-6 0c-20 0-36-16-36-36 0-20 16-36 36-36l0 0z m134 0l5 0c20 0 36 16 36 36 0 20-16 36-36 36l-5 0c-20 0-37-16-37-36 0-20 17-36 37-36l0 0z" horiz-adv-x="1000" />

<glyph glyph-name="category" unicode="&#xe80e;" d="M938 197v81c0 50-41 103-91 103h-316v103c69 13 122 72 122 144 0 81-65 147-147 147s-147-66-147-147c0-69 47-125 110-140v-107h-322c-53 0-84-53-84-103v-84c-63-16-113-72-113-141 0-81 66-147 147-147 81 0 147 66 147 147 0 72-50 131-119 144v81c0 16 3 41 22 41h322v-122c-66-16-116-72-116-144 0-81 66-147 147-147s147 66 147 147c0 69-50 128-116 144v122h316c16 0 28-25 28-41v-84c-62-16-109-72-109-141 0-81 65-147 147-147s146 66 146 147c-3 72-53 131-121 144z m-532 431c0 56 44 100 100 100s100-44 100-100c0-56-43-100-100-100s-100 47-100 100z m-209-575c0-56-44-100-100-100-56 0-100 44-100 100 0 56 44 100 100 100 56 0 100-47 100-100z m403 0c0-56-44-100-100-100s-100 44-100 100c0 56 44 100 100 100s100-47 100-100z m313-100c-57 0-100 44-100 100 0 56 43 100 100 100s100-44 100-100c-4-56-47-100-100-100z" horiz-adv-x="1000" />

<glyph glyph-name="off" unicode="&#xe80f;" d="M770 586c-22 22-47 42-76 59l-7 5-1 0c-3 1-7 2-12 2-18 0-34-15-34-34 0-12 7-23 18-29l2-1c100-61 160-167 160-283 0-183-149-332-332-332s-332 149-332 332c0 116 60 222 160 283l2 1c11 6 18 17 18 29 0 19-16 34-34 34-5 0-10-1-13-2l-8-5c-28-17-53-37-75-59-75-75-116-175-116-281 0-107 41-207 116-282 76-75 176-117 282-117 107 0 207 42 282 117 75 75 116 175 116 282 0 106-41 206-116 281z m-314-266c0-1 0-2 1-2 3-29 22-34 34-34 15 0 25 7 31 20 3 9 3 20 3 25v438c0 6 0 16-3 26-6 12-16 19-31 19-12 0-31-5-34-35l0-1c0-1 0-1 0-2h-1v-445c0-1 0-3 0-5 0-1 0-2 0-4z" horiz-adv-x="1000" />

<glyph glyph-name="credential" unicode="&#xe810;" d="M922 678c19 0 37-6 47-19 12-12 19-31 19-53v-518c0-29-25-54-54-54h-865c-28 0-53 25-53 54v537c0 28 25 53 53 53l853 0 0 0m0 44c0 0-3 0 0 0l-850 0c-53 0-97-44-97-97v-534c0-53 44-97 97-97h866c53 0 96 44 96 97v515c0 35-12 63-31 85-22 18-50 31-81 31l0 0z m-478-463c-13 22-31 41-56 54-16 9-35 15-57 18 50 19 85 66 85 122 0 72-60 131-132 131s-128-62-128-134c0-56 35-103 85-122-22-3-41-9-57-19-21-12-43-31-56-53-22-37-25-72-25-78 0-25 19-47 44-47h278c25 0 44 22 44 47 0 6 0 44-25 81z m-253 191c0 53 43 97 97 97s96-44 96-97-43-97-96-97-97 44-97 97z m234-281h-278c-3 0-9 6-9 12 0 0 0 32 18 60 10 15 25 31 44 40 22 13 53 19 84 19s63-6 85-19c19-9 31-22 44-40 18-28 18-60 18-60 3-6-3-12-6-12z m447 347c0 9-6 15-16 15h-284c-9 0-16-6-16-15s7-16 16-16h284c10 3 16 9 16 16z m-88-228c0 9-6 15-15 15h-197c-9 0-16-6-16-15 0-10 7-16 16-16h197c6 3 15 9 15 16z m0 115c0 10-6 16-15 16h-197c-9 0-16-6-16-16 0-9 7-15 16-15h197c6 0 15 6 15 15z m88-228c0 9-6 16-16 16h-284c-9 0-16-7-16-16s7-16 16-16h284c10 0 16 7 16 16z" horiz-adv-x="1000" />

<glyph glyph-name="home" unicode="&#xe811;" d="M994 242l-442 488c-14 15-32 23-52 23 0 0 0 0 0 0-20 0-38-8-52-23l-442-488c-9-10-8-26 2-35 5-5 11-7 17-7 7 0 14 3 19 8l106 118v-401c0-41 34-75 75-75h550c41 0 75 34 75 75v401l106-118c10-10 26-11 36-1s11 25 2 35z m-394-342h-200v225c0 14 11 25 25 25h150c14 0 25-11 25-25v-225z m200 25c0-14-11-25-25-25h-125v225c0 41-34 75-75 75h-150c-41 0-75-34-75-75v-225h-125c-14 0-25 11-25 25v456l285 315c4 5 9 7 15 7s11-2 15-7l285-315v-456z" horiz-adv-x="1000" />

<glyph glyph-name="plus" unicode="&#xe812;" d="M506-141c-18 0-31 13-31 32v428l-428 0 0 0c-19 0-31 12-31 31s12 31 31 31l428 0v428c0 19 13 32 31 32s32-13 32-32v-428l428 0 0 0c18 0 31-12 31-31s-13-31-31-31l-428 0v-428c0-16-16-32-32-32z" horiz-adv-x="1000" />

<glyph glyph-name="content" unicode="&#xe813;" d="M950 616c28 0 50 22 50 50v134c0 28-22 50-50 50h-134c-28 0-50-22-50-50v-41h-532v41c-3 28-25 50-53 50h-134c-28 0-50-22-50-50v-134c0-28 22-47 50-47h44v-528h-44c-28 0-50-25-50-53v-135c0-28 22-50 50-50h134c28 0 50 25 50 50v41h532v-41c0-28 21-50 50-50h134c28 0 50 25 50 50v135c0 28-22 53-50 53h-41v525h44z m-153 184c0 9 6 19 16 19h137c9 0 19-10 19-19v-134c0-10-6-16-16-16h-140c-10 0-16 6-16 16v134z m-750-150c-9 0-16 6-16 16v134c-3 9 7 19 16 19h137c10 0 16-6 16-16v-134c0-10-6-16-16-16h-137z m153-750c0-9-6-16-16-16h-137c-9 0-16 7-16 16v134c0 10 7 16 16 16h137c10 0 16-6 16-16v-134z m750 150c9 0 16-6 16-16v-134c0-9-7-16-16-16h-137c-10 0-16 7-16 16v134c0 10 6 16 16 16h137z m-134 38c-28 0-50-25-50-54v-43h-532v43c0 29-21 54-50 54h-43v528h43c29 0 50 22 50 47v46h532v-40c0-28 22-50 50-50h40v-528h-40z m-594 512v-300h528v300h-528z m222-144l-166-87v181l166-94z m-69 94h244l-125-66-119 66z m119-125l137-78h-287l150 78z m50 28l153 81v-165l-153 84z m-78-231c0-13-13-25-25-25h-191c-12 0-25 12-25 25 0 12 13 25 25 25h191c15 0 25-9 25-25z m47 0c0 12 12 25 25 25h190c13 0 25-13 25-25 0-13-12-25-25-25h-190c-13 0-25 12-25 25z m-47-106c0-13-13-25-25-25h-191c-12 0-25 12-25 25 0 12 13 25 25 25h191c15 3 25-10 25-25z m290 0c0-13-12-25-25-25h-190c-13 0-25 12-25 25 0 12 12 25 25 25h190c13 3 25-10 25-25z" horiz-adv-x="1000" />

<glyph glyph-name="list" unicode="&#xe814;" d="M975 50h-750c-14 0-25 11-25 25s11 25 25 25h750c14 0 25-11 25-25s-11-25-25-25z m0 250h-750c-14 0-25 11-25 25s11 25 25 25h750c14 0 25-11 25-25s-11-25-25-25z m0 250h-750c-14 0-25 11-25 25s11 25 25 25h750c14 0 25-11 25-25s-11-25-25-25z m-900-50c-41 0-75 34-75 75s34 75 75 75 75-34 75-75-34-75-75-75z m0 100c-14 0-25-11-25-25s11-25 25-25 25 11 25 25-11 25-25 25z m0-350c-41 0-75 34-75 75s34 75 75 75 75-34 75-75c0-41-34-75-75-75z m0 100c-14 0-25-11-25-25s11-25 25-25 25 11 25 25-11 25-25 25z m0-350c-41 0-75 34-75 75s34 75 75 75 75-34 75-75-34-75-75-75z m0 100c-14 0-25-11-25-25s11-25 25-25 25 11 25 25-11 25-25 25z" horiz-adv-x="1000" />

<glyph glyph-name="trash" unicode="&#xe815;" d="M775 750h-175v25c0 41-34 75-75 75h-100c-41 0-75-34-75-75v-25h-175c-41 0-75-34-75-75v-50c0-33 21-60 50-71v-629c0-41 34-75 75-75h500c41 0 75 34 75 75v629c29 11 50 38 50 71v50c0 41-34 75-75 75z m-375 25c0 14 11 25 25 25h100c14 0 25-11 25-25v-25h-150v25z m325-875h-500c-14 0-25 11-25 25v625h550v-625c0-14-11-25-25-25z m75 725c0-14-11-25-25-25h-600c-14 0-25 11-25 25v50c0 14 11 25 25 25h600c14 0 25-11 25-25v-50z m-175-125c-14 0-25-11-25-25v-500c0-14 11-25 25-25s25 11 25 25v500c0 14-11 25-25 25z m-150 0c-14 0-25-11-25-25v-500c0-14 11-25 25-25s25 11 25 25v500c0 14-11 25-25 25z m-150 0c-14 0-25-11-25-25v-500c0-14 11-25 25-25s25 11 25 25v500c0 14-11 25-25 25z" horiz-adv-x="1000" />

<glyph glyph-name="link" unicode="&#xe816;" d="M534 200c-47 0-94 18-130 54-10 10-10 26 0 35s26 10 35 0c53-52 138-52 190 0l182 182c52 52 52 138 0 190s-138 52-190 0l-153-154c-10-9-26-9-36 0s-9 26 0 36l154 153c72 72 188 72 260 0s72-188 0-260l-182-182c-36-36-83-54-130-54z m-300-300c-47 0-94 18-130 54-72 72-72 189 0 260l182 182c72 72 188 72 260 0 10-10 10-25 0-35s-26-10-35 0c-53 52-138 52-190 0l-182-182c-52-52-52-137 0-190s138-52 190 0l153 154c10 10 26 10 36 0s9-26 0-36l-154-153c-36-36-83-54-130-54z" horiz-adv-x="1000" />

<glyph glyph-name="sync" unicode="&#xe817;" d="M995 434c-10 10-26 10-36 0l-57-57c-3 103-44 199-118 273-75 75-176 117-283 117-149 0-285-82-355-214-6-12-1-27 11-33 12-7 27-2 34 10 61 115 180 187 310 187 190 0 345-152 351-340l-58 57c-9 10-25 10-35 0-10-9-10-25 0-35l100-100c5-5 11-7 18-7 6 0 13 2 18 7l100 100c10 10 10 26 0 35l0 0z m-150-220c-12 6-27 2-34-11-61-115-180-186-310-186-190 0-345 151-351 339l58-57c5-5 11-7 17-7 7 0 13 2 18 7 10 10 10 26 0 35l-100 100c-10 10-26 10-35 0l-101-100c-9-9-9-25 0-35 10-10 26-10 36 0l57 57c3-103 44-199 118-272 75-76 176-117 283-117 149 0 285 81 355 213 6 12 1 27-11 34l0 0z" horiz-adv-x="1000" />

<glyph glyph-name="conf" unicode="&#xe818;" d="M382-135c-2 0-5 0-7 1-45 11-88 29-128 53-11 6-16 21-9 33 8 15 12 31 12 48 0 55-45 100-100 100-17 0-33-4-48-12-12-7-27-2-33 9-24 40-42 84-53 128-4 13 4 26 16 30 41 14 68 52 68 95s-27 81-68 95c-12 4-20 17-16 30 11 45 29 88 53 128 6 12 21 16 33 9 15-8 31-12 48-12 55 0 100 45 100 100 0 17-4 33-12 48-7 12-2 27 9 33 40 24 83 42 128 53 13 4 26-3 30-16 14-41 52-68 95-68s81 27 95 68c4 13 17 20 30 16 45-11 88-29 128-53 12-6 16-21 9-33-8-15-12-31-12-48 0-55 45-100 100-100 17 0 33 4 48 12 12 7 27 3 33-9 24-40 42-83 53-128 4-13-3-26-16-30-41-14-68-52-68-95s27-81 68-95c13-4 20-17 16-30-11-44-29-88-53-128-6-11-21-16-33-9-15 8-31 12-48 12-55 0-100-45-100-100 0-17 4-33 12-48 7-12 3-27-9-33-40-24-83-42-128-53-13-4-26 3-30 16-14 41-52 68-95 68s-81-27-95-68c-3-10-13-17-23-17z m118 135c56 0 107-31 133-80 26 8 51 18 75 31-5 16-8 32-8 49 0 83 67 150 150 150 17 0 33-3 49-8 13 24 23 49 31 75-49 26-80 77-80 133s31 107 80 133c-8 26-18 51-31 75-16-5-32-8-49-8-83 0-150 67-150 150 0 17 3 33 8 49-24 13-49 23-75 31-26-48-77-80-133-80s-107 32-133 80c-26-8-51-18-75-31 5-16 8-32 8-49 0-83-67-150-150-150-17 0-33 3-49 8-13-24-23-49-31-75 49-26 80-77 80-133s-31-107-80-133c8-26 18-51 31-75 16 5 32 8 49 8 83 0 150-67 150-150 0-17-3-33-8-49 24-13 49-23 75-31 26 49 77 80 133 80z m0 200c-83 0-150 67-150 150s67 150 150 150 150-67 150-150-67-150-150-150z m0 250c-55 0-100-45-100-100s45-100 100-100c55 0 100 45 100 100s-45 100-100 100z" horiz-adv-x="1000" />

<glyph glyph-name="shortcut" unicode="&#xe819;" d="M928 622c0-16-6-28-22-41l-184-153c-16-12-44-12-59 0-10 6-13 19-13 28 0 10 6 22 13 28l121 104c-203-7-359-60-471-160-207-187-182-484-182-487 0-10-3-19-9-29-6-9-19-12-28-15l-3 0c-22 0-41 15-41 34 0 13-31 335 203 550 122 113 291 172 506 182l-125 84c-3 9-9 19-9 28 0 9 3 22 9 28 13 16 41 19 57 6l203-137c19-9 34-28 34-50z" horiz-adv-x="1000" />

<glyph glyph-name="save" unicode="&#xe81a;" d="M93-149c-51 0-93 42-93 93l0 808c0 51 42 93 93 93l638 0c8 0 16-3 22-9l233-233c6-6 9-13 9-22l0-637c0-51-42-93-93-93l-809 0z m-8 941c-17 0-32-14-32-32l0-824c0-17 15-32 32-32l825 0c18 0 32 15 32 32l0 637-220 219-637 0z m112-663c0 41 28 74 61 74l429 0c32 0 60-33 60-74l0-226 39 0 0 226c0 62-44 113-99 113l-429 0c-56 0-100-51-100-113l0-226 39 0 0 226z m-42 665l0-224c0-51 42-93 94-93l342 0c51 0 93 42 93 93l0 224-48 0 0-230c0-18-15-33-33-33l-366 0c-18 0-33 15-33 33l0 230-49 0z m351-72l0 0 0-133c0 6-5 11-11 11l83 0c-6 0-11-5-11-11l0 133c0-6 5-11 11-11l-83 0c6 0 11 5 11 11l0 0z m-34 0c0 13 10 22 23 22l83 0c12 0 22-9 22-22l0-133c0-12-10-22-22-22l-83 0c-13 0-23 10-23 22l0 133 0 0z" horiz-adv-x="1000" />

<glyph glyph-name="page" unicode="&#xe81b;" d="M893 568l-225 225c-5 4-11 7-18 7h-475c-41 0-75-34-75-75v-800c0-41 34-75 75-75h650c41 0 75 34 75 75v625c0 7-3 13-7 18z m-53-18h-165c-14 0-25 11-25 25v165l190-190z m10-625c0-14-11-25-25-25h-650c-14 0-25 11-25 25v800c0 14 11 25 25 25h425v-175c0-41 34-75 75-75h175v-575z" horiz-adv-x="1000" />

<glyph glyph-name="system" unicode="&#xe81c;" d="M363 408l-16 5c-9 3-18-2-20-10-3-9 1-18 10-21l16-5c-2-10-3-21-3-33 0-11 1-22 3-32l-16-5c-9-3-13-12-10-21 2-6 8-11 15-11 2 0 3 0 5 1l16 5c9-20 22-38 38-52l-10-14c-5-7-3-18 4-23 3-2 6-3 9-3 5 0 10 2 13 7l11 14c18-11 39-18 61-21l0-17c0-9 8-16 17-16 9 0 16 7 16 16l0 17c22 3 43 10 62 21l10-14c3-5 8-7 13-7 3 0 6 1 9 3 7 5 9 16 4 23l-10 14c16 14 29 32 38 52l16-5c2-1 4-1 5-1 7 0 13 5 16 11 2 9-2 18-11 21l-16 5c2 10 4 21 4 32 0 12-2 23-4 33l16 5c9 3 13 12 11 21-3 8-12 13-21 10l-16-5c-9 20-22 38-38 52l10 14c5 7 3 18-4 23-7 5-17 3-22-4l-10-14c-19 11-40 18-62 21l0 17c0 9-7 16-16 16-9 0-17-7-17-16l0-17c-22-3-43-10-61-21l-11 14c-5 7-15 9-22 4-7-5-9-16-4-23l10-14c-16-14-29-32-38-52l0 0z m143 60c68 0 123-55 123-124 0-68-55-123-123-123-69 0-124 55-124 123 0 69 55 124 124 124l0 0z m357 234c-95 95-222 148-357 148-135 0-262-53-358-148-95-96-148-222-148-358 0-135 53-261 148-357 96-96 223-148 358-148 86 0 171 22 246 64 8 4 11 14 7 22-5 8-15 11-22 6-71-39-150-60-231-60-261 0-474 213-474 473 0 261 213 474 474 474 261 0 473-213 473-474 0-80-21-160-60-231-5-7-2-17 6-22 8-4 18-1 22 7 42 75 64 160 64 246 0 136-52 262-148 358l0 0z m-11-618c-48 0-86-38-86-86 0-47 38-86 86-86 47 0 86 39 86 86 0 48-39 86-86 86l0 0z m0-139c-30 0-54 24-54 53 0 30 24 54 54 54 29 0 53-24 53-54 0-29-24-53-53-53l0 0z m-592 154c68-67 157-101 246-101 88 0 177 34 245 101 135 135 135 356 0 491-98 98-244 128-373 77-2-1-4-2-5-3-7-7-7-17 0-23 4-5 11-6 17-4 117 46 249 19 338-70 123-123 123-322 0-445-61-61-142-92-222-92-81 0-162 31-223 92-89 89-116 221-70 338 3 8-1 18-9 21-8 3-18-1-21-9-51-129-20-275 77-373l0 0z m12 565c-23 0-45-9-61-25-16-16-25-38-25-61 0-23 9-44 25-60 16-17 38-26 61-26 23 0 44 9 61 26 33 33 33 88 0 121-17 16-38 25-61 25l0 0z m38-124c-10-10-24-15-38-15-15 0-28 5-38 15-10 11-16 24-16 38 0 15 6 28 16 38 10 11 23 16 38 16 14 0 28-5 38-16 21-21 21-55 0-76l0 0z" horiz-adv-x="1000" />

<glyph glyph-name="pencil" unicode="&#xe81d;" d="M955 805c-28 28-65 44-105 44s-77-16-105-44l-638-637c-2-3-4-6-5-9l-100-276c-4-9-1-19 5-26 5-4 12-7 18-7 3 0 6 0 9 1l275 100c3 2 6 4 9 6l637 638c28 28 44 65 44 105s-16 77-44 105z m-669-808l-219-80 80 219 553 554 140-140-554-553z m634 633l-45-45-140 140 45 45c19 19 44 29 70 29s51-10 70-29c18-19 29-44 29-70s-11-51-29-70z" horiz-adv-x="1000" />

<glyph glyph-name="key" unicode="&#xe81e;" d="M941 550c-19 134-147 269-328 234-166-34-257-193-210-353 6-12 3-18-6-31-106-106-225-222-331-328l-7-94c-15-69 54-62 54-62l106 0c6 3 9 6 12 9 25 37 44 34 88 31 31-3 72 31 72 63 0 15 0 31 0 50 18 0 37 0 56-3 34 0 53 22 53 56 0 16 0 37 0 53 0 6 6 16 9 19 16 15 35 34 50 50 7 6 10 6 22 3 47-16 94-19 144-9 116 25 238 150 216 312z m-241-262c-47-7-87 3-131 25-10 6-16 3-25-4-31-31-60-59-85-84-9-12-15-22-15-37 0-22-3-54-3-54-22 0-38 0-53 0-4-3-4-3-7-6l-37-40c0-4 0-10 0-16 0-16 0-47 0-66-22 0-56-3-78-3-22 0-41-6-50-25-7-9-16-16-22-22l-91 0 3 75c0 0 3 3 3 3 119 116 235 232 354 354 3 3 9 6 12 9-25 44-37 84-34 134 6 103 93 194 193 210 122 12 232-63 260-178 25-125-66-263-194-275z m47 156l53 37 38 53c0 0-10 32-66 91-56 56-91 66-91 66l-53-38-34-53c0 0 9-31 65-91 57-56 88-65 88-65z m-125 150l28 37 38 28c0 0 25-6 68-50 44-43 50-68 50-68l-25-38-40-28c0 0-25 6-69 50-44 47-50 69-50 69z" horiz-adv-x="1000" />

<glyph glyph-name="danger" unicode="&#xe81f;" d="M500 506c-19 0-28-12-28-28v-209c0-19 12-28 28-28 19 0 28 12 28 28v209c0 19-12 28-28 28z m16-362c-13 12-28 12-41 0-6-6-6-19-6-22 0-13 0-19 6-22 6-6 19-6 22-6 6 0 19 0 12 6 7 6 13 19 13 22 0 9 0 16-6 22z m453-6l-341 596c-22 47-75 75-128 75-53 0-97-28-128-75l-341-596c-28-47-28-104 0-151 22-46 75-75 125-75h682c59 0 103 29 128 75 31 47 31 104 3 151l0 0z m-47-129c-13-28-41-47-75-47h-688c-28 0-59 19-75 47-18 29-18 63 0 94l341 594c13 28 41 47 75 47 34 0 63-19 81-47l341-597c16-25 16-62 0-91z" horiz-adv-x="1000" />

<glyph glyph-name="cc" unicode="&#xe820;" d="M500-116c256 0 466 210 466 466 0 256-210 466-466 466-256 0-466-210-466-466 0-256 210-466 466-466l0 0z m0 888c231 0 422-188 422-422s-188-422-422-422-422 191-422 422 191 422 422 422l0 0z m0-13m-22-459c0-9-3-22-6-31-6-13-13-22-22-35-9-12-25-21-41-28-15-6-34-9-56-9-15 0-31 3-47 6-12 3-25 10-37 16-13 6-22 15-31 25-10 9-16 22-22 34-7 13-10 25-13 41-3 12-3 28-3 44 0 25 3 46 13 68 6 19 18 38 31 50 12 16 31 25 47 32 18 6 37 12 59 12 25 0 47-6 69-16 19-9 34-21 47-37 9-16 15-28 15-44 0-6-3-12-6-19s-12-9-19-9c-9 0-15 3-18 6-4 3-10 10-13 19-9 16-19 28-28 34-13 7-25 13-41 13-25 0-47-9-62-31-16-19-22-47-22-85 0-25 3-43 9-62 7-16 16-28 28-38 13-9 29-12 44-12 19 0 35 3 47 12 13 10 22 22 28 41 3 9 6 16 10 19 3 6 9 9 18 9 7 0 16-3 19-9 0-3 3-10 3-16z m325 0c0-9-3-22-6-31-6-13-13-22-22-35-9-12-25-21-41-28-15-6-34-9-56-9-15 0-31 3-47 6-12 3-25 10-37 16-13 6-22 15-31 25-10 9-16 22-22 34-7 13-10 25-13 41-3 12-3 28-3 44 0 25 3 46 13 68 6 19 18 38 31 50 12 16 31 25 47 32 18 6 37 12 59 12 25 0 47-6 69-16 19-9 34-21 47-37 9-16 15-28 15-44 0-6-3-12-6-19-6-6-12-9-19-9-9 0-15 3-18 6-4 3-10 10-13 19-9 16-19 28-28 34-13 7-25 13-41 13-25 0-47-9-62-31-16-19-22-47-22-85 0-25 3-43 9-62 7-16 16-28 28-38 13-9 29-12 44-12 19 0 35 3 47 12 13 10 22 22 28 41 3 9 6 16 10 19 3 6 9 9 18 9 7 0 16-3 19-9 0-3 3-10 3-16z" horiz-adv-x="1000" />

<glyph glyph-name="chevron-right" unicode="&#xe821;" d="M322-34c-6 0-9 3-16 6-9 9-9 22 0 28l353 353-350 356c-9 10-9 22 0 29s22 9 29 0l368-369c10-10 10-22 0-28l-368-369c-4-3-10-6-16-6l0 0z" horiz-adv-x="1000" />

<glyph glyph-name="checkmark-circle" unicode="&#xe822;" d="M475-150c-127 0-246 49-336 139s-139 209-139 336c0 127 49 246 139 336s209 139 336 139c127 0 246-49 336-139s139-209 139-336-49-246-139-336c-90-90-209-139-336-139z m0 900c-234 0-425-191-425-425s191-425 425-425 425 191 425 425-191 425-425 425z m-100-625c-6 0-13 2-18 7l-150 150c-9 10-9 26 0 36s26 9 36 0l132-133 332 333c10 9 26 9 36 0s9-26 0-36l-350-350c-5-5-12-7-18-7z" horiz-adv-x="1000" />

<glyph glyph-name="category-v" unicode="&#xe823;" d="M700 317l0 0 0-100c0-3 3-6 6-6l211 0c3 0 5 3 5 6l0 100c0 3-2 5-5 5l-211 0c-3 0-6-2-6-5l0 0z m-39 0c0 24 20 44 45 44l211 0c24 0 44-20 44-44l0-100c0-25-20-45-44-45l-211 0c-25 0-45 20-45 45l0 100 0 0z m-572 450l0 0 0-272c0-4 2-6 6-6l426 0c3 0 5 2 5 6l0 272c0 3-2 5-5 5l-426 0c-4 0-6-2-6-5l0 0z m-39 0c0 24 20 44 45 44l426 0c24 0 44-20 44-44l0-272c0-25-20-45-44-45l-426 0c-25 0-45 20-45 45l0 272 0 0z m650-734l0 0 0-100c0-3 3-5 6-5l211 0c3 0 5 2 5 5l0 100c0 3-2 6-5 6l-211 0c-3 0-6-3-6-6l0 0z m-39 0c0 25 20 45 45 45l211 0c24 0 44-20 44-45l0-100c0-24-20-44-44-44l-211 0c-25 0-45 20-45 44l0 100 0 0z m-480 628l255 0c11 0 20 9 20 20 0 10-9 19-20 19l-255 0c-11 0-20-9-20-19 0-11 9-20 20-20l0 0z m0-94l255 0c11 0 20 8 20 19 0 11-9 20-20 20l-255 0c-11 0-20-9-20-20 0-11 9-19 20-19l0 0z m116-89l0-414 1 4c-1-1-1-3-1-5-1-15 0-32 7-49 15-35 48-56 99-56l278 0 0 45-278 0c-34 0-50 10-58 28-4 9-5 19-4 28 0 1 0 1 0 1l1 2 0 2 0 414-45 0 0 0z m372-189l-344 0-22 0 0-45 22 0 344 0 23 0 0 45-23 0 0 0z" horiz-adv-x="1000" />

<glyph glyph-name="chevron-donw" unicode="&#xe824;" d="M119 538c0 6 3 9 6 15 9 10 22 10 28 0l353-353 353 353c10 10 22 10 29 0 9-9 9-22 0-28l-366-369c-9-9-22-9-28 0l-369 369c-3 3-6 9-6 13l0 0z" horiz-adv-x="1000" />

<glyph glyph-name="chevron-left" unicode="&#xe825;" d="M691 744c6 0 9-3 15-6 10-10 10-22 0-29l-353-353 353-353c10-9 10-22 0-28s-22-9-28 0l-369 366c-9 9-9 22 0 28l366 369c6 3 9 6 16 6l0 0z" horiz-adv-x="1000" />

<glyph glyph-name="chevron-up" unicode="&#xe826;" d="M897 172c0-6-3-9-6-16-10-9-22-9-28 0l-357 353-353-353c-9-9-22-9-28 0-9 10-9 22 0 28l369 369c9 10 22 10 28 0l369-369c3-3 6-9 6-12l0 0z" horiz-adv-x="1000" />

<glyph glyph-name="lock-1" unicode="&#xe827;" d="M785 490h-25v80c0 135-110 245-245 245s-250-110-250-245v-80h-30c-45 0-80-40-80-85v-440c0-45 35-80 80-80h550c45 0 80 35 80 80v440c0 45-35 85-80 85z m-465 80c0 105 85 190 190 190s190-85 190-190v-80h-380v80z m495-605c0-15-10-25-25-25h-550c-15 0-25 10-25 25v440c0 15 10 25 25 25h550c15 0 25-10 25-25v-440z" horiz-adv-x="1000" />

<glyph glyph-name="warning" unicode="&#xe828;" d="M502-131c265 0 479 215 479 481 0 266-215 480-479 480-266 0-482-216-482-480 0-266 216-481 482-481l0 0z m0 912c239 0 432-193 432-433s-193-432-432-432-433 193-433 432 194 433 433 433l0 0z m0-11m51-586c0-26-22-50-50-50-26 0-50 22-50 50 0 29 22 50 50 50 28-1 50-23 50-50l0 0z m0 0m-48 122c15 0 29 13 29 30v252c0 15-12 29-29 29-16 0-30-12-30-29v-252c0-16 13-30 30-30l0 0z m0 0" horiz-adv-x="1000" />

<glyph glyph-name="close" unicode="&#xe829;" d="M938-131c-13 0-19 6-25 12l-413 425-419-425c-12-12-31-12-43 0s-13 31 0 44l418 425-418 425c-13 13-13 31 0 44s31 12 43 0l419-425 419 425c12 12 31 12 44 0 12-13 12-31 0-44l-419-425 419-425c12-13 12-31 0-44-7-6-19-12-25-12z" horiz-adv-x="1000" />

<glyph glyph-name="zoom" unicode="&#xe82a;" d="M943-108l-297 324a375 375 0 0 1-537 524 375 375 0 0 1 500-558l298-324a25 25 0 0 1 36 34h0z m-893 583a325 325 0 1 0 325-325 326 326 0 0 0-325 325z" horiz-adv-x="950" />

<glyph glyph-name="zundi-o" unicode="&#xe82b;" d="M644 597l-341-488c-6 4-9 10-12 16-10 16-7 34 3 47l237 344h-200c-25 0-47 18-47 43s22 44 47 44h285c12 3 22 0 28-6z m37-422h-212l237 344c10 12 10 31 3 47-3 6-6 12-12 15l-344-487c6-6 19-10 28-10h300c25 0 47 19 47 44s-22 47-47 47z m97 603h-562c-82 0-147-65-147-147v-562c0-82 65-147 147-147h562c81 0 147 65 147 147v562c0 63-66 147-147 147m-12 41c109 0 200-91 200-200v-553c0-100-85-185-185-185h-568c-100 0-185 85-185 185v568c0 100 85 185 185 185h553l0 0z" horiz-adv-x="1000" />

<glyph glyph-name="zundi" unicode="&#xe82c;" d="M775 819h-553c-100 0-191-85-191-185v-568c0-104 91-185 191-185h569c100 0 178 81 178 185v553c0 109-85 200-194 200z m-484-691c-10 16-7 25 3 41l237 337h-200c-25 0-47 22-47 47 4 25 22 47 50 47h285c9 0 19 3 28-3l-344-484c-3 3-9 9-12 15z m390-28h-300c-9 0-18-3-28 3l344 485c6-4 9-10 12-16 10-16 7-25-3-41l-237-337h212c25 0 47-22 47-47 0-25-22-47-47-47z" horiz-adv-x="1000" />

<glyph glyph-name="email" unicode="&#xe82d;" d="M920 675h-840c-45 0-80-35-80-80v-475c0-45 35-80 80-80h840c45 0 80 35 80 80v475c0 45-35 80-80 80z m0-55c5 0 5 0 0 0l-390-265c-15-10-45-10-60 0l-395 265c0 0 5 0 5 0l840 0 0 0z m0-525h-840c-15 0-25 10-25 25v450l390-260c15-5 35-10 55-10s40 5 60 15l390 260v-450c-5-15-15-30-30-30z" horiz-adv-x="1000" />

<glyph glyph-name="bubble" unicode="&#xe82e;" d="M30-150a30 30 0 0 0-16 55 365 365 0 0 1 156 187 403 403 0 0 0-170 317 361 361 0 0 0 45 174 454 454 0 0 0 122 140 640 640 0 0 0 392 127 640 640 0 0 0 392-127 451 451 0 0 0 121-140 359 359 0 0 0 0-348 454 454 0 0 0-121-140 640 640 0 0 0-392-128 694 694 0 0 0-178 23 1220 1220 0 0 0-128-75 527 527 0 0 0-223-65h0z m529 941c-276 0-500-171-500-382a350 350 0 0 1 162-282 30 30 0 0 0 11-32 406 406 0 0 0-93-164 999 999 0 0 1 220 114 30 30 0 0 0 25 4 635 635 0 0 1 175-24c275 0 500 171 500 382s-225 384-500 384z" horiz-adv-x="1117" />

<glyph glyph-name="reorder" unicode="&#xe82f;" d="M872 91h-709c-13 0-25 9-25 25 0 12 9 25 25 25h709c12 0 25-10 25-25-3-16-13-25-25-25z m0 234h-709c-13 0-25 9-25 25s9 25 25 25h709c12 0 25-9 25-25s-13-25-25-25z m0 238h-709c-13 0-25 9-25 25s9 25 25 25h709c12 0 25-10 25-25s-13-25-25-25z" horiz-adv-x="1000" />

<glyph glyph-name="search" unicode="&#xe830;" d="M943-108l-297 324a375 375 0 0 1-537 524 375 375 0 0 1 500-558l298-324a25 25 0 0 1 36 34h0z m-893 583a325 325 0 1 0 325-325 326 326 0 0 0-325 325z" horiz-adv-x="950" />

<glyph glyph-name="box-o" unicode="&#xe831;" d="M119 81l375-154c4-2 8-2 12-2 3 0 7 0 11 2l372 150c11 4 16 16 13 27l0 338c0 12-10 22-22 22-13 0-23-10-23-22l0-330-335-135 0 498c0 12-10 22-22 22-12 0-22-10-22-22l0-494-332 137 0 329c0 13-10 22-22 22-12 0-22-9-22-22l0-344c0-11 7-20 17-22l0 0z m286 286l-344 145 81 99c8 10 7 24-3 31-9 8-23 7-31-3l-97-119c-3-2-5-5-6-9-5-11 0-24 11-29l384-161c4-1 7-2 11-1 8-1 16 2 21 9l89 128c7 10 5 24-5 31-11 7-24 4-31-6l-80-115 0 0z m106 86c-3 0-7 0-11 1l-369 148c-12 4-17 17-13 28 5 12 18 17 29 13l364-145 353 139c12 5 24-1 29-12 4-12-1-24-13-29l-358-142c-3-1-7-1-11-1l0 0z m-7 310l386-119c12-4 18-17 15-28-4-12-16-19-28-15l-380 117-354-109c-12-3-24 3-28 15-4 12 3 24 15 28l360 111c3 1 5 1 7 1 3 0 5 0 7-1l0 0z m111-440l360 151c1 0 2 1 3 1 3 1 7 2 10 4 10 7 12 21 5 31l-86 120c-7 10-21 12-31 5-10-7-12-21-5-31l69-97-333-139-86 120c-7 10-21 12-31 5-10-7-12-21-5-31l97-136c7-10 21-12 31-5 1 0 2 1 2 2l0 0z" horiz-adv-x="1000" />

<glyph glyph-name="folder-up" unicode="&#xe832;" d="M600 272l0 0 0-328c0 0 0 0 0 0l328 0c0 0 0 0 0 0l0 328c0 0 0 0 0 0l-328 0c0 0 0 0 0 0l0 0z m-44 0c0 25 19 45 44 45l328 0c24 0 44-20 44-45l0-328c0-24-20-44-44-44l-328 0c-25 0-44 20-44 44l0 328 0 0z m194-148l-54-54c-8-8-22-8-31 0-9 9-9 23 0 32l89 89c4 4 10 6 15 6 6 0 11-2 16-6l94-89c9-8 10-22 1-31-8-9-22-9-31-1l-55 51 0-196c0-12-9-22-22-22-12 0-22 10-22 22l0 199z m-681-177c-2 0-10 2-12 6-2 6-4 16-4 29 0 41-1 746 0 749 2 5 7 8 23 8 51 0 51 0 131 0 45 0 45 0 86 0 24 0 24 0 42 0 14 0 162-218 162-218 5-6 11-9 18-9l442 0 0-144c0-12 10-22 22-22 12 0 22 10 22 22l0 188-474 0-157 218c-5 6-11 10-18 10-3 0-3 0-17 0-18 0-18 0-42 0-41 0-41 0-86 0-80 0-80 0-131 0-35 0-57-15-65-39-4-11-2-722-2-763 0-37 10-61 29-73 11-7 31-7 31-7l407 0c12 0 22 10 22 22 0 13-10 23-22 23l-407 0z m869 686l-510 0 0 44 510 1c3 0 29 1 44-13 17-17 18-26 18-54l0-22 0-77 0 1-44-1 0 14 0 63 0 22c0 13-9 22-18 22z" horiz-adv-x="1000" />

<glyph glyph-name="family" unicode="&#xe833;" d="M242 426l0 0c-36-1-71 14-98 39-26 24-40 58-40 93 1 36 15 70 41 93 27 25 61 38 97 38l1 0c36 0 71-14 98-40 25-24 40-58 39-93-1-73-63-130-138-130l0 0z m0 229c-26 0-52-10-72-28-20-18-31-43-31-69l0 0c-1-27 10-53 29-71 20-19 46-29 73-29l0 0c55-3 102 41 105 98 0 26-10 52-29 70-20 19-46 30-73 30l-2 0 0-1z m517-229l0 0c-36-1-72 14-99 39-25 24-39 58-39 93 0 36 15 70 41 93 27 25 61 38 97 38l1 0c36 0 71-14 97-40 26-24 40-58 40-93-1-73-63-130-138-130l0 0 0 0z m0 231c-27 0-54-10-74-29-19-18-31-43-31-70l0 0c-1-27 10-53 30-72 20-19 46-30 74-30l0 0c56-2 103 42 106 100 1 27-10 53-29 72-20 19-47 30-74 30l-2 0 0-1 0 0z m-318-646l-47 0c-14 0-28 3-41 8-22 7-37 27-40 51-6 41 2 84 21 120 14 27 40 45 69 46 8 0 16-2 23-5 6-3 11-6 17-10 8-4 16-8 25-12 30-11 63-8 90 9l5 3c2 1 4 3 7 4l5 3c6 5 13 7 21 8 16 1 33-4 47-14 15-10 27-26 34-43 13-33 18-69 15-105-4-33-31-59-64-61-10-1-21-1-31-1l-156 0 0-1z m-25 182l-1 0c-18 0-35-11-44-27-15-26-20-56-16-86 1-12 10-22 23-26 9-3 19-4 29-5l68 0 111 0c8 0 17 0 25 1 20 1 36 15 39 33 2 26-2 52-13 75-4 11-12 21-23 27-8 6-18 9-28 8-4 0-7-2-10-4l-5-3c-2 0-4-1-5-2l-6-3c-29-16-65-19-97-8-8 3-16 7-24 11-4 2-9 5-14 6-3 2-6 3-9 3l0 0z m86 59l0 0c-28-1-56 11-77 31-20 19-32 46-32 74 1 29 12 55 33 74 21 20 48 30 76 30l1 0c29 0 56-11 77-31 20-19 32-47 31-75 0-58-49-103-109-103l0 0z m0 176c-19 0-38-8-52-21-14-13-22-31-22-50l0 0c-1-20 7-38 21-52 14-13 33-21 53-21l0 0c39-2 73 30 75 71 0 20-7 38-21 52-14 13-33 21-52 21l-2 0 0 0z m161-71c7-2 14-5 21-9 1-1 3-3 5-4 15-14 33-25 64-28 37-3 76 5 110 26 30 18 48 17 58 8 2-2 3-3 4-5 1 0 1-1 1 0 0-1 1-2 1-4 1-2 3-5 4-8 4-9 8-19 12-30 6-17 10-33 13-49 4-19 4-35 1-46-4-16-11-25-21-31-5-2-10-4-15-4-3-1-6-1-9-1 0 0-1 0-2 0l-182 0c-10 0-19-8-19-19 0-11 9-20 19-20l182 0-2 0c1 0 1 0 2 0 13 0 28 2 43 10 20 10 34 29 41 55 4 18 4 40-1 64-3 17-8 36-15 55-4 11-8 22-12 32-3 6-5 10-6 13-1 1-2 3-3 5-3 4-6 8-10 12-24 21-60 23-103-4-28-17-58-23-88-20-23 2-33 10-42 18-3 2-6 5-9 7-10 7-22 12-33 15-7 2-13 2-17 2-11 0-19-8-19-19 0-11 8-20 19-20 1 0 4 0 8-1z m-329-3c-7-1-14-4-21-9-1-1-3-3-5-4-15-14-33-25-64-28-37-3-75 5-110 26-30 19-48 18-58 8-2-2-3-3-4-4-1-1-1-1-1-1 0-1 0-2-1-3-1-3-3-6-4-9-4-9-8-19-11-29-7-17-11-34-14-49-3-19-4-35-1-47 4-16 11-25 21-30 5-3 10-4 15-5 3-1 6-1 9-1 0 0 1 0 2 0l182 0c10 0 19-8 19-19 0-11-9-19-19-19l-182 0 2 0c-1 0-1 0-2 0-13-1-28 1-43 9-20 10-34 29-41 55-4 19-4 40 1 64 3 17 8 36 15 55 4 11 8 22 12 32 3 6 5 10 6 13 1 1 2 3 4 6 2 4 5 7 9 11 24 22 60 23 104-4 27-16 57-23 87-20 23 2 34 10 42 18 3 3 6 5 9 7 10 8 22 12 33 15 8 2 13 2 17 2 11 0 19-8 19-19 0-11-8-19-19-19-1 0-4-1-8-2z" horiz-adv-x="1000" />

<glyph glyph-name="marca" unicode="&#xe834;" d="M508-110c254 0 460 206 460 460 0 254-206 461-460 461-254 0-460-207-460-461 0-254 206-460 460-460l0 0z m0 47c-228 0-413 185-413 413 0 228 185 413 413 413 228 0 413-185 413-413 0-228-185-413-413-413l0 0z m194 198l-104 179c47 20 76 55 76 122l0 4c0 116-88 137-194 137-44 0-84-1-123-3l0-439 81 0 0 162 41 0c13 0 26 0 38 0l97-162 88 0z m-109 300c0-57-34-73-110-73-15 0-30 0-45 1l0 144c108 0 155 0 155-68l0-4z" horiz-adv-x="1000" />

<glyph glyph-name="kardex" unicode="&#xe835;" d="M688-104l-53 0c-16 0-31 3-46 9-25 8-43 30-45 56-7 47 1 95 23 136 16 30 45 50 78 51 9 0 18-2 26-6 6-3 13-7 20-10 8-6 18-10 27-14 34-13 71-9 102 10l5 3c3 2 6 3 8 5l6 3c7 5 15 8 24 9 19 1 37-4 53-15 17-12 31-29 38-49 15-37 21-77 17-117-4-38-35-67-72-69-11-1-24-1-35-1l-176 0 0-1z m-28 204l-1 0c-21-1-40-12-50-30-17-29-23-63-18-96 2-14 12-26 26-30 10-3 22-5 33-5l76 0 125 0c10 0 20 0 29 1 23 0 41 16 44 37 3 29-2 58-14 84-5 12-14 23-26 30-10 6-21 9-33 9-3-1-7-2-10-4l-7-3c-2-1-3-2-5-3l-6-4c-33-17-74-21-110-8-9 3-18 7-27 12-4 3-10 5-16 7-3 2-6 3-10 3l0 0z m97 65l0 0c-32 0-64 13-87 36-23 21-36 51-36 83 1 31 14 61 37 82 24 22 54 34 86 34l1 0c32 0 64-12 87-35 23-22 36-52 35-84 0-64-56-116-123-116l0 0z m0 197c-21 1-43-8-59-23-15-14-25-34-25-56l0 0c0-22 8-43 24-57 16-16 38-24 60-24l0 0c44-2 82 33 85 79 0 22-9 43-24 58-16 15-37 24-59 24l-2 0 0-1z m-702-405c-2 0-10 3-11 6-3 7-5 17-5 30 0 41-1 746 0 748 2 6 7 9 23 9 51 0 51 0 131 0 46 0 46 0 86 0 25 0 25 0 42 0 14 0 163-218 163-218 4-6 11-10 18-10l441 0 0-143c0-13 10-22 22-22 12 0 22 9 22 22l0 188-473 0-158 218c-4 6-11 9-18 9-3 0-3 0-17 0-17 0-17 0-42 0-40 0-40 0-86 0-80 0-80 0-131 0-34 0-57-14-65-38-4-11-2-722-2-763 0-37 10-62 29-74 11-6 31-6 31-6l407 0c12 0 22 10 22 22 0 13-10 22-22 22l-407 0z m867 688l-511-1 0 44 511 1c2 0 28 1 43-13 18-17 18-26 18-54l0-22 0-77 0 1-44-1 0 14 0 63 0 22c0 13-9 23-17 23z" horiz-adv-x="1000" />

<glyph glyph-name="division" unicode="&#xe836;" d="M106-144l-36 0c-11 0-22 2-32 6-17 5-29 20-31 39-4 32 1 64 16 93 11 21 31 34 54 35 6 0 12-1 17-4 5-2 9-5 13-7 7-4 13-7 19-10 23-8 49-6 70 7l4 2c1 2 3 3 5 4l4 2c5 3 10 6 16 6 13 1 26-3 36-10 12-9 21-21 27-34 10-26 14-53 11-81-3-26-23-46-49-47-8-1-16-1-24-1l-120 0 0 0z m-19 140l-1 0c-15-1-28-8-34-21-12-20-16-43-12-66 1-10 7-17 17-20 7-3 15-4 23-4l52 0 86 0c6 0 13 0 19 1 16 0 28 11 30 25 2 20-1 40-10 58-3 9-9 16-17 21-7 4-15 6-23 6-2-1-5-2-7-3l-4-2c-2-1-3-1-4-2l-4-2c-23-13-50-15-75-6-6 2-13 5-19 8-3 2-7 4-11 5-2 1-4 2-6 2l0 0z m66 45l0 0c-22 0-43 9-60 24-15 15-24 36-24 58 0 21 9 42 25 57 16 15 37 23 59 23l1 0c22 0 43-9 59-24 16-15 24-36 24-58 0-45-38-80-84-80l0 0z m0 136c-15 0-29-6-40-16-11-10-17-24-17-39l0 0c-1-15 5-29 16-39 11-11 26-17 41-17l0 0c30-1 56 23 58 55 0 15-6 29-16 40-11 10-26 16-41 16l-1 0 0 0z m309-319l-37 0c-11 0-21 3-32 6-16 6-28 21-30 39-5 32 1 65 16 94 10 21 31 34 53 35 6 0 12-1 17-4 5-2 10-5 14-7 6-4 12-7 19-10 23-9 49-6 70 7l3 2c2 1 4 3 6 4l4 2c4 3 10 5 16 6 13 1 25-3 36-11 12-8 21-20 26-34 11-25 14-53 12-80-3-26-24-46-49-47-8-1-17-1-24-1l-120 0 0-1z m-20 141l0 0c-15-1-28-9-35-21-11-20-15-44-12-66 1-10 8-18 18-20 7-3 15-4 22-4l53 0 85 0c7 0 13 0 20 0 15 1 28 12 29 26 2 20-1 40-9 58-4 8-10 16-18 21-6 4-14 6-22 6-3-1-5-2-7-3l-5-2c-1-1-2-2-3-2l-4-3c-23-12-51-14-75-6-7 3-13 6-19 9-3 2-7 3-11 5-2 1-4 1-7 2l0 0z m67 45l0 0c-22 0-44 8-60 24-16 15-25 36-24 57 0 22 9 43 25 57 16 16 37 24 59 24l0 0c22 0 44-9 60-25 15-14 24-35 24-57-1-45-38-80-84-80l0 0z m0 136c-15 0-30-6-41-16-10-10-17-24-17-39l0 0c0-15 6-29 16-40 12-10 26-16 41-16l0 0c31-1 57 23 58 55 1 15-5 29-16 39-11 11-25 17-40 17l-1 0 0 0z m297-322l-36 0c-11 0-22 3-32 6-17 6-29 21-31 39-4 32 1 65 16 94 11 21 31 34 54 35 6 0 12-1 17-4 5-2 9-5 13-7 7-4 13-7 19-10 23-9 49-6 70 7l4 2c1 1 3 3 5 4l4 2c5 3 10 5 16 6 13 1 26-3 36-11 12-8 21-20 27-34 10-25 14-53 11-80-3-26-23-46-49-47-8-1-16-1-24-1l-120 0 0-1z m-19 141l-1 0c-15-1-28-9-34-21-12-20-16-44-12-66 1-10 7-18 17-20 7-3 15-4 23-4l52 0 86 0c6 0 13 0 19 0 16 1 28 12 30 26 2 20-1 40-10 58-3 8-9 16-17 21-7 4-15 6-23 6-2-1-5-2-7-3l-4-2c-2-1-3-2-4-2l-4-3c-23-12-50-14-75-6-6 3-13 6-19 9-3 2-7 3-11 5-2 1-4 1-6 2l0 0z m66 45l0 0c-22 0-43 8-60 24-15 15-24 36-24 57 0 22 9 43 25 57 16 16 37 24 59 24l1 0c22 0 43-9 59-25 16-14 24-35 24-57 0-45-38-80-84-80l0 0z m0 136c-15 0-29-6-40-16-11-10-17-24-17-39l0 0c-1-15 5-29 16-40 11-10 26-16 41-16l0 0c30-1 56 23 58 55 0 15-6 29-16 39-11 11-26 17-41 17l-1 0 0 0z m-415 251l-44 0c-13 0-26 2-38 7-21 7-35 25-38 47-5 39 2 78 20 113 13 25 37 41 64 42 8 0 15-1 21-5 6-2 11-5 17-8 7-5 15-8 23-12 27-10 58-7 84 8l4 3c2 1 4 3 7 4l4 3c6 4 13 7 20 7 15 1 31-3 44-12 14-10 25-25 31-41 13-31 18-64 14-97-3-32-28-56-59-58-10-1-20-1-29-1l-145 0 0 0z m-23 169l-1 0c-18 0-34-10-41-25-14-24-20-52-15-80 1-11 9-21 21-24 9-3 18-5 27-5l63 0 104 0c8 0 16 0 23 1 19 1 34 14 36 31 3 24-1 48-11 70-4 10-12 19-22 25-8 5-17 8-27 7-3 0-6-1-8-3l-6-3c-1-1-3-1-4-2l-5-3c-28-15-61-17-91-7-7 3-15 6-22 10-4 2-9 4-13 6-3 1-6 2-8 2l0 0z m80 55l0 0c-27 0-53 10-73 29-18 18-29 43-29 69 1 27 12 52 31 69 19 18 45 28 71 28l1 0c26 0 52-10 71-29 19-18 30-43 29-70 0-54-46-96-101-96l0 0z m0 164c-18 0-35-7-49-19-13-12-20-29-21-47l0 0c0-18 7-36 20-48 14-13 31-20 49-20l0 0c37-2 68 28 70 66 1 18-6 36-19 48-13 13-31 20-49 20l-1 0 0 0z m-323-586l0 72 0 1 0 1c0-1 0-1 0-1 0 3 1 8 3 12 3 6 9 10 22 10l601 0 0 0 1 0c0 0 0 0 1 0 2 0 5 0 8 0 5-1 9-2 13-3 12-5 18-12 18-28 0-35 0-35 0-51 0-9 0-9 0-10l39 0c0 1 0 1 0 10 0 16 0 16 0 51 0 33-17 55-43 64-13 5-26 6-37 6-1 0-2 0-2-1l2 1-601 0c-28 0-47-12-57-32-5-11-7-21-7-30 0-1 0-1 0-1l0 1 0-72 39 0 0 0z m350 13l0 147 0 13-39 0 0-13 0-147 0-13 39 0 0 13 0 0z" horiz-adv-x="1000" />

<glyph glyph-name="intranet" unicode="&#xe837;" d="M399 811l224 0c12 0 22-10 22-22l0-136c0-12-10-22-22-22l-224 0c-12 0-22 10-22 22l0 136c0 12 10 22 22 22l0 0z m5-22l0-136c0 3-2 5-5 5l224 0c-3 0-5-2-5-5l0 136c0-3 2-5 5-5l-224 0c3 0 5 2 5 5l0 0z m71-153l2-29-50-4-3-19 184-1-9 18-44 7 2 29-82-1z m-453-300l224 0c12 0 22-10 22-22l0-137c0-12-10-22-22-22l-224 0c-12 0-22 10-22 22l0 137c0 12 10 22 22 22l0 0z m5-22l0-137c0 3-2 6-5 6l224 0c-3 0-5-3-5-6l0 137c0-3 2-6 5-6l-224 0c3 0 5 3 5 6l0 0z m71-153l2-30-50-4-3-19 184 0-9 17-45 7 3 30-82-1z m656 197l224 0c12 0 22-10 22-22l0-137c0-12-10-22-22-22l-224 0c-12 0-22 10-22 22l0 137c0 12 10 22 22 22l0 0z m6-22l0-137c0 3-3 6-6 6l224 0c-3 0-5-3-5-6l0 137c0-3 2-6 5-6l-224 0c3 0 6 3 6 6l0 0z m70-153l2-30-50-4-3-19 184-1-9 18-44 7 2 30-82-1z m-546 442c18 0 33 15 33 33 0 18-15 33-33 33-18 0-33-15-33-33 0-18 15-33 33-33l0 0z m459 6c18 0 33 14 33 33 0 18-15 32-33 32-18 0-32-14-32-32 0-19 14-33 32-33l0 0z m99-93c18 0 32 15 32 33 0 18-14 32-32 32-18 0-33-14-33-32 0-18 15-33 33-33l0 0z m60-120c18 0 33 14 33 32 0 19-15 33-33 33-18 0-33-14-33-33 0-18 15-32 33-32l0 0z m-612-438c18 0 32 15 32 33 0 18-14 33-32 33-18 0-33-15-33-33 0-18 15-33 33-33l0 0z m104-54c18 0 32 14 32 33 0 18-14 32-32 32-19 0-33-14-33-32 0-19 14-33 33-33l0 0z m120-22c18 0 33 15 33 33 0 18-15 32-33 32-18 0-33-14-33-32 0-18 15-33 33-33l0 0z m136 22c19 0 33 14 33 33 0 18-14 32-33 32-18 0-32-14-32-32 0-19 14-33 32-33l0 0z m110 54c18 0 32 15 32 33 0 18-14 33-32 33-18 0-33-15-33-33 0-18 15-33 33-33l0 0z m-569 552c18 0 33 15 33 33 0 18-15 33-33 33-18 0-32-15-32-33 0-18 14-33 32-33l0 0z m-54-114c18 0 32 14 32 32 0 19-14 33-32 33-18 0-33-14-33-33 0-18 15-32 33-32l0 0z" horiz-adv-x="1000" />

<glyph glyph-name="users" unicode="&#xe838;" d="M388-115l-90 0c-27 1-54 6-79 15-42 14-72 51-77 96-10 79 4 159 41 229 26 52 76 84 132 86 15 1 29-2 43-9 11-5 22-12 33-18 16-9 31-16 47-23 57-21 121-15 173 16l9 6c4 3 9 6 13 9l10 5c12 8 26 13 40 15 32 2 64-7 90-26 29-20 52-49 65-83 26-62 35-130 29-198-8-64-59-113-122-116-20-2-40-3-59-3l-298 0 0-1z m-70 386l-1 0c-41-2-78-26-96-64-32-63-45-135-35-206 3-29 23-53 50-62 20-7 42-11 63-12l147 0 239 0c19 0 37 0 55 2 43 2 79 36 83 80 6 61-3 122-26 178-10 27-27 49-50 65-18 13-40 20-62 19-7-2-14-5-20-9l-13-7c-3-2-7-4-10-7l-12-6c-64-38-140-45-210-19-18 8-36 16-53 26-7 6-19 11-29 15-6 4-13 6-20 7l0 0z m187 70l0 0c-55 0-108 21-149 60-38 36-60 87-60 141 1 54 23 104 62 140 40 37 93 57 147 57l1 0c55 0 107-21 147-60 39-36 60-87 60-141-1-110-95-197-208-197l0 0z m0 356c-43 0-84-16-116-46-31-28-49-68-50-110l0 0c0-43 17-84 47-113 32-30 74-47 117-47l0 0c88-4 162 66 167 157 1 42-16 83-46 113-32 30-73 47-117 47l-2 0 0-1z m-238-249c0 0 0 0-1 0-5-1-12-1-21 2-13 3-28 11-44 24-64 53-131 27-175-68-23-48-30-103-17-146 15-52 56-83 117-83 12 0 22 10 22 22 0 12-10 22-22 22-41 0-65 18-75 51-9 32-3 76 15 116 33 70 68 84 107 51 37-31 73-39 101-35 2 1 4 1 6 2 12 3 18 16 15 28-4 11-17 18-28 14l0 0z m114 313c-1 2-4 5-8 9-6 7-13 13-22 19-40 29-92 38-151 15l-1-1-1 0c-36-19-61-44-75-73-16-34-17-69-10-102 2-7 4-13 5-16l0 1c1-3 3-8 6-14 5-10 12-20 20-30 25-26 58-42 102-42 10 0 19 8 19 19 0 11-9 20-19 20-32 0-56 11-73 30-6 6-11 13-14 21-3 4-4 7-4 8l0 1-1 0c0 0 0 1 0 2-1 3-2 6-3 9-6 25-5 51 7 76 10 22 29 41 58 56l-2-1c47 18 84 12 115-10 6-5 11-10 16-14 2-3 4-5 4-6 7-9 19-11 27-5 9 7 11 19 5 28l0 0z m353-314c0 0 0 0 1 0 5-1 12 0 21 2 13 3 28 11 44 24 65 53 131 27 175-68 23-48 30-103 17-146-15-52-56-83-117-83-12 0-22 10-22 22 0 12 10 22 22 22 41 0 65 18 75 51 9 32 4 76-15 116-33 70-67 84-107 52-37-31-72-40-100-36-3 1-5 1-7 2-11 4-18 16-14 28 3 11 16 18 27 14l0 0z m-97 302c2 2 4 5 8 9 6 7 13 14 22 20 40 29 92 38 151 14l1 0 1-1c36-19 61-43 75-73 16-34 17-69 10-102-2-7-4-13-5-16l0 1c-1-3-3-8-6-14-5-10-12-20-20-29-25-27-58-43-102-43-10 0-19 9-19 19 0 11 9 20 19 20 32 0 56 11 73 30 6 7 11 14 14 21 3 4 4 7 4 8l0 1 1 0c0 1 0 1 1 3 0 2 1 5 2 8 6 25 5 52-7 76-10 22-29 41-58 56l2-1c-47 18-84 12-115-10-6-4-11-9-16-14-2-3-4-5-4-6-6-8-19-10-27-4-9 6-11 18-5 27l0 0z" horiz-adv-x="1000" />

<glyph glyph-name="folder" unicode="&#xe839;" d="M938 633l-510 0 0 44 510 1c3 0 29 1 44-13 17-17 18-26 18-54l0-22 0-77 0 1-44-1 0 14 0 63 0 22c0 13-9 22-18 22z m-852 156c-11 1-23 0-35-4-27-9-45-31-45-66 0-15 0-15 0-45 0-37 0-37 0-85 0-110 0-110 0-238 0-101 0-101 0-193 0-74 0-74 0-128 0-22 0-22 0-38 0-11 0-11 0-13 0-4 1-9 2-14 1-10 4-19 9-28 14-27 41-43 80-43 44 0 44 0 147 0 122 0 122 0 263 0 113 0 113 0 217 0 82 0 82 0 142 0 25 0 25 0 41 0 13 0 13 0 15 0 12-1 26 2 40 10 26 14 41 42 41 83 0 30 0 126 0 268 0 81 0 81 0 153 0 52 0 52 0 90 0 29 0 29 0 35 0 12-10 22-23 22l-450 0-163 225c-4 5-11 9-18 9l-263 0 4-1c-1 1-2 1-4 1z m-3-44c1-1 2-1 3-1l263 0-18 9 171-233c4-6 11-10 18-10l460 1-22 22c0-6 0-6 0-35 0-38 0-38 0-90 0-72 0-72 0-153 0-142 0-238 0-268 0-25-7-38-18-44-5-4-12-5-16-5 0 0 0 0 0 0-1 0-1 0-2 0-2 0-2 0-15 0-16 0-16 0-41 0-60 0-60 0-142 0-104 0-104 0-217 0-141 0-141 0-263 0-103 0-103 0-147 0-22 0-34 8-41 20-2 4-4 9-4 14-1 3-1 5-1 7 0-1 0-1 0-1l0 1c0 2 0 2 0 13 0 16 0 16 0 38 0 54 0 54 0 128 0 92 0 92 0 193 0 128 0 128 0 238 0 48 0 48 0 85 0 30 0 30 0 45 0 15 4 21 14 24 5 2 11 2 17 2 1 0 1 0 1 0l0 0z" horiz-adv-x="1000" />

<glyph glyph-name="newspaper" unicode="&#xe83a;" d="M611 434l240 0c8 0 14 7 14 15 0 9-6 15-14 15l-240 0c-8 0-15-6-15-15 0-8 7-15 15-15l0 0z m0 90l240 0c8 0 14 7 14 15 0 8-6 15-14 15l-240 0c-8 0-15-7-15-15 0-8 7-15 15-15l0 0z m0 90l240 0c8 0 14 7 14 15 0 8-6 15-14 15l-240 0c-8 0-15-7-15-15 0-8 7-15 15-15l0 0z m-90-599l-239 0c-8 0-15-7-15-15 0-9 7-15 15-15l239 0c9 0 16 6 16 15 0 8-7 15-16 15l0 0z m0 90l-239 0c-8 0-15-7-15-15 0-9 7-15 15-15l239 0c9 0 16 6 16 15 0 8-7 15-16 15l0 0z m0 89l-239 0c-8 0-15-6-15-14 0-9 7-15 15-15l239 0c9 0 16 6 16 15 0 8-7 14-16 14l0 0z m330-179l-240 0c-8 0-15-7-15-15 0-9 7-15 15-15l240 0c8 0 14 6 14 15 0 8-6 15-14 15l0 0z m0 90l-240 0c-8 0-15-7-15-15 0-9 7-15 15-15l240 0c8 0 14 6 14 15 0 8-6 15-14 15l0 0z m0 89l-240 0c-8 0-15-6-15-14 0-9 7-15 15-15l240 0c8 0 14 6 14 15 0 8-6 14-14 14l0 0z m0 180l-569 0c-8 0-15-6-15-15 0-8 7-15 15-15l569 0c8 0 14 7 14 15 0 9-6 15-14 15l0 0z m0-90l-569 0c-8 0-15-6-15-15 0-8 7-15 15-15l569 0c8 0 14 7 14 15 0 9-6 15-14 15l0 0z m-647-251l0 700 0 1c0 0 0 0 0 0 0 0 0 1 0 1 0 2 0 3 0 5 1 5 3 9 5 13 8 13 22 21 49 21 32 0 144 0 311 1 11 0 22 0 34 0 65 0 132 0 198 0 23 0 45 0 64 0 10 0 10 0 17 0 6 0 6 0 7 0-1 0 0 0 1 0 1 0 3 0 5 0 6-2 12-4 17-8 15-10 25-28 26-59l0 0-2-716 0 0c0 0-1-1-1-3 0-2 0-5-1-9-1-9-3-19-7-27-10-23-26-35-53-35-35 0-163-1-355-1-12 0-24 0-36 0-74-1-152-1-228-1-26 0-51 0-73 0-12 0-12 0-20 0-6 0-6 0-7 0l-1 0c0 0 0 0 0 0-2-1-6 0-12 1-8 1-17 4-25 8-22 11-35 32-35 69 0 105 0 105 0 284 0 92 0 92 0 174 0 54 0 54 0 93 0 30 0 30 0 37 0 0 0 0 0 0 0 1 0 3 1 6 1 6 3 11 6 16 11 17 33 27 75 22l5 44c-58 7-98-10-118-43-6-9-10-20-12-30-1-6-2-11-2-15 0 0 0 0 0-1 0-6 0-6 0-36 0-39 0-39 0-93 0-82 0-82 0-174 0-179 0-179 0-284 0-54 23-90 60-109 12-6 25-10 38-12 8-2 15-2 20-2 0 0 0 0 1 0l-1 0c1 0 1 0 7 0 8 0 8 0 20 0 22 0 47 0 73 0 76 1 154 1 228 1 12 0 24 0 36 0 192 1 320 1 355 1 46 0 77 24 94 62 5 13 9 26 10 39 2 8 2 14 2 18l0 0 2 716 0 1c-1 46-18 77-46 96-10 6-21 11-32 13-6 1-12 2-15 2-2 0-2 0-7 0-7 0-7 0-17 0-19 0-41 0-64 0-66-1-133-1-198-1-12 0-23 0-35 0-166 0-278-1-310-1-43 0-72-16-87-42-5-9-9-19-10-28-1-6-2-11-2-16 0 0 0 0 0 0l0 1 0-700 45 0 0 0z m107 617l0 0 0-183c0 12-10 22-22 22l194 0c-12 0-22-10-22-22l0 183c0-12 10-22 22-22l-194 0c12 0 22 10 22 22l0 0z m-44 0c0 12 10 22 22 22l194 0c13 0 23-10 23-22l0-183c0-13-10-23-23-23l-194 0c-12 0-22 10-22 23l0 183 0 0z" horiz-adv-x="1000" />

<glyph glyph-name="rrhh" unicode="&#xe83b;" d="M136-144l-47 0c-14 0-28 2-42 7-21 7-37 27-40 51-5 41 2 84 21 121 14 27 40 44 70 45 7 0 15-1 22-5 6-3 12-6 18-9 8-5 16-9 24-12 30-12 63-9 90 8l5 3c2 2 5 3 7 5l5 3c7 4 14 7 21 8 17 0 33-4 47-14 15-11 27-26 34-44 13-33 19-69 15-104-4-34-31-60-63-62-11-1-22-1-32-1l-155 0 0 0z m-25 182l-1 0c-19-1-36-11-44-27-15-27-21-57-16-86 1-12 10-23 22-26 10-3 20-5 30-5l67 0 111 0c9 0 17 0 26 1 20 0 36 14 38 33 3 25-1 51-12 75-5 11-13 20-23 27-9 5-19 8-29 8-3-1-6-2-9-4l-6-3c-2-1-3-2-5-3l-5-2c-30-16-65-19-97-8-9 3-17 6-25 11-3 2-9 4-13 6-3 1-6 2-9 3l0 0z m86 58l0 0c-29 0-57 11-78 31-20 19-31 46-31 75 0 28 12 55 32 73 21 20 49 31 77 31l1 0c28 0 56-12 77-32 20-19 31-46 31-74-1-58-50-104-109-104l0 0z m0 176c-19 0-38-7-53-21-13-12-21-31-22-50l0 0c0-19 8-38 21-51 15-14 34-22 53-21l0 0c40-2 73 29 75 71 1 19-7 38-20 51-15 14-33 22-53 21l-1 0 0 0z m550-416l-47 0c-14 0-28 2-41 7-22 7-38 27-40 51-6 41 1 84 21 121 13 27 39 44 69 45 7 0 15-1 22-5 6-3 12-6 18-9 8-5 16-9 24-12 30-12 63-9 91 8l4 3c2 2 5 3 7 5l5 3c7 4 14 7 21 8 17 0 33-4 47-14 16-11 28-26 34-44 14-33 19-69 15-104-4-34-31-60-63-62-11-1-21-1-31-1l-156 0 0 0z m-25 182l-1 0c-19-1-36-11-44-27-15-27-21-57-16-86 1-12 10-23 22-26 10-3 20-5 30-5l68 0 110 0c9 0 18 0 26 1 20 0 36 14 38 33 3 25-1 51-12 75-5 11-13 20-23 27-9 5-19 8-29 8-3-1-6-2-9-4l-6-3c-2-1-3-2-5-3l-5-2c-30-16-65-19-97-8-9 3-17 6-25 11-3 2-8 4-13 6-3 1-6 2-9 3l0 0z m86 58l0 0c-29 0-57 11-78 31-20 19-31 46-31 75 0 28 12 55 32 73 21 20 49 31 77 31l1 0c28 0 56-12 77-32 20-19 31-46 31-74-1-58-50-104-109-104l0 0z m0 176c-19 0-38-7-52-21-14-12-22-31-23-50l0 0c0-19 8-38 22-51 14-14 33-22 52-21l0 0c40-2 73 29 75 71 1 19-7 38-20 51-15 14-33 22-53 21l-1 0 0 0z m-361 128l-47 0c-14 0-28 3-41 8-22 7-38 27-40 50-6 42 1 84 21 121 13 27 39 45 69 46 7 0 15-2 22-5 6-3 12-6 18-10 8-4 16-8 24-12 30-11 63-8 91 9l4 2c2 2 5 4 7 5l5 3c7 4 14 7 21 8 17 1 33-4 47-14 16-10 28-26 34-44 14-32 19-68 15-104-4-34-31-60-63-61-11-1-21-1-31-1l-156 0 0-1z m-25 182l-1 0c-19-1-36-11-44-27-15-26-21-56-16-86 1-12 10-22 22-26 10-3 20-5 30-5l68 0 110 0c9 0 18 0 26 1 20 1 36 15 38 33 3 26-1 52-12 75-5 11-13 21-23 27-9 6-19 8-29 8-3-1-6-2-9-4l-6-3c-2 0-3-1-5-2l-5-3c-30-16-65-19-97-8-9 3-17 7-25 11-3 2-8 5-13 6-3 2-6 3-9 3l0 0z m86 58l0 0c-29 0-57 11-78 32-20 19-31 46-31 74 0 28 12 55 32 74 21 20 49 30 77 30l1 0c28 0 56-11 77-31 20-20 31-47 31-75-1-58-50-104-109-104l0 0z m0 176c-19 1-38-7-52-20-14-13-22-31-23-50l0 0c0-20 8-38 22-52 14-13 33-21 52-21l0 0c40-2 73 30 75 71 1 20-7 38-20 51-15 14-33 22-53 22l-1 0 0-1z m9-515c-4 6-13 6-18 0l-58-90c-5-7 0-16 9-16l117 0c9 0 14 9 9 16l-59 90 0 0 0 0 0 0z" horiz-adv-x="1000" />

<glyph glyph-name="media" unicode="&#xe83c;" d="M951 470l-299-67c-6-2-11-9-11-17l0-382c-4 3-8 6-12 9-23 14-52 21-83 21-31 0-61-7-83-21-25-16-39-38-39-63 0-24 14-46 39-62 22-14 52-21 83-21 31 0 60 7 83 21 25 16 39 38 39 62l0 339 272 61 0-279c-4 3-8 6-13 9-22 14-51 21-83 21-31 0-60-7-82-21-26-16-40-38-40-62 0-25 14-47 40-63 22-14 51-21 82-21 32 0 61 7 83 21 26 16 40 38 40 63l0 435c0 5-2 10-5 13-3 3-7 5-11 4z m-405-570c-55 0-95 27-95 50 0 24 40 51 95 51 54 0 95-27 95-51 0-23-41-50-95-50l0 0z m122 423l0 49 272 61 0-48-272-62 0 0z m177-356c-55 0-96 27-96 51 0 23 41 50 96 50 54 0 95-27 95-50 0-24-41-51-95-51l0 0z m-462 65l-247 0c-2 0-4 1-6 1-4 1-7 2-10 3-9 5-15 14-15 33 0 37 0 37 0 115 0 92 0 92 0 198 0 89 0 89 0 170 0 62 0 62 0 107 0 35 0 35 0 43 0 0 0 1 0 2 0 3 0 5 1 9 0 5 1 9 3 13 4 12 13 18 32 18 38 0 38 0 119 0 95 0 95 0 205 0 94 0 94 0 178 0 63 0 63 0 109 0 35 0 35 0 43 0 6 0 11 0 15-2 7-3 10-8 10-21 0-43 0-43 0-107 0-39 0-39 0-74 0-20 0-3 0-17 0-11 0-11 0-14 0-14 11-25 25-25 14 0 25 11 25 25 0 3 0 3 0 14 0 14 0-3 0 17 0 35 0 35 0 74 0 64 0 64 0 107 0 33-15 56-40 66-12 6-25 7-35 7-8 0-8 0-43 0-46 0-46 0-109 0-84 0-84 0-178 0-110 0-110 0-205 0-81 0-81 0-119 0-40 0-67-19-79-49-6-15-7-30-7-43 0-1 0-2 1-3l-1 3c0-8 0-8 0-43 0-45 0-45 0-107 0-81 0-81 0-170 0-106 0-106 0-198 0-78 0-78 0-115 0-37 16-63 41-77 8-4 17-7 26-8 5-1 10-2 14-2 0 0 247 0 247 0 14 0 27 6 27 29 0 22-27 21-27 21z m212 162l-412-2 23-23 0 498-22-23 566-1-22 22 0-191c0-13 10-23 22-23 12 0 22 10 22 23l0 191c0 12-10 22-22 22l-566 2c-12 0-22-10-22-22l-1-497c0-13 10-23 22-23l413 2c12 0 22 10 22 22 0 13-10 23-23 23l0 0z m-48 224c-44 0-80 36-80 80 0 44 36 80 80 80 44 0 80-36 80-80 0-44-36-80-80-80l0 0z m0 120c-22 0-40-18-40-40 0-22 18-40 40-40 22 0 40 18 40 40 0 22-18 40-40 40l0 0z m-347-250l120 138c1 1 1 2 2 3 0 0 1 1 2 2 2 2 4 3 6 2 4 0 10-4 19-14 15-18 54-63 110-126 1-1 1-1 1-1 26-30 54-61 81-92 10-11 19-21 27-30 3-3 5-6 7-8 2-3 2-3 3-3 8-9 22-10 31-2 9 8 10 22 2 32 0 0 0 0-3 2-2 3-4 6-7 9-8 9-17 19-27 30-27 31-55 62-80 91-1 1-1 1-2 1-55 63-94 108-109 126-29 35-62 38-87 17-3-2-6-5-8-7-1-2-3-4-3-5l1 3-119-139c-8-9-7-23 2-31 9-8 23-7 31 2l0 0z" horiz-adv-x="1000" />

<glyph glyph-name="user" unicode="&#xe83d;" d="M300-150c-37 0-73 0-109 0a306 306 0 0 0-96 17 134 134 0 0 0-93 113 435 435 0 0 0 49 269 188 188 0 0 0 160 100 111 111 0 0 0 52-11c14-6 28-14 41-21a458 458 0 0 1 57-27 246 246 0 0 1 209 19l11 6a198 198 0 0 0 16 11l12 6a110 110 0 0 0 49 18 179 179 0 0 0 108-30 209 209 0 0 0 79-98 470 470 0 0 0 35-231 155 155 0 0 0-147-137c-24-2-49-3-72-3h-361z m-85 451h-2a134 134 0 0 1-116-74 391 391 0 0 1-42-241 85 85 0 0 1 60-73 253 253 0 0 1 77-14c59 0 119 0 178 0h290c23 0 45 0 67 3a105 105 0 0 1 100 92 426 426 0 0 1-32 210 162 162 0 0 1-60 76 125 125 0 0 1-75 22 75 75 0 0 1-25-11l-15-8a144 144 0 0 1-13-8l-13-7a303 303 0 0 0-255-22 505 505 0 0 0-64 30c-9 7-24 14-36 18a60 60 0 0 1-24 7z m226 83h0a262 262 0 0 0-180 70 220 220 0 0 0 3 329 262 262 0 0 0 177 67h2a262 262 0 0 0 178-70 221 221 0 0 0 73-166c-2-128-115-230-253-230z m0 417a209 209 0 0 1-141-53 177 177 0 0 1-59-130h0a176 176 0 0 1 57-132 208 208 0 0 1 142-55h0a194 194 0 0 1 202 183 176 176 0 0 1-56 133 208 208 0 0 1-142 55h-3z" horiz-adv-x="882" />

<glyph glyph-name="lock" unicode="&#xe83e;" d="M785 490h-25v80c0 135-110 245-245 245s-250-110-250-245v-80h-30c-45 0-80-40-80-85v-440c0-45 35-80 80-80h550c45 0 80 35 80 80v440c0 45-35 85-80 85z m-465 80c0 105 85 190 190 190s190-85 190-190v-80h-380v80z m495-605c0-15-10-25-25-25h-550c-15 0-25 10-25 25v440c0 15 10 25 25 25h550c15 0 25-10 25-25v-440z" horiz-adv-x="1000" />

<glyph glyph-name="category-o" unicode="&#xe83f;" d="M39 128l0 0 0-100c0-3 2-6 5-6l212 0c3 0 5 3 5 6l0 100c0 3-2 5-5 5l-212 0c-3 0-5-2-5-5l0 0z m-39 0c0 24 20 44 44 44l212 0c24 0 44-20 44-44l0-100c0-25-20-45-44-45l-212 0c-24 0-44 20-44 45l0 100 0 0z m389 0l0 0 0-100c0-3 2-6 5-6l212 0c3 0 5 3 5 6l0 100c0 3-2 5-5 5l-212 0c-3 0-5-2-5-5l0 0z m-39 0c0 24 20 44 44 44l212 0c24 0 44-20 44-44l0-100c0-25-20-45-44-45l-212 0c-24 0-44 20-44 45l0 100 0 0z m-67 561l0 0 0-272c0-3 3-6 6-6l426 0c3 0 6 3 6 6l0 272c0 3-3 5-6 5l-426 0c-3 0-6-2-6-5l0 0z m-39 0c0 24 20 44 45 44l426 0c25 0 45-20 45-44l0-272c0-25-20-45-45-45l-426 0c-25 0-45 20-45 45l0 272 0 0z m495-561l0 0 0-100c0-3 2-6 5-6l212 0c3 0 5 3 5 6l0 100c0 3-2 5-5 5l-212 0c-3 0-5-2-5-5l0 0z m-39 0c0 24 20 44 44 44l212 0c24 0 44-20 44-44l0-100c0-25-20-45-44-45l-212 0c-24 0-44 20-44 45l0 100 0 0z m-325 455l256 0c10 0 19 9 19 20 0 11-9 19-19 19l-256 0c-11 0-19-8-19-19 0-11 8-20 19-20l0 0z m0-94l256 0c10 0 19 9 19 19 0 11-9 20-19 20l-256 0c-11 0-19-9-19-20 0-10 8-19 19-19l0 0z m-200-331l0 73 0 0 0 1c0 0 0 0 0 0 0 2 1 7 3 11 3 6 9 10 22 10l603 0 1 0 1 0c0 0 0 0 0 0 2 0 5 0 9 0 4-1 9-2 13-3 12-4 17-12 17-28 0-35 0-35 0-51 0-9 0-9 0-10l39 0c0 1 0 1 0 10 0 16 0 16 0 51 0 33-17 55-43 64-13 5-26 6-37 6-1 0-1 0-2 0l2 0-603 0c-28 0-47-12-57-32-6-10-7-21-7-30 0 0 0 0 0-1l0 2 0-73 39 0 0 0z m353-5l0 233 0 20-39 0 0-20 0-233 0-20 39 0 0 20 0 0z" horiz-adv-x="1000" />

<glyph glyph-name="credential-o" unicode="&#xe840;" d="M233 756l0 0 0-862c0-3 3-5 6-5l550 0c3 0 5 2 5 5l0 862c0 3-2 5-5 5l-550 0c-3 0-6-2-6-5l0 0z m-39 0c0 24 20 44 45 44l550 0c24 0 44-20 44-44l0-862c0-24-20-44-44-44l-550 0c-25 0-45 20-45 44l0 862 0 0z m150-684l354 0c15 0 27 9 27 20 0 10-12 19-27 19l-354 0c-15 0-27-9-27-19 0-11 12-20 27-20l0 0z m0-100l354 0c15 0 27 9 27 20 0 10-12 19-27 19l-354 0c-15 0-27-9-27-19 0-11 12-20 27-20l0 0z m164 631c37 0 67 30 67 66 0 37-30 67-67 67-36 0-66-30-66-67 0-36 30-66 66-66l0 0z m0 28c-21 0-39 17-39 38 0 22 18 39 39 39 22 0 39-17 39-39 0-21-17-38-39-38l0 0z m-119-136l0 0 0-206c0-9 7-17 17-17l205 0c9 0 17 8 17 17l0 206c0 9-8 16-17 16l-205 0c-10 0-17-7-17-16l0 0z m-28 0c0 24 20 44 45 44l205 0c25 0 45-20 45-44l0-206c0-25-20-45-45-45l-205 0c-25 0-45 20-45 45l0 206 0 0z m119-250l-25 0c-7 1-15 2-22 4-11 4-20 15-21 27-3 22 1 45 11 64 7 14 21 24 37 24 4 0 8-1 12-2 3-2 6-4 9-5 4-3 8-5 13-7 16-6 33-4 48 5l2 1c1 1 3 2 4 3l3 1c3 2 7 4 11 4 8 1 17-2 24-7 9-5 15-14 19-23 7-17 9-36 7-55-2-18-16-32-33-33-6 0-11 0-17 0l-82 0 0-1z m-13 97l-1 0c-10-1-19-6-23-14-8-14-11-30-9-46 1-6 6-12 12-14 5-1 11-2 16-2l36 0 58 0c5 0 10 0 14 0 10 0 19 8 20 18 2 13-1 27-6 39-3 6-7 11-12 15-5 2-10 4-16 4-1-1-3-1-5-2l-3-2c-1 0-1-1-2-1l-3-2c-16-8-34-10-51-4-5 2-9 4-13 6-2 1-5 2-8 3-1 1-3 1-4 2l0 0z m45 31l0 0c-15-1-30 5-41 16-10 10-16 24-16 39 0 15 6 30 17 39 11 11 25 17 40 16l1 0c15 0 29-6 40-16 11-10 17-25 17-40 0-30-26-54-58-54l0 0z m0 93c-10 0-20-4-27-11-8-7-12-17-12-27l0 0c0-10 4-20 11-27 8-7 18-11 28-11l0 0c21-1 39 16 40 37 0 11-4 20-11 27-8 8-18 12-28 12l-1 0 0 0z m5 212l-97 164c-5 8-15 10-23 6-8-5-10-15-6-23l97-164c5-8 15-11 23-6 8 5 11 15 6 23l0 0z m63 90l39 56c6 7 4 18-4 23-7 5-18 3-23-4l-39-56c-5-7-3-18 4-23 8-5 18-3 23 4l0 0z" horiz-adv-x="1000" />

<glyph glyph-name="like" unicode="&#xe841;" d="M592 811l12 0c1 0 2 0 3-1 37-6 65-26 80-61 9-19 12-39 13-60 1-13 0-26-2-39-2-17-6-34-14-49-6-15-13-29-20-43-8-16-16-32-23-49-5-13-10-27-11-42-1-7-1-15 2-22 1-4 1-4 5-4 13 1 27 1 40 2 48 0 96 1 145-2 15-1 30-2 45-4 13-2 24-7 33-16 1-1 2-2 3-3 14-15 26-30 34-48 2-6 4-11 6-17 0-1 1-3 1-5l0-11c-2-5-5-10-8-14-1-2-2-3-3-4-4-5-8-10-11-15-3-4-5-8-7-11-2-4-3-8-1-12 1-5 3-10 5-14 4-7 8-13 12-19 5-9 10-18 13-28l0-7c-3-8-8-15-13-21-4-4-8-9-12-13-4-5-7-10-11-15-3-5-4-11-3-17 1-3 1-6 3-9 3-9 6-17 9-26 2-5 5-12 6-18 3-7 2-14-2-21-2-4-5-8-8-12-3-4-7-8-11-12-5-5-11-10-16-16-3-4-7-7-10-12-3-3-4-7-4-12-1-5-1-11-1-16 0-7 0-15 0-22 0-5-1-10-4-15-3-5-7-10-11-15-10-12-22-23-35-32-9-7-18-12-28-15-8-2-16-4-24-5-16-2-33-4-50-4-2 0-3 0-4-1l-78 0c-1 1-3 1-4 1-10 0-20 1-30 1-16 1-32 1-48 3-18 1-35 2-53 3-8 1-17 1-26 3-27 4-53 9-80 14-32 6-65 13-98 19-5 1-10 2-15 3l0 379c2 0 3 1 4 1 4 0 8 0 12 0 8-1 15 1 22 5 6 4 12 8 17 13 10 9 18 19 26 30 16 21 28 44 40 68 15 29 28 59 39 89 5 11 10 20 18 29 5 6 11 11 17 17 8 6 15 12 23 18 17 14 31 31 41 51 4 10 9 21 12 32 10 36 15 73 18 110 1 8 2 17 2 25 1 4 3 7 6 9 2 1 5 2 7 3 2 0 3 1 5 1m-536-518c0 2 1 3 1 4 3 18 18 31 36 31 11 0 22 0 34 0 25 0 51 0 77 0 16 0 28-8 35-23 2-4 2-9 2-14l0-16c0-111 0-223 0-334 0-5 0-9-1-13-5-16-19-27-35-27-37 0-75 0-112 0-18 0-33 13-36 31 0 1-1 3-1 4l0 357" horiz-adv-x="1000" />

<glyph glyph-name="like-o" unicode="&#xe842;" d="M637 789l0 22-5-21c2-1 2-1 3-1 32-6 53-21 65-49 7-14 10-31 11-52 1-11 0-23-2-35-2-17-6-31-11-43-4-9-8-16-16-31-2-6-4-8-5-11-11-23-17-36-23-50-7-19-11-33-13-49-1-11 0-22 4-32 1-3 1-4 2-5 3-6 9-11 16-12 2-1 4-1 5-1 1 0 1 0 3 0 4 0 7 0 13 1 14 0 19 0 27 0 67 1 103 1 143-1 16-1 30-2 43-4 9-2 15-5 21-10 0-1 1-1 2-2 13-14 23-27 30-43 1-2 2-4 3-9 1-2 2-4 2-5l21 7-21-6c0-3 0-3 0-4l22 5-22 0 0-11 22 0-21 7c-1-2-2-5-4-8-1-1-1-1-2-3-2-2-3-3-4-5-5-6-7-8-9-12-3-3-5-7-8-13-5-9-6-19-3-29 3-9 4-13 7-17 2-5 4-9 9-16 2-3 2-4 3-5 1-2 1-2 1-2 6-10 8-14 10-19l21 5-22 0 0-7 22 0-21 7c-1-4-3-7-9-13-1-2-2-3-3-5-5-5-7-7-9-9-4-6-8-11-12-16-7-11-9-23-6-35 0-2 0-2 0-3 1-3 2-6 3-9 1-4 2-7 5-13 2-6 3-9 5-12 2-6 4-12 5-17 1-2 1-3 0-4-2-4-4-6-6-9-2-3-5-6-10-11-1-1-3-3-6-6-5-5-7-7-10-9-3-4-7-9-11-14-6-7-9-16-9-25-1-5-1-10-1-17 0-2 0-4 0-8 0-7 1-10 0-14 0-1 0-2 0-3-5-7-7-10-9-13-9-10-19-20-32-28-9-7-14-10-20-11-7-2-14-4-22-5-15-2-30-3-48-4-2 0-4 0-6-1-1 0 3-22 3-22l0 23-78 0 0-23 4 22c-1 1-2 1-2 1-2 0-4 0-6 0l0-22 1 22c-3 0-6 0-12 1-9 0-13 0-17 0-19 1-34 2-49 3-14 1-25 1-52 3-2 1-3 1-7 1-2 0-2 0-3 0-6 1-10 1-14 2-17 3-31 5-61 11-9 2-13 2-18 3-40 8-69 13-98 19-8 1-11 2-15 2l-4-21 22 0 0 379-22 0 0-22c1 0 2 0 3 0 2 0 3 0 5 0 3 0 5 0 7 0 11 0 22 3 33 9 8 4 15 9 22 16 10 9 19 19 29 33 14 20 27 42 41 71 14 28 27 57 40 91 4 9 8 16 14 22 5 5 10 10 15 15 4 4 8 7 16 13 1 1 1 1 2 1 2 2 3 2 4 3 20 16 36 36 47 59 5 12 10 24 13 36 10 33 16 67 20 114 0 8 1 16 2 26-1-4-3-8-6-10 2 1 2 1 3 2 0 0 1 0 2 0 1 0-23 39-25 38-11-5-18-15-19-27 0-10-1-18-2-25-3-44-8-76-17-105-3-11-7-20-11-29-8-18-20-32-35-44-1-1-2-1-3-3-1 0-1 0-2-1-9-7-13-10-18-14-7-6-13-12-19-19-9-10-17-22-22-36-13-32-25-61-38-87-14-27-25-47-39-65-7-11-15-20-22-27-5-4-9-7-13-9-4-2-7-3-10-3-3 0-5 0-10 0-2 0-3 0-4 0-1 0-1 0-3 0 0 0-23 0-23 0l0-23 0-379 0-19 18-3c5-1 8-2 16-3 28-6 58-11 98-18 5-1 8-2 17-4 31-6 45-8 63-11 5-1 10-2 18-2 1 0 2 0 3 0 4-1 5-1 7-1 27-2 38-3 53-4 14-1 30-1 49-2 5 0 9-1 18-1 5 0 8 0 11 0 1 0 4-1 4-1l79 0 4 1c2 0 0 22 0 22l1-22c19 0 36 2 53 4 9 1 17 3 26 6 12 3 22 8 35 17 15 11 29 23 40 37 4 5 6 8 12 17 5 8 8 17 8 27 0 4 0 8 0 15 0 4 0 5 0 7 0 6 0 10 0 15 3 4 6 7 8 10 2 2 4 4 8 7 4 4 6 6 8 8 6 6 9 10 13 14 4 5 7 10 10 15 6 12 8 26 4 39-2 6-4 13-7 19-1 4-2 7-5 13-2 6-3 9-4 12 0 1-1 2-1 4-1 2-1 2-1 3 3 4 6 8 9 12 2 2 4 4 7 8 3 3 4 4 5 6 8 9 14 17 17 28l1 3 0 4 0 7 0 6c-3 10-7 17-15 31-1 1-1 1-1 2-1 1-1 2-2 3-5 9-7 12-9 15-1 2-2 4-3 8 0-2-1-2-1-3 2 4 4 7 5 8 2 3 4 5 7 10 2 3 3 4 4 5 1 1 1 1 2 3 6 8 10 15 12 22l1 3 0 4 0 11 0 4c-1 4-1 6-2 8 0 2-1 3-2 5-2 7-3 10-5 14-9 20-21 38-37 54-1 1-2 1-3 2-13 14-28 21-46 24-15 2-31 3-48 4-41 3-77 3-146 2-8 0-14 0-27-1-7 0-10 0-13 0 0 0 1 0 3-1 5-1 10-5 13-9-1 2-1 6-1 11 1 10 4 21 10 36 5 14 11 25 22 47 1 3 2 5 4 9 9 18 13 25 17 35 8 16 12 34 15 55 2 14 3 29 3 42-1 27-6 49-15 70-19 41-52 65-97 73l-4-22 5 22c-1 0-2 1-2 1l-24 0-15-6 22-38 11 0z m-569-489l-22 3 22-4c1 7 7 12 15 12 4 0 9 0 16 0 1 0 3 0 5 0 6 0 8 0 11 0 7 0 12 0 24 0 7 0 11 0 15 0 15 0 27 0 39 0 7 0 11-3 14-10 1-1 1-2 1-4l0-17c0-167 0-241 0-334 0-3 0-5-1-6-1-7-7-11-13-11-37 0-75 0-112 0-7 0-13 5-14 12-1 3-1 4-2 6 0 1-22-5-22-5l23 0 0 357-45 0 0-357 0-3 1-4c0-1 1-1 1-2 5-28 29-48 57-48 38 0 76 0 113 0 26 0 49 17 56 42 2 6 3 12 3 19 0 93 0 167 0 334l0 17c0 8-2 16-5 23-11 22-30 35-55 35-11 1-23 1-39 1-4 0-8 0-15 0-12 0-17 0-24 0-3 0-5 0-11 0-2 0-4 0-5 0-7 0-12 0-17 0-29-1-52-21-58-49 0 0-1-9-2-10l44-5c1 3 1 5 2 8z" horiz-adv-x="1000" />
</font>
</defs>
</svg>
