<?xml version="1.0" encoding="utf-8"?>
<!-- Generator: Adobe Illustrator 19.2.0, SVG Export Plug-In . SVG Version: 6.00 Build 0)  -->
<svg version="1.1" id="Capa_1" xmlns="http://www.w3.org/2000/svg" xmlns:xlink="http://www.w3.org/1999/xlink" x="0px" y="0px"
	 viewBox="0 0 161.2 33.2" style="enable-background:new 0 0 161.2 33.2;" xml:space="preserve">
<style type="text/css">
	.st0{fill:none;stroke:#16708C;stroke-miterlimit:10;}
	.st1{fill:#8D2E13;}
	.st2{fill-rule:evenodd;clip-rule:evenodd;fill:#8D2E13;}
	.st3{fill:#F59C14;}
</style>
<path class="st0" d="M43.2,8.3"/>
<path class="st1" d="M44.1,7.7c-2.1-1.3-4.6-2.1-7.2-2.1c-6.9,0-12.5,5.1-12.5,11.3S30,28.2,36.9,28.2c2,0,4.1-0.5,5.9-1.3
	c0.7-0.4,1.1-1.3,0.7-2c-0.4-0.7-1.3-1.1-2-0.7c-1.4,0.7-3,1-4.6,1c-4.5,0-8.4-2.8-9.3-6.5h9.9c0.8,0,1.5-0.7,1.5-1.5
	s-0.7-1.5-1.5-1.5h-10c0.7-4,4.6-7.1,9.4-7.1c2,0,3.9,0.6,5.6,1.6c0.7,0.4,1.6,0.2,2.1-0.5S44.8,8.1,44.1,7.7z"/>
<path class="st1" d="M81.9,7.7c-2.1-1.3-4.6-2.1-7.2-2.1c-6.9,0-12.5,5.1-12.5,11.3s5.6,11.3,12.5,11.3c2,0,4.1-0.5,5.9-1.3
	c0.7-0.4,1.1-1.3,0.7-2c-0.4-0.7-1.3-1.1-2-0.7c-1.4,0.7-3,1-4.6,1c-4.5,0-8.4-2.8-9.3-6.5h9.9c0.8,0,1.5-0.7,1.5-1.5
	s-0.7-1.5-1.5-1.5h-10c0.7-4,4.6-7.1,9.4-7.1c2,0,3.9,0.6,5.6,1.6c0.7,0.4,1.6,0.2,2.1-0.5S82.6,8.1,81.9,7.7z"/>
<g>
	<path class="st1" d="M55.8,28.2c-6.9,0-12.5-5.1-12.5-11.3S48.9,5.6,55.8,5.6c2.6,0,5.1,0.7,7.2,2.1c0.7,0.4,0.9,1.4,0.5,2.1
		s-1.4,0.9-2.1,0.5c-1.6-1-3.6-1.6-5.6-1.6c-5.2,0-9.5,3.7-9.5,8.3s4.3,8.3,9.5,8.3c1.6,0,3.2-0.4,4.6-1c0.7-0.4,1.6,0,2,0.7
		c0.4,0.7,0,1.6-0.7,2C59.9,27.8,57.9,28.2,55.8,28.2z"/>
</g>
<path class="st2" d="M23.4,19.9c-0.1-1.7-1-4.7-3.9-5.9c1-0.9,1.9-2.4,1.9-4.3c0-2.6-1.2-4.1-3.6-4.6c-0.1,0-0.1,0-0.2,0h-7.1
	c-0.5,0-1.1,0.2-1.3,0.6l-5.3,20c0,0-0.3,1.2,0.3,2.1c0.3,0.5,1,0.9,1.8,0.9l11.1,0c0.1,0,1-0.1,1-0.2
	C21.6,27.5,23.7,25.3,23.4,19.9z M16.9,25.9H6.6l2.7-10.7h2.6l0.3-2.3H9.8l1.5-5.9h6.3c1.1,0.2,1.9,0.8,1.9,2.6c0,1.8-1.4,3-2.2,3.6
	v2.2c3.9,0.3,3.9,4.3,3.9,4.8C21.3,25,17.5,25.8,16.9,25.9z"/>
<path class="st3" d="M14.4,16.6c-0.5,0.1-0.6-0.6-0.6-1.1c0-0.3,0-0.7,0.1-1.2c0.1-0.8,0.2-1.3,0.4-1.7c0.1-0.1,0.1-0.2,0.2-0.3
	c0,0,0,0,0,0c0,0,0.1-0.1,0.1-0.1c0.2-0.2,0.6-0.4,0.9,0.2c0,0,0,0.1,0.1,0.1c0,0.1,0.1,0.3,0.1,0.6l1.5,0c0.1-1.1-0.3-2.1-0.6-2.6
	c-0.3-0.4-0.8-0.6-1.5-0.6c-0.9,0-1.6,0.4-2.1,1.2c-0.6,0.8-0.9,1.9-1.1,3.3c-0.1,1.1-0.1,1.9,0.1,2.6c0.2,0.7,0.4,1.1,0.8,1.4
	c0.3,0.2,0.7,0.3,1.2,0.3l0,0c0,0,0.1,0,0.1,0c0,0,0,0,0,0c0,0,0,0,0,0c0.1,0,0.4,0,0.6-0.1c0,0,0,0,0,0c0.7-0.2,1.6-0.7,2-1.9
	c0,0,0,0,0,0c0-0.1,0-0.1,0.1-0.2c0.1-0.3,0.2-0.7,0.2-1.1l-1.6,0C15.1,16.5,14.4,16.6,14.4,16.6z"/>
<path class="st1" d="M94.1,19.3c2.1-0.3,3.7-1.1,4.8-2.3c1.7-1.7,1.7-3.7,1.7-3.8c0-1.9-0.7-3.5-1.9-4.8c-2.9-2.8-8.1-2.7-8.2-2.7
	C86.3,5.8,84,7,83.9,7c-0.4,0.2-0.7,0.7-0.7,1.1v18.8c0,0.7,0.6,1.3,1.3,1.3s1.3-0.6,1.3-1.3v-7.4h5l6.9,8.2c0.3,0.3,0.6,0.5,1,0.5
	c0.3,0,0.6-0.1,0.8-0.3c0.5-0.5,0.6-1.3,0.2-1.8L94.1,19.3z M85.9,9.1c0.8-0.3,2.4-0.7,4.6-0.7c0,0,4.3-0.1,6.4,2
	c0.8,0.8,1.2,1.7,1.2,2.9c0,0,0,1-0.9,2c-1.1,1.1-3,1.7-5.6,1.7h-5.6V9.1z"/>
<path class="st1" d="M117.4,8.6c-2.8-3.1-6.3-3-6.4-3c-2.7,0.2-4.9,1.4-6.5,3.4c-4.6,6-2.3,17.9-2.2,18.4c0.1,0.5,0.6,0.9,1.1,0.9
	c0.1,0,0.1,0,0.2,0c0.6-0.1,1-0.7,0.9-1.4c0,0-0.3-1.8-0.5-4.1h14.1c-0.1,1.3-0.3,2.6-0.6,4.1c-0.1,0.6,0.3,1.2,0.9,1.3
	c0.6,0.1,1.2-0.3,1.3-0.9C121.4,18.6,120.6,12.2,117.4,8.6z M103.9,20.6c0-3.5,0.4-7.5,2.4-10.1c1.2-1.5,2.8-2.4,4.8-2.5
	c0,0,2.5-0.1,4.6,2.2c1.4,1.6,2.8,4.7,2.6,10.5H103.9z"/>
<path class="st1" d="M135.1,5.7h-14.5c-0.7,0-1.2,0.5-1.2,1.2s0.5,1.2,1.2,1.2h6V27c0,0.7,0.5,1.2,1.2,1.2s1.2-0.5,1.2-1.2V8.1h6
	c0.7,0,1.2-0.5,1.2-1.2S135.8,5.7,135.1,5.7z"/>
<path class="st1" d="M152.7,5.7h-14.5c-0.7,0-1.2,0.5-1.2,1.2s0.5,1.2,1.2,1.2h6V27c0,0.7,0.5,1.2,1.2,1.2s1.2-0.5,1.2-1.2V8.1h6
	c0.7,0,1.2-0.5,1.2-1.2S153.3,5.7,152.7,5.7z"/>
<g>
	<path class="st1" d="M156.2,28.2c-0.7,0-1.2-0.6-1.2-1.2V7c0-0.7,0.5-1.2,1.2-1.2s1.2,0.6,1.2,1.2v20
		C157.5,27.7,156.9,28.2,156.2,28.2z"/>
</g>
</svg>
