<?xml version="1.0" encoding="UTF-8" standalone="no"?>
<svg width="16px" height="20px" viewBox="0 0 16 20" version="1.1" xmlns="http://www.w3.org/2000/svg" xmlns:xlink="http://www.w3.org/1999/xlink">
    <!-- Generator: Sketch 3.6 (26304) - http://www.bohemiancoding.com/sketch -->
    <title>Page 1 Copy 2</title>
    <desc>Created with Sketch.</desc>
    <defs>
        <path id="path-1" d="M15.9350803,0.0176590909 L0.000109891652,0.0176590909 L0.000109891652,19.179612 L15.9350803,19.179612 L15.9350803,0.0176590909 L15.9350803,0.0176590909 Z"></path>
    </defs>
    <g id="Page-1" stroke="none" stroke-width="1" fill="none" fill-rule="evenodd">
        <g id="Page-1-Copy-2">
            <g id="Group-22" transform="translate(0.000000, 0.459852)">
                <mask id="mask-2" fill="white">
                    <use xlink:href="#path-1"></use>
                </mask>
                <g id="Clip-21"></g>
                <path d="M6.19800814,0.0262977273 L10.9435198,0.0262977273 C12.5758919,0.116979545 13.9427174,0.935502273 14.0843105,3.245025 C14.1911012,4.98945682 13.7420081,6.43845682 12.4300081,7.298025 C13.7696593,7.57961591 14.2421128,7.844025 14.8971593,8.74511591 C16.455636,10.889025 16.0079733,15.1682523 15.184636,16.4105932 C14.5043221,17.4367295 14.165357,17.6782295 13.3486942,18.2151614 C12.0958105,19.0394114 11.1242058,19.1749568 9.74879884,19.1749568 L1.92161279,19.1749568 C1.26513605,19.2179114 0.789822093,18.9649568 0.388880233,18.359775 C0.00319418605,17.777025 -0.089294186,17.2157523 0.0837639535,16.5084341 L4.22619419,1.34834318 C4.30914767,0.911638636 4.4421593,0.654865909 4.73678721,0.366115909 C5.18063605,-0.0691568182 5.4962407,0.0262977273 6.19800814,0.0262977273 M6.71098488,6.53009318 L4.7787407,6.53009318 L5.97346163,1.79697955 C7.12622907,1.79697955 7.20107791,1.78600227 8.57457791,1.78600227 C9.91470581,1.78600227 11.802136,1.37507045 12.2397872,3.02691136 C12.3422872,3.41350227 12.3546826,3.65500227 12.3303686,4.05782045 C12.25695,5.26675227 11.4836709,5.99745682 10.7971593,6.60454773 L10.7971593,8.479275 C11.768764,8.58857045 12.3742291,8.93316136 13.0435779,9.75645682 C13.7687058,10.6480023 14.021857,11.4650932 14.0142291,12.6907295 C14.0066012,13.9903432 13.688136,14.8494341 12.8843453,15.7548205 C11.9632756,16.7933659 11.0588919,16.9312977 9.7516593,16.9312977 L2.10325233,16.9312977 L4.31534535,8.24111591 L6.45735698,8.24111591 C6.49692674,7.86788864 6.58083372,7.287525 6.58083372,7.287525 C6.58083372,7.287525 6.65472907,6.82409318 6.71098488,6.53009318" id="Fill-20" fill="#FFFFFF" mask="url(#mask-2)"></path>
            </g>
        </g>
    </g>
</svg>