<?xml version="1.0" encoding="utf-8"?>
<!-- Generator: Adobe Illustrator 19.2.0, SVG Export Plug-In . SVG Version: 6.00 Build 0)  -->
<svg version="1.1" id="Capa_1" xmlns="http://www.w3.org/2000/svg" xmlns:xlink="http://www.w3.org/1999/xlink" x="0px" y="0px"
	 viewBox="0 0 255 255" style="enable-background:new 0 0 255 255;" xml:space="preserve">
<style type="text/css">
	.st0{fill:#E8E9E9;}
	.st1{fill:#FFFFFF;}
	.st2{fill:#005789;}
	.st3{fill:#E62C2A;}
</style>
<rect x="0" class="st0" width="255" height="255"/>
<path class="st1" d="M73.5,54.5c0,0,68.4-10.4,104-5c0,0,42,9.1,36.5,50.5c0,0,2,100-73.5,100c0,0-101,2-93.5-42.5
	C47,157.5,31,89.5,73.5,54.5z"/>
<path class="st2" d="M119.7,211.8c-14.6,0.6-29.1-0.1-43.4-3.1c-27.6-5.8-43.1-22.4-44.8-50.1c-1.7-28.3,3.3-55.8,13.8-82.2
	c8.9-22.3,25.9-34.7,48.9-38.6c27.3-4.6,54.7-5.3,82.1-0.7c32.3,5.4,48.7,22.9,49.8,55.6c0.9,27.2-4.2,53.8-14.7,79
	c-8.9,21.4-26,32.9-48.4,37.1C148.7,211.5,134.2,212.2,119.7,211.8z M119.9,187c10.4,0,20.3,0.9,30-0.2c13.7-1.6,29.7-5.9,35.2-17.4
	c11-23.2,16.5-48.8,15.3-75.1c-0.9-20.8-7.6-28.3-28.4-32.1c-24.3-4.4-48.5-1.9-72.5,0.8c-13.4,1.5-24.6,8.5-30,21.7
	c-9.3,22.8-13.9,46.6-12.8,71.2c0.5,11.3,4.8,20.3,17.3,25.8C91,189.2,105.5,187,119.9,187z"/>
<path class="st3" d="M121.9,162.3c-39.4-0.3-44.3-1.1-35.7-46C91.5,88.4,97,85,124.8,84.1c6.7-0.2,13.5-0.3,20.2-0.1
	c27.9,0.6,31.7,4.9,29,32.2C170,156.6,163.8,162.1,121.9,162.3z"/>
</svg>
