<?xml version="1.0" encoding="utf-8"?>
<!-- Generator: Adobe Illustrator 19.2.0, SVG Export Plug-In . SVG Version: 6.00 Build 0)  -->
<svg version="1.1" id="Capa_1" xmlns="http://www.w3.org/2000/svg" xmlns:xlink="http://www.w3.org/1999/xlink" x="0px" y="0px"
	 viewBox="0 0 255 255" style="enable-background:new 0 0 255 255;" xml:space="preserve">
<style type="text/css">
	.st0{fill:#E8E9E9;}
	.st1{fill:#F9F2F3;}
	.st2{fill:#B71E2C;}
	.st3{fill:#535151;}
	.st4{fill:#E9E9E9;}
	.st5{fill:#BD4141;}
	.st6{fill:#AC1E1E;}
</style>
<rect x="0" class="st0" width="255" height="255"/>
<g>
	<path class="st1" d="M243,170.3c0.2-0.2,0.4-0.4,0.7-0.7C243.8,170.2,243.5,170.4,243,170.3z"/>
	<path class="st1" d="M11.4,169.6c0.2,0.2,0.4,0.4,0.7,0.7C11.5,170.4,11.2,170.2,11.4,169.6z"/>
	<path class="st1" d="M243.6,82.2c-0.2-0.2-0.4-0.4-0.7-0.7C243.5,81.4,243.8,81.6,243.6,82.2z"/>
	<path class="st1" d="M205,112.1c2.3-2.5,5-3.2,8.1-3.2c7.7,0.1,15.4,0,23.2,0c2.1,0,3,0.1,1.6,2.6c-3,5.4-5.7,11-8.4,16.6
		c-0.8,1.7-1.8,2.5-3.7,2.4c-2.5-0.2-5,0-7.5,0c-1.8,0-2.4-0.5-1.4-2.4c2.7-5.1,2.6-5-3-4.9c-2.1,0.1-3,1.1-3.5,2.7
		c-1.2,3.8-3.7,4.8-7.5,4.6c-4.4-0.3-8.9-0.1-13.4,0c-1.9,0-3-0.5-3.6-2.4c-0.8-2.6-2.1-5-3.3-7.8c-2,2.3-2.9,4.9-4.1,7.4
		c-1,2-2.2,3.1-4.5,2.8c-3-0.4-6.3,0.8-9.1-1.4c-0.1-0.1-0.4-0.1-0.6,0c-6.1,3-12.6,0.7-18.9,1.4c-0.8,0.1-1.7-0.3-2.6,0.6
		c0.9,1.1,2.2,0.7,3.2,0.7c12.9,0,25.8,0,38.7,0c5.9,0,11.9-0.4,17.8,0.1c6.1,0.6,12.1-0.4,18.2-0.1c4.9,0.2,5.5,1.8,3.6,6.2
		c-2.3,5.2-5.8,6.8-11.1,6.2c-3.1-0.3-6.3-0.1-9.5,0c-2.7,0-5.5,0.3-7.3-2.4c-0.7-1-1.8-0.9-2.3,0.2c-1.1,2.2-3,2.2-5,2.2
		c-5.1,0-10.2,0-15.3,0c-5.5,0-6.3-1.2-3.8-6.2c-2.6-1.2-3.7,0.9-4.3,2.5c-1.4,3.9-4.4,3.9-7.7,3.7c-1.7-0.1-1.9-0.7-0.9-2
		c0.5-0.7,0.9-1.5,1.3-2.3c0.3-0.6,1.4-1.2,0.6-1.9c-0.9-0.8-2.2-0.3-2.5,0.6c-2.9,7-8.9,5.6-14.4,5.6c-3.7,0-7.4,0.1-11,0
		c-1.4,0-3.3,1-3.9-1.5c-0.1-0.6-1.2-0.1-1.8,0c-1,0.3-2.2,0.6-2.8-0.2c-2.3-3.3-3.2-1.3-4.9,0.7c-1.7,2-4.5,1-6.8,0.8
		c-0.9-0.1-0.4-1-0.1-1.5c2.3-3.7,4.5-7.4,6.9-11c1.6-2.5,5-2.3,6.6,0.2c0.5,0.8,1.1,1.6,1.5,2.5c0.6,1.2,1.3,1.2,2.3,0.6
		c2.3-1.4,4.7-2.7,7.7-4.4c-3-0.3-5.3,0.1-7.5-0.1c-2.3-0.2-3.2-1.3-3.9-3.1c-0.7-2-1.2-5.2-2.9-5.4c-2.1-0.2-2.8,3.1-3.5,4.9
		c-1.4,3.4-3.7,4.4-6.9,3.8c-4.4-0.8-8.8,0.3-13.2,0.1c-1.9-0.1-3.1-0.4-3.9-2.5c-0.9-2.4-1.4-6.4-3.4-6.5c-2.1-0.1-2.7,3.9-3.8,6.1
		c-1.1,2.2-2.4,3-4.8,2.9c-5.8-0.2-11.5-0.1-17.3,0c-2.4,0-3.2-0.4-1.9-2.9c2.3-4.4,2.1-4.2-2.7-4.4c-2.7-0.1-3.9,1.4-4.5,3.4
		c-0.8,2.6-2.4,3.8-4.9,3.7c-3.2-0.1-6.4,0.9-9.6-0.7c-1.2-0.6-2.5,0.9-4,0.9c-4.9-0.2-9.8,0-14.7-0.1c-5.7-0.1-8.2-3.7-6.5-9.1
		c2.1-6.6,8.9-12.7,17-12.5c24.6,0.4,49.1,0.2,73.7,0.2c2.1,0,4.2-0.3,5.7,1.6c0.4,0.6,1,0.7,1.3,0.1c1.1-2.3,3.1-1.6,4.8-1.7
		c6.6,0,13.3,0,19.9,0c2.2,0,4.2,0.2,5.2,2.6c0.5,1.3,1.2,0.9,2,0.3c3.3-2.6,7.1-2.8,11.1-2.8c14.2,0.1,28.5,0.1,42.7,0
		C201.8,108.9,204,109.2,205,112.1z M225.1,115.9C225.1,115.9,225.1,115.9,225.1,115.9c-0.2,0.5-0.5,0.9-0.8,1.4
		c-0.1,0.2-0.2,0.4-0.3,0.6c-1.4,0-2.8,0.2-4.2,0.1c-3.2-0.3-5.9,0.4-8.1,3.6c3.6,0,6.9,0,10.2,0c-0.4,1-0.8,2-1.2,3
		c-0.8,1.2-1.8,2.3-1.8,4c2.3,0,4.5,0,6.6,0c0.9,0,1.8,0.1,2.2-0.8c1.3-3,3.5-5.6,4-9c0.9-1.5,1.8-3,2.8-4.5c0.9-1,1.4-2.3,2-3.8
		c-8.8,0-17.2,0-25.6,0c-1.2,0-2.6,0.3-3.2,1.7c-0.5,1.3-2.1,1.6-2.7,2.9c-1.8,3.9-3.8,7.7-5.7,11.5c-0.3,0.7-1.9,1.9,0.2,1.9
		c2.5,0,5.1,0.7,7.6-0.4c0.7-0.6,1-1.4,1.2-2.2c1.4-2.7,2.8-5.5,4.2-8.2l-0.2,0c0,0,0.2,0,0.2,0c0.4-0.7,0.8-1.4,1.2-2.1l-0.1,0.1
		c3.7-2,7.8-0.5,11.6-0.9c0,0,0.1,0.1,0.1,0.1C225.3,115.2,225.2,115.5,225.1,115.9z M199.3,122.6c-2.9,0.4-2.9,0.4-1.4,2.8
		C198.8,124.7,199.1,123.7,199.3,122.6c0.2-0.2,0.8-0.3,0.2-0.8C199.4,122.1,199.3,122.4,199.3,122.6z M107.3,122
		c-1.3,0.7-3.8,0.9-1.6,3.5C106.6,124.4,107.4,123.4,107.3,122c0-0.1,0.1-0.2,0.1-0.2C107.4,121.8,107.3,121.9,107.3,122z
		 M191.9,117.3l0.1-0.1c-2.6,1.6-5.6,0.2-8.5,1.1c0.5,1.1,1,2,1.5,3c0.4,1.5,0.9,2.9,1.8,4.1c0.5,1.3,0.2,3.2,2.4,3.2
		c2,0,4.1,0,6.1,0c2.4,0,1-1.1,0.6-2c-0.4-0.9-0.7-1.8-1.1-2.6c-0.9-1.7-1-2.6,1.4-2.6c1.9,0,3.2-1.4,4.4-2.9c0.5-0.4,1-0.8,1.4-1.3
		c1.1-1.7,2.1-3.5,1.1-5.5c-1-2-3-1.3-4.7-1.3c-5.8-0.1-11.5,0.3-17.3-0.1c-3.7-0.2-5.7,1.1-6.5,4.5c-1.1,2.2-2.2,4.4-3.3,6.5
		c-1.3,2.2-2.7,4.5-3.5,7.1c9.9,0.1,8.3,1.3,10.3-4.4c2.1-2.1,2.8-5,4.3-7.5c1.2-2,8.7-2.9,10.2-1.1c0.2,0.2,0,0.6,0,1
		C192.4,116.8,192.1,117,191.9,117.3z M150.9,110.8c-0.2,0-0.4,0-0.5,0.1c-5.9,1.5-8.4,6.4-10.3,11.2c-1.6,3.9,0.2,6.7,4.6,6.5
		c5-0.3,10-0.2,15,0c3.3,0.2,4.8-1.9,7.2-4c-4.9,0-9.2,0-13.4,0c-4.1,0-5-1.7-3-5.4c1.5-2.9,3.8-4.6,7.2-4.5c2.9,0,5.9-0.2,8.8,0
		c2.4,0.2,4.2-0.6,5.6-2.5c0.4-0.3,0.8-0.5,1.1-0.8c0.8-0.5,0.9-1-0.2-1.1c-1.3-0.1-2.6,0-3.9,0C163,110.6,156.9,109.8,150.9,110.8z
		 M162,121.2c0.7-0.1,1.1-0.6,1.5-1.2c0.7-0.5,1.4-1.1,2.5-1.9c-4,0-7.5,0-11,0c-1.1,0.3-1.9,1.1-2.6,1.9c-0.4,0.3-1.1,0.5-1.2,0.9
		c-0.1,0.5,0.5,0.5,0.9,0.5C155.4,121.4,158.7,121.3,162,121.2z M131.2,116.6L131.2,116.6c-2.5,2.6-5.9,0.7-8.9,1.7
		c1.3,3,2.5,5.8,3.6,8.7c0.4,1,0.8,1.7,2.1,1.6c2.4-0.1,4.8,0,7.8,0c-0.9-1.8-1.6-3-2.2-4.1l0,0c-0.2-0.6-0.3-1.3-0.9-1.7
		c0-0.5,0-1.2,0.8-1.1c3.9,0.2,5.7-2.8,7.7-5.4c2-4.3,1.1-5.7-3.6-5.7c-5,0-10,0.5-14.9-0.1c-6.1-0.9-9.2,1.7-10.7,7.2
		c-1.5,3.1-3.1,6.1-4.6,9.2c-0.2,0.6-1.7,1.7-0.1,1.8c2.6,0.1,5.3,0.8,7.9-0.5c1.2-2.3,2.6-4.5,3.7-6.8c3.9-8.2,1.7-6.3,10.7-6.5
		c1,0,2,0,2,1.5C131.3,116.3,131.2,116.4,131.2,116.6z M79.9,114.9c0.4-0.6,0.8-1.3,1.2-1.9c1.7-2.4,0.5-2.7-1.7-2.6
		c-5.7,0.1-11.5,0-17.3,0.1c-2.3,0-4.8-0.6-7,0.5c-1.6,0.6-2.9,1.6-3.6,3.1c-1.9,3.5-3.6,7.1-5.4,10.6c-0.8,1.2-1.6,2.4-1.8,3.8
		c2.9,0,5.5,0,8.2,0c2.7-3.2,3.7-7.2,5.7-10.7c0.7-1.3,1.4-2.8,3.1-2.9c3.2-0.1,6.3,0,10,0c-0.9,1.5-1.4,2.4-1.9,3.3
		c-1.3,0-2.6-0.1-3.9,0c-1.9,0.2-4.2-0.9-5.6,1.3c-0.3,0.2-0.6,0.4-0.9,0.6c-0.4,0.3-1.2,0.7-1.1,1c0,0.7,0.8,0.5,1.3,0.5
		c2.8,0,5.5,0,8.3,0c-0.2,2.2-2,3.7-2.5,5.8c-0.5,0.6-1.2,1.3,0.4,1.3c2.5,0,4.9-0.1,7.4-0.1c0.9-0.3,1-1.1,1.3-1.9
		C75.9,122.6,77.9,118.8,79.9,114.9z M202.5,139.7c0.7-0.2,1.3-0.4,2-0.6c0.3,0.5,0.5,0.9,0.8,1.4c-0.3,1.3,0.1,2.2,1.6,2.2
		c3.8,0,7.6,0.1,11.3-0.1c2.3-0.1,2.8-2.3,3.8-3.8c1-1.4-1.3-1.2-1.3-2.3c0.8-0.1,1.5,0,2.3-0.2c0.8-0.1,0.9-0.9,1-1.5
		c0.1-0.9-0.6-1.2-1.2-1.1c-4.7,0.7-10-2.2-14,2.5c-0.3,0.3-0.6,0.6-1.1,0.2c0.4-2.3-0.6-3-2.8-2.8c-2,0.2-4.1,0-6.2,0
		c-5,0-7.5,1.8-9.1,6.5c-0.2,0.7-0.5,1.6,0.3,2c0.6,0.3,1.9,0.2,2.1-0.1c2-4.2,4.2-2,6.6-0.4c1.3,0.9,3,1.8,3.9-0.7
		C202.5,140.5,202.5,140.1,202.5,139.7z M20.5,128.4c5.5,0,10.9,0.1,16.4,0.1c0.7,0,1.5,0.3,1.9-0.7c1.1-0.2,1.9-0.7,2-1.9
		c0.2-0.2,0.5-0.4,0.7-0.6c0.1-0.2,0.2-0.3,0.2-0.5c0,0-0.2-0.2-0.2-0.2c-4.2,0-8.5-0.1-12.7,0c-2.1,0-3.6-1.1-3.5-2.9
		c0.1-3.2,4.8-7,8.2-7.1c2.8-0.1,5.7-0.3,8.5,0.1c3.8,0.5,5.9-1.7,8.7-4.3c-6.9,0-13.1,0.3-19.3-0.1c-5.8-0.4-13,6.5-14.1,11.9
		C16.4,126.1,17.3,127.8,20.5,128.4z M83.2,113.5c-1.3,2.6-2.6,5.2-4,7.8c-1.2,2.3-2.4,4.5-3.9,7.2c2.5,0,4.5,0,6.5,0
		c0.4,0,0.9,0,1.3,0c0.8,0.1,1.2-0.3,1.5-1c0.9-2.1,2.4-3.9,2.8-6.1c0.7-0.2,1-0.9,1.1-1.5c1.2-4.7,4.4-6.1,8.9-5.3
		c1.1,0.2,3-0.8,3,1.3c0,1.6-1.7,2-3.2,2c-1.9,0-3.8,0-6.1,0c1.5,3.3,2.8,6,4.1,8.8c0.1,0.9,0.3,1.7,1.4,1.7c2.6,0,5.2,0,8.1,0
		c-0.7-1.4-1.2-2.4-1.7-3.3c-0.1-1.3-1.4-2.2-1.1-3.7c5-0.1,7.3-3.4,8.9-7.5c0.7-2.8-0.6-3.8-3.2-3.8c-6.7,0-13.4,0.1-20.1-0.1
		C85.3,110.2,83.8,111,83.2,113.5z M129.8,142.6c2.2,0.5,3.9,0,5.3-1.5c1.1,2.5,3.3,1.4,5.1,1.6c1.9,0.2,3.9,0,5.9,0
		c5.2,0,7.9-1.9,9.8-6.7c0.6-1.5,0.4-2.4-1.3-2.3c-5.2,0.1-10.5-0.6-15.8,0.6c-0.1-0.8,0.8-1.8-1.2-2c-3.2-0.3-5.1,2-7.5,3.2
		c-4.2,2.1-4.1,2.3-6.5-1.6c-1.1-1.9-4.3-2.3-5.5-0.5c-2,3-3.7,6.1-5.7,9.2c5.4,1.1,5.1-4.4,8-6.2c0.3,0.6,0.7,1.1,0.9,1.6
		c1.1,2.5,2.3,3.4,5.1,1.8c1.6-1,3.5-1.8,5.6-2.6C132.1,139.5,130.2,140.6,129.8,142.6z M159,142.5c3.4,1.4,4.4-1.4,5.7-3.5
		c1-1.6,1.6-3.6,4.1-3.3c1.4,0.2,3.4-0.7,4.2,0.4c0.9,1.3-1.2,2.2-1.9,3.4c-1.2,2.2-1,3.2,1.7,3.2c2.5,0,5-0.3,7.5,0.1
		c5,0.7,7.9-1.8,9.9-6c1.3-2.6,1.1-3.1-1.9-3.2c-3,0-6.1,0-9.1,0c-2.7,0-5.3,0.6-8.1,0.2c-3.7-0.6-7.6-0.2-11.4-0.1
		c-1.6,0-1.6,0.1-2.3,2c5.5,0.3,5.5,0.3,2.6,4.9C159.5,141.1,158.8,141.6,159,142.5z M48.4,114.5c-2.2,1.8-4.3,1.6-6.3,1.6
		c-2.7,0-5.4,0.1-8.1,0c-3.3-0.1-4.9,2.2-6.1,4.6c-0.8,1.5,0,2.7,2,2.6c3.1-0.1,6.3,0,9.4,0C45.4,123.3,47.1,121.8,48.4,114.5z
		 M162.9,122.9c4.7,0.6,8.5-2.3,8.8-6.2c0-0.3-0.1-0.7-0.3-0.8c-0.4-0.3-0.8-0.1-1.1,0.3C168.3,118.7,165.5,120.4,162.9,122.9z
		 M140.9,129.8c-2-1.6-3.5-3.3-3-6c0.1-0.6,0.1-1.4-0.9-1.3c-0.7,0.1-1.5,0.2-1.6,1.3C135.3,125.7,138.5,129.7,140.9,129.8z
		 M172.9,113.9c0,0.1,0,0.3,0,0.4c0.1-0.1,0.1-0.1,0.2-0.2C173,114.1,172.9,114,172.9,113.9z"/>
	<path class="st2" d="M111.1,114.1c-1.6,4.1-3.9,7.4-8.9,7.5c-0.3,1.5,1,2.4,1.1,3.7c0,2-0.8,2.7-3,2.7c-1.8,0-3.2-1-4.8-1.1
		c-1.3-2.8-2.6-5.6-4.1-8.8c2.3,0,4.2,0,6.1,0c1.5,0,3.1-0.4,3.2-2c0.1-2.1-1.9-1.1-3-1.3c-4.5-0.8-7.7,0.5-8.9,5.3
		c-0.1,0.6-0.4,1.3-1.1,1.5c-1.3,1-2,2.5-2.7,3.9c-1.1,2.2-4.5,3.4-6.7,2.4c-1.3-0.6-0.4-1.4-0.2-2.1c0.4-1.4,2.1-2.5,1.2-4.3
		c1.3-2.6,2.6-5.2,4-7.8c1.8-1.8,3.9-2.2,6.4-2.1c5.7,0.1,11.4,0.1,17.1,0C109,111.4,110.5,111.9,111.1,114.1z M91.9,113.6
		c0,0.1,0,0.2,0,0.3c2.7,0,5.3,0,8,0c0-0.1,0-0.2,0-0.3C97.2,113.6,94.5,113.6,91.9,113.6z"/>
	<path class="st2" d="M58.9,120c0.3-0.2,0.6-0.4,0.9-0.6c2.6-0.7,5.3-0.6,7.9-0.7c0.5,0,1.5,0.6,1.6-0.7c0.5-0.9,1.1-1.8,1.9-3.3
		c-3.7,0-6.8-0.1-10,0c-1.7,0.1-2.4,1.6-3.1,2.9c-2,3.5-3,7.6-5.7,10.7c-0.8-0.8-1.8-0.6-2.7-0.5c-2.5,0.3-4.4,0.1-3.7-3.2
		c1.8-3.5,3.5-7.1,5.4-10.6c0.8-1.4,2-2.5,3.6-3.1c1,0.8,2.3,0.5,3.5,0.5c6.5,0,13,0.1,19.5,0c2.3,0,2.6,0.9,1.8,2.7
		c-2.1,2.4-3.3,5.2-4.6,8c-0.6,1.3-2.2,2.5-1.3,4.3c-0.3,0.7-0.3,1.6-1.3,1.9c-2.4-1.4-5.3,0.3-7.7-1.2c0.5-2.1,2.3-3.6,2.5-5.8
		c-0.8-1.2-2.1-0.7-3.2-0.8C62.4,120.5,60.6,121,58.9,120z M69.9,114c0-0.1-0.1-0.2-0.1-0.3c-2.9,0-5.7,0-8.6,0c0,0.1,0,0.2,0,0.3
		C64.1,114,67,114,69.9,114z"/>
	<path class="st2" d="M171.3,121.4c1.1-2.2,2.2-4.4,3.3-6.5c2.1-3.5,5.3-3.5,8.9-3.4c4.2,0.2,8.5,0,12.7,0c7.2,0,7.2,0,4.5,6.4
		c-0.1,0.2-0.1,0.4-0.1,0.6c-1.2,1.4-2.5,2.8-4.4,2.9c-2.4,0-2.3,1-1.4,2.6c0.5,0.8,0.8,1.7,1.1,2.6c-0.7,0.9-1.6,1.1-2.8,1.3
		c-2.8,0.5-4.5-1-6.3-2.5c-0.9-1.2-1.5-2.6-1.8-4.1c0-2.2,1.2-2.8,3.3-2.6c1.3,0.1,3.1,0.6,3.7-1.5c0,0-0.1,0.1-0.1,0.1
		c0.2-0.3,0.5-0.6,0.7-0.9c0-0.3,0.2-0.8,0-1c-1.5-1.8-9-0.9-10.2,1.1c-1.5,2.5-2.2,5.4-4.3,7.5c-1.6,2.3-3.1,4.6-6.6,3.8
		c-1.8-0.4-2.2-0.8-1.4-2.5C170.6,124.1,172.3,123.1,171.3,121.4z"/>
	<path class="st2" d="M141.2,116.1c-2,2.6-3.7,5.6-7.7,5.4c-0.8,0-0.7,0.6-0.8,1.1c-0.5,1,0,1.5,0.9,1.7c0,0,0,0,0,0
		c-0.9,1,1.2,2.6-0.7,3.4c-2.5,1-5.3-0.3-6.5-2.8c-0.4-0.9-0.9-1.7-1.3-2.6c-1.7-3.6-1.7-3.5,2.4-3.6c1.5,0,3.8,0.8,3.8-2.1
		c0,0,0,0,0,0c0.1-0.1,0.3-0.2,0.4-0.2c-0.1-0.1-0.1-0.2-0.2-0.2c0-1.4-0.9-1.5-2-1.5c-9,0.3-6.8-1.6-10.7,6.5
		c-1.1,2.3-2.5,4.5-3.7,6.8c-1.1-0.8-2.3,0-3.4-0.1c-1.6-0.2-3.3,0.4-4.4-1.3c1.5-3.1,3.1-6.1,4.6-9.2c1.1-0.3,1.4-1.3,1.8-2.2
		c1.1-2.9,3-4.1,6.3-3.9c5.3,0.3,10.6,0.1,16,0.1C141,111.5,141,111.5,141.2,116.1z"/>
	<path class="st2" d="M234.6,114.2c-0.9,1.5-1.8,3-2.8,4.5c-2.2,2-2.9,5-4.3,7.5c-1.5,2.7-4,1.7-6.1,1.5c-2.2-0.2-0.1-2.1-0.7-3.1
		c0.4-1,0.8-2,1.2-3c-2-2.1-4.9,0-7.3-1.4c1.6-2.2,3.8-1.5,5.7-1.2c1.5,0.3,2.7,0.4,3.6-1.1c0.1-0.2,0.2-0.4,0.3-0.6
		c0.8-0.2,1-0.7,0.8-1.4c0,0,0,0,0,0c0.7-0.1,0.8-0.5,0.9-1.1c0-0.1,0.1-0.2,0.1-0.2c0,0.1-0.1,0.2-0.1,0.2c-0.2,0-0.4,0-0.6,0
		c0,0-0.1-0.1-0.1-0.1c-2.1-1.9-9.9-1.7-11.5,0.3c-0.1,0.1-0.1,0.4-0.1,0.6c0,0,0.1-0.1,0.1-0.1c-1.1,0.3-1.6,0.9-1.2,2.1l-0.2,0
		c0,0,0.2,0,0.2,0c-2.7,2.1-4,4.9-4.2,8.2c-0.2,0.8-0.5,1.6-1.2,2.2c-1.1-0.9-2.3,0-3.4-0.2c-1.6-0.2-3.3,0.4-4.4-1.3
		c1.9-3.8,3.9-7.6,5.7-11.5c0.6-1.4,2.2-1.6,2.7-2.9c1.5-0.2,3-0.7,4.4-0.7c6.7-0.1,13.4,0.1,20.1-0.1
		C234.7,111.3,234.9,112.4,234.6,114.2z"/>
	<path class="st2" d="M172,112.2c-1.4,1.9-3.2,2.6-5.6,2.5c-2.9-0.2-5.9,0-8.8,0c-3.4,0-5.6,1.6-7.2,4.5c-2,3.7-1.1,5.4,3,5.4
		c4.2,0,8.5,0,13.4,0c-2.4,2.1-3.9,4.2-7.2,4c-5-0.2-10-0.3-15,0c-4.4,0.2-6.2-2.6-4.6-6.5c1.9-4.8,4.5-9.7,10.3-11.2
		c5.2,1.3,10.4,0.2,15.6,0.6C168,111.7,170.1,111.2,172,112.2z"/>
	<path class="st2" d="M40.8,125.9c-0.1,1.2-0.8,1.8-2,1.9c-3.4,0-6.7-0.1-10.1,0c-2.8,0.1-5.6-0.7-8.3,0.6c-3.2-0.6-4.1-2.3-3.3-6.2
		c1.1-5.4,8.3-12.3,14.1-11.9c6.2,0.4,12.5,0.1,19.3,0.1c-2.8,2.6-5,4.8-8.7,4.3c-2.8-0.4-5.6-0.1-8.5-0.1c-3.4,0.1-8.1,3.9-8.2,7.1
		c0,1.8,1.4,2.9,3.5,2.9c4.2-0.1,8.5,0,12.7,0c0.1,0,0.2,0.1,0.2,0.2c0,0.2-0.1,0.3-0.2,0.5c-4.5,0-9.1,0-13.6,0c0,0.2,0,0.4,0,0.6
		C32.2,125.9,36.5,125.9,40.8,125.9z"/>
	<path class="st3" d="M129.8,142.6c0.4-2,2.3-3.1,2.3-5.4c-2.1,0.8-4,1.7-5.6,2.6c-2.8,1.7-4.1,0.7-5.1-1.8
		c-0.2-0.6-0.6-1.1-0.9-1.6c-2.9,1.8-2.6,7.3-8,6.2c1.9-3.2,3.7-6.3,5.7-9.2c1.2-1.7,4.4-1.3,5.5,0.5c2.4,3.9,2.3,3.8,6.5,1.6
		c2.4-1.2,4.3-3.5,7.5-3.2c2,0.2,1,1.2,1.2,2c5.2-1.2,10.5-0.5,15.8-0.6c1.7,0,1.9,0.9,1.3,2.3c-2,4.9-4.6,6.7-9.8,6.7
		c-2,0-3.9,0.1-5.9,0c-1.8-0.2-4,1-5.1-1.6C133.7,142.6,132,143.1,129.8,142.6z M151.8,136c-8.3-0.5-10.6-1.2-11.4,4.4
		C151.4,140.4,148.7,141.3,151.8,136z"/>
	<path class="st3" d="M159,142.5c-0.2-0.9,0.6-1.4,0.9-2c2.8-4.6,2.9-4.6-2.6-4.9c0.7-1.9,0.7-1.9,2.3-2c3.8,0,7.7-0.5,11.4,0.1
		c2.8,0.5,5.4-0.2,8.1-0.2c3,0,6.1,0,9.1,0c3,0,3.2,0.6,1.9,3.2c-2,4.1-4.9,6.6-9.9,6c-2.5-0.3-5-0.1-7.5-0.1c-2.7,0-2.9-1-1.7-3.2
		c0.6-1.2,2.8-2,1.9-3.4c-0.8-1.1-2.8-0.2-4.2-0.4c-2.5-0.3-3.2,1.7-4.1,3.3C163.4,141.1,162.4,143.9,159,142.5z M175.1,140.2
		c9.2,0.8,9.2,0.7,11.2-4.2C177.5,134.9,176.9,135.1,175.1,140.2z"/>
	<path class="st4" d="M48.4,114.5c-1.3,7.3-3,8.7-9.1,8.7c-3.1,0-6.3-0.1-9.4,0c-2,0-2.8-1.1-2-2.6c1.2-2.4,2.8-4.7,6.1-4.6
		c2.7,0.1,5.4,0,8.1,0C44.2,116.1,46.2,116.3,48.4,114.5z"/>
	<path class="st3" d="M207.7,136.4c0.4,0.4,0.8,0.2,1.1-0.2c4-4.8,9.3-1.8,14-2.5c0.6-0.1,1.4,0.2,1.2,1.1c-0.1,0.6-0.2,1.4-1,1.5
		c-0.7,0.1-1.5,0.1-2.3,0.2c0,1,2.2,0.9,1.3,2.3c-1.1,1.5-1.6,3.7-3.8,3.8c-3.8,0.2-7.6,0.1-11.3,0.1c-1.4,0-1.9-0.8-1.6-2.2
		C207.4,139.9,209.1,139,207.7,136.4L207.7,136.4z"/>
	<path class="st3" d="M204.5,139.1c-0.7,0.2-1.3,0.4-2,0.6c-0.4,0.1-0.8,0.1-1.1,0.2c0.3,0.5,0.5,0.9,1.2,0.9
		c-0.9,2.5-2.6,1.5-3.9,0.7c-2.4-1.6-4.6-3.8-6.6,0.4c-0.2,0.3-1.5,0.4-2.1,0.1c-0.8-0.3-0.5-1.3-0.3-2c1.5-4.7,4.1-6.5,9.1-6.5
		c2.1,0,4.1,0.1,6.2,0c2.2-0.2,3.2,0.5,2.8,2.8c0,0,0-0.1,0-0.1C205.9,136.4,206,138.6,204.5,139.1z M195.4,137.4
		c2.5,0,4.8,0.1,7.1,0c0.7,0,1.7-0.4,1.1-1.4C202.9,134.9,196.5,135.9,195.4,137.4z"/>
	<path class="st5" d="M141.2,116.1c-0.2-4.6-0.2-4.6-5.2-4.6c-5.3,0-10.7,0.2-16-0.1c-3.2-0.2-5.1,1-6.3,3.9
		c-0.3,0.9-0.6,1.9-1.8,2.2c1.5-5.5,4.6-8,10.7-7.2c4.9,0.7,9.9,0.1,14.9,0.1C142.3,110.4,143.1,111.8,141.2,116.1z"/>
	<path class="st5" d="M200.5,118.5c0-0.2,0-0.4,0.1-0.6c2.6-6.4,2.6-6.4-4.5-6.4c-4.2,0-8.5,0.1-12.7,0c-3.5-0.2-6.8-0.1-8.9,3.4
		c0.8-3.4,2.8-4.8,6.5-4.5c5.7,0.4,11.5,0.1,17.3,0.1c1.7,0,3.7-0.7,4.7,1.3c1,2,0,3.8-1.1,5.5C201.6,117.7,201,118.1,200.5,118.5z"
		/>
	<path class="st5" d="M234.6,114.2c0.3-1.8,0.2-2.9-2.3-2.8c-6.7,0.2-13.4,0-20.1,0.1c-1.5,0-3,0.5-4.4,0.7c0.6-1.4,2-1.7,3.2-1.7
		c8.4-0.1,16.9,0,25.6,0C236,112,235.5,113.2,234.6,114.2z"/>
	<path class="st5" d="M111.1,114.1c-0.7-2.2-2.2-2.8-4.4-2.7c-5.7,0.1-11.4,0.1-17.1,0c-2.5-0.1-4.6,0.3-6.4,2.1
		c0.5-2.5,2.1-3.3,4.6-3.2c6.7,0.2,13.4,0.1,20.1,0.1C110.6,110.4,111.8,111.4,111.1,114.1z"/>
	<path class="st5" d="M79.9,114.1c0.7-1.8,0.5-2.8-1.8-2.7c-6.5,0.1-13,0.1-19.5,0c-1.2,0-2.4,0.3-3.5-0.5c2.3-1.1,4.7-0.5,7-0.5
		c5.7-0.1,11.5,0,17.3-0.1c2.3,0,3.4,0.2,1.7,2.6c-0.4,0.6-0.8,1.3-1.2,1.9C79.9,114.6,79.9,114.4,79.9,114.1z"/>
	<path class="st4" d="M162.9,122.9c2.7-2.5,5.5-4.2,7.5-6.8c0.3-0.4,0.7-0.6,1.1-0.3c0.2,0.1,0.3,0.6,0.3,0.8
		C171.4,120.6,167.5,123.5,162.9,122.9z"/>
	<path class="st6" d="M131.3,116.6c0,2.9-2.3,2.1-3.8,2.1c-4.1,0.1-4.1,0.1-2.4,3.6c0.4,0.9,0.9,1.7,1.3,2.6c1.2,2.5,4,3.8,6.5,2.8
		c2-0.7-0.2-2.4,0.7-3.4c0.6,1.2,1.3,2.4,2.2,4.1c-2.9,0-5.4-0.1-7.8,0c-1.2,0-1.7-0.7-2.1-1.6c-1.2-2.9-2.4-5.7-3.6-8.7
		C125.3,117.3,128.8,119.2,131.3,116.6z"/>
	<path class="st2" d="M152.3,120c0.7-0.8,1.5-1.6,2.6-1.9c1.8,1.1,3.8,0.4,5.7,0.5c1.2,0.1,2.3,0.1,2.9,1.4c-0.3,0.6-0.8,1-1.5,1.2
		c-1-0.9-2.2-0.5-3.4-0.6C156.5,120.5,154.4,121.1,152.3,120z"/>
	<path class="st6" d="M79.3,121.4c0.9,1.8-0.9,2.8-1.2,4.3c-0.2,0.7-1.1,1.5,0.2,2.1c2.1,1,5.6-0.2,6.7-2.4c0.7-1.5,1.3-2.9,2.7-3.9
		c-0.4,2.3-1.9,4.1-2.8,6.2c-0.3,0.7-0.7,1-1.5,1c-0.4,0-0.9,0-1.3,0c-2,0-4,0-6.5,0C76.9,125.9,78.1,123.6,79.3,121.4z"/>
	<path class="st6" d="M220.7,124.6c0.6,1-1.5,2.9,0.7,3.1c2,0.2,4.5,1.2,6.1-1.5c1.4-2.5,2.1-5.4,4.3-7.5c-0.5,3.4-2.7,6-4,9
		c-0.4,1-1.4,0.8-2.2,0.8c-2.2,0-4.3,0-6.6,0C219,126.9,219.9,125.7,220.7,124.6z"/>
	<path class="st6" d="M171.3,121.4c1,1.7-0.6,2.8-1.2,4c-0.7,1.7-0.3,2.1,1.4,2.5c3.5,0.8,5-1.5,6.6-3.8c-2.1,5.6-0.4,4.5-10.3,4.4
		C168.6,125.8,170,123.6,171.3,121.4z"/>
	<path class="st4" d="M140.9,129.8c-2.3-0.2-5.6-4.1-5.5-6.1c0.1-1,0.8-1.2,1.6-1.3c1-0.1,1,0.7,0.9,1.3
		C137.4,126.5,138.9,128.2,140.9,129.8z"/>
	<path class="st6" d="M224,117.9c-0.9,1.5-2.1,1.3-3.6,1.1c-1.9-0.3-4-1-5.7,1.2c2.4,1.4,5.2-0.7,7.3,1.4c-3.3,0-6.6,0-10.2,0
		c2.2-3.2,4.9-3.9,8.1-3.6C221.2,118.1,222.6,117.9,224,117.9z"/>
	<path class="st6" d="M172,112.2c-1.9-1.1-4-0.6-6-0.7c-5.2-0.3-10.4,0.7-15.6-0.6c0.1-0.1,0.3-0.2,0.5-0.1c3.8,0,7.6,0,11.3,0.1
		c3.6,0.1,7.3-0.6,10.9,0.5C172.7,111.7,172.4,112,172,112.2z"/>
	<path class="st5" d="M173.1,111.4c-3.6-1-7.3-0.3-10.9-0.5c-3.8-0.1-7.6-0.1-11.3-0.1c6-1,12.1-0.2,18.1-0.4c1.3-0.1,2.6-0.1,3.9,0
		C174,110.4,173.9,110.9,173.1,111.4z"/>
	<path class="st6" d="M213.7,115.6c0-0.2,0-0.5,0.1-0.6c1.7-2,9.4-2.2,11.5-0.3C221.5,115.1,217.5,113.6,213.7,115.6z"/>
	<path class="st6" d="M79.9,114.1c0,0.2,0,0.5,0,0.7c-2,3.9-4,7.7-6,11.6c-0.8-1.8,0.7-3,1.3-4.3C76.6,119.4,77.8,116.5,79.9,114.1z
		"/>
	<path class="st6" d="M20.5,128.4c2.7-1.3,5.5-0.4,8.3-0.6c3.4-0.1,6.7,0,10.1,0c-0.4,0.9-1.2,0.7-1.9,0.7
		C31.5,128.5,26,128.5,20.5,128.4z"/>
	<path class="st6" d="M186.8,125.4c1.8,1.5,3.6,3,6.3,2.5c1.1-0.2,2-0.5,2.8-1.3c0.4,0.8,1.8,2-0.6,2c-2,0-4.1,0-6.1,0
		C187,128.6,187.3,126.7,186.8,125.4z"/>
	<path class="st6" d="M95.4,126.8c1.6,0.2,3,1.2,4.8,1.1c2.2,0,3-0.7,3-2.7c0.5,0.9,1,1.8,1.7,3.3c-3,0-5.6,0-8.1,0
		C95.7,128.5,95.5,127.7,95.4,126.8z"/>
	<path class="st6" d="M40.8,125.9c-4.3,0-8.6,0-12.9,0c0-0.2,0-0.4,0-0.6c4.5,0,9.1,0,13.6,0C41.3,125.5,41.1,125.7,40.8,125.9z"/>
	<path class="st6" d="M163.5,120.1c-0.6-1.3-1.6-1.3-2.9-1.4c-1.9-0.1-3.9,0.6-5.7-0.5c3.5,0,7,0,11,0
		C164.9,119,164.2,119.5,163.5,120.1z"/>
	<path class="st6" d="M192,117.2c-0.6,2.1-2.4,1.6-3.7,1.5c-2.1-0.2-3.3,0.4-3.3,2.6c-0.5-0.9-0.9-1.9-1.5-3
		C186.4,117.4,189.4,118.8,192,117.2z"/>
	<path class="st4" d="M204.5,139.1c1.5-0.5,1.4-2.7,3.3-2.8c1.4,2.7-0.4,3.5-2.5,4.2C205,140,204.7,139.6,204.5,139.1z"/>
	<path class="st6" d="M46,124.6c-0.8,3.3,1.2,3.5,3.7,3.2c0.9-0.1,1.9-0.3,2.7,0.5c-2.7,0-5.3,0-8.2,0C44.5,127,45.2,125.8,46,124.6
		z"/>
	<path class="st6" d="M208.3,125.9c0.2-3.4,1.5-6.2,4.2-8.2C211.2,120.4,209.7,123.1,208.3,125.9z"/>
	<path class="st6" d="M152.3,120c2,1.1,4.2,0.4,6.3,0.6c1.1,0.1,2.4-0.4,3.4,0.6c-3.3,0.1-6.7,0.2-10,0.2c-0.4,0-1.1,0-0.9-0.5
		C151.2,120.6,151.9,120.3,152.3,120z"/>
	<path class="st6" d="M199.4,126.6c1.1,1.7,2.9,1.1,4.4,1.3c1.1,0.2,2.3-0.8,3.4,0.2c-2.5,1.2-5.1,0.5-7.6,0.4
		C197.4,128.4,199.1,127.3,199.4,126.6z"/>
	<path class="st6" d="M107.4,126.6c1.1,1.6,2.8,1.1,4.4,1.3c1.1,0.1,2.3-0.7,3.4,0.1c-2.5,1.3-5.3,0.6-7.9,0.5
		C105.7,128.3,107.2,127.2,107.4,126.6z"/>
	<path class="st6" d="M69.3,118c-0.1,1.3-1.1,0.7-1.6,0.7c-2.7,0-5.3,0-7.9,0.7c1.5-2.2,3.7-1.1,5.6-1.3C66.7,117.9,68,118,69.3,118
		z"/>
	<path class="st6" d="M58.9,120c1.7,1,3.5,0.6,5.3,0.7c1.1,0.1,2.4-0.5,3.2,0.8c-2.8,0-5.5,0-8.3,0c-0.5,0-1.2,0.2-1.3-0.5
		C57.8,120.7,58.5,120.3,58.9,120z"/>
	<path class="st4" d="M107.3,122c0.2,1.5-0.7,2.4-1.6,3.5C103.5,122.9,105.9,122.7,107.3,122L107.3,122z"/>
	<path class="st6" d="M64.9,127.2c2.4,1.5,5.3-0.2,7.7,1.2c-2.5,0.1-4.9,0.1-7.4,0.1C63.7,128.6,64.5,127.8,64.9,127.2z"/>
	<path class="st4" d="M199.3,122.6c-0.2,1.1-0.5,2.1-1.4,2.8C196.4,123,196.4,123,199.3,122.6L199.3,122.6z"/>
	<path class="st6" d="M212.6,117.6c-0.4-1.1,0.1-1.8,1.2-2.1C213.4,116.2,213,116.9,212.6,117.6z"/>
	<path class="st6" d="M133.6,124.4c-0.9-0.3-1.4-0.7-0.9-1.7C133.3,123.1,133.4,123.7,133.6,124.4z"/>
	<path class="st4" d="M202.6,140.8c-0.6,0-0.9-0.5-1.2-0.9c0.4-0.1,0.8-0.1,1.1-0.2C202.5,140.1,202.5,140.5,202.6,140.8z"/>
	<path class="st4" d="M199.3,122.6c0.1-0.3,0.2-0.5,0.2-0.8C200.1,122.3,199.5,122.4,199.3,122.6
		C199.3,122.6,199.3,122.6,199.3,122.6z"/>
	<path class="st6" d="M225.1,115.9c0.2,0.7,0,1.2-0.8,1.4C224.6,116.8,224.9,116.4,225.1,115.9z"/>
	<path class="st6" d="M226,114.8c0,0.6-0.2,1.1-0.9,1.1c0.1-0.4,0.2-0.7,0.3-1.1C225.6,114.8,225.8,114.8,226,114.8L226,114.8z"/>
	<path class="st4" d="M172.9,113.9c0,0.1,0.1,0.2,0.1,0.2c0,0.1-0.1,0.1-0.2,0.2C172.8,114.2,172.8,114.1,172.9,113.9z"/>
	<path class="st6" d="M131.5,116.1c0.1,0.1,0.1,0.2,0.2,0.2c-0.1,0.1-0.3,0.2-0.4,0.2C131.2,116.4,131.3,116.3,131.5,116.1z"/>
	<path class="st6" d="M192.6,116.5c-0.2,0.3-0.5,0.6-0.7,0.9C192.1,117,192.4,116.8,192.6,116.5z"/>
	<path class="st4" d="M107.3,122c0-0.1,0.1-0.2,0.1-0.2C107.4,121.8,107.3,121.9,107.3,122C107.3,122,107.3,122,107.3,122z"/>
	<path class="st6" d="M91.9,113.6c2.7,0,5.3,0,8,0c0,0.1,0,0.2,0,0.3c-2.7,0-5.3,0-8,0C91.9,113.8,91.9,113.7,91.9,113.6z"/>
	<path class="st6" d="M69.9,114c-2.9,0-5.8,0-8.7,0c0-0.1,0-0.2,0-0.3c2.9,0,5.7,0,8.6,0C69.8,113.8,69.9,113.9,69.9,114z"/>
	<path class="st6" d="M226,114.8c0-0.1,0.1-0.2,0.1-0.2C226.1,114.6,226.1,114.7,226,114.8C226,114.8,226,114.8,226,114.8z"/>
	<path class="st1" d="M151.8,136c-3.1,5.3-0.4,4.4-11.4,4.4C141.2,134.8,143.5,135.5,151.8,136z M142.6,138.5c4,0.7,4.2,0.7,6.1-0.9
		C146.6,137.9,144.8,137.1,142.6,138.5z"/>
	<path class="st1" d="M175.1,140.2c1.8-5.1,2.4-5.4,11.2-4.2C184.3,141,184.3,141,175.1,140.2z M178.2,138.3c1.6,0.5,3.2,1,5.3-0.3
		C181.4,137.4,179.8,137.5,178.2,138.3z"/>
	<path class="st4" d="M195.4,137.4c1.1-1.5,7.5-2.5,8.2-1.5c0.6,1-0.3,1.4-1.1,1.4C200.2,137.5,197.9,137.4,195.4,137.4z"/>
	<path class="st4" d="M142.6,138.5c2.2-1.3,4-0.6,6.1-0.9C146.8,139.2,146.5,139.2,142.6,138.5z"/>
	<path class="st4" d="M178.2,138.3c1.6-0.8,3.1-0.9,5.3-0.3C181.4,139.4,179.8,138.8,178.2,138.3z"/>
</g>
</svg>
