<?xml version="1.0" encoding="utf-8"?>
<!-- Generator: Adobe Illustrator 19.2.0, SVG Export Plug-In . SVG Version: 6.00 Build 0)  -->
<svg version="1.1" id="Capa_1" xmlns="http://www.w3.org/2000/svg" xmlns:xlink="http://www.w3.org/1999/xlink" x="0px" y="0px"
	 viewBox="0 0 255 255" style="enable-background:new 0 0 255 255;" xml:space="preserve">
<style type="text/css">
	.st0{fill:#E8E9E9;}
	.st1{fill:#F4F7FB;}
	.st2{fill:#00539C;}
	.st3{fill:#1D345A;}
	.st4{fill:#E42E2E;}
	.st5{fill:#17478B;}
	.st6{fill:#E7E8E8;}
</style>
<rect x="0" class="st0" width="255" height="255"/>
<g>
	<path class="st1" d="M242.7,82.6c-0.2-0.2-0.4-0.4-0.6-0.6C242.6,81.8,242.8,82,242.7,82.6z"/>
	<path class="st1" d="M15.2,168.2c0.2,0.2,0.4,0.4,0.6,0.6C15.3,169,15.1,168.8,15.2,168.2z"/>
	<path class="st1" d="M242,168.8c0.2-0.2,0.4-0.4,0.6-0.6C242.8,168.8,242.6,169,242,168.8z"/>
	<path class="st2" d="M45.8,149.1c-8-2.8-15.5-6.5-21.7-12.4c-8.4-8-8.5-16.9-0.1-24.9c8-7.7,18.2-11.7,28.5-15
		c17.6-5.7,35.8-8.3,54.2-9.6c23.7-1.6,47.2-0.8,70.6,3.1c15.4,2.6,30.4,6.2,44.4,13.4c5,2.6,9.7,5.7,13.5,10
		c6.3,7.3,5.6,16.6-1.7,22.9c-2.1,1.9-4.4-0.4-6.6,0.3c-0.4-0.9-1,0-1.5-0.2c-0.4-0.2-0.8-0.3-1.3-0.5c-0.7-1-1.9-1-2.8-1.1
		c-12.7-1.9-25.6-3-38.4-3.8c-19.3-1.2-38.7-1-58.1,0.4c-18.8,1.4-37.4,3.7-55.6,8.5C61.2,142.3,53,144.6,45.8,149.1z M202.4,111.9
		c1.4,0.4,3,0.1,4.3,1c-1.4,3.7-2.9,7.3-4.2,11c-0.3,0.9-1.9,2.4,0.5,3c1.6,0.4,3.3,1.2,4.1-1.3c0.9-2.9,2.2-5.7,3.2-8.6
		c0.7-2,1.6-3.7,4.3-2.9c1.8,0.6,2.1-0.9,2.5-2.1c0.6-1.7-0.8-1.6-1.8-1.8c-3.1-0.6-6.3-1.1-9.4-1.7c-1-0.2-1.9-0.3-2.6,0.5
		c-0.3-0.7-0.8-1.3-1.6-1.3c-2.8-1.2-4.3-0.1-4.8,2.8c-0.2,1-0.5,2.1-0.9,3c-0.4,0.8-0.1,2.2-1.5,2.1c-1.1,0-1-1.2-1.3-1.9
		c-0.8-1.9-1.5-3.9-2.1-5.9c-0.5-1.6-1.7-1.9-3.2-2.1c-1.7-0.2-1.8,1.1-2.2,2.2c-1.3,3.9-2.7,7.8-3.9,11.7c-0.4,1.4-0.9,2.2-2.2,0.8
		c-0.1-0.9-0.7-1.1-1.4-1.3c-1.7-0.6-3.5-0.4-5-1.3c0.1-2.1,1.2-2.6,3.2-2.2c1.1,0.2,2.4,0.9,3.3-0.2c0.5-0.6,1-1.7,0.8-2.3
		c-0.5-1.5-2-0.6-3-1c-0.9-0.3-2.7,0.8-2.3-1.5c0.3-1.6,0.8-2.6,2.7-2.2c0.9,0.2,1.9,0.2,2.9,0.2c1.5,0,1.6-1.3,1.7-2.3
		c0.2-1.4-0.9-1.1-1.7-1.2c-2.1-0.2-4.3-0.3-6.4-0.6c-1.8-0.2-2.7,0.4-3.1,2.2c-1.1,4.6-2.5,9.2-3.7,13.8c-0.2,0.8-0.7,1.6,0.2,2.3
		c-0.2,0.2-0.4,0.6,0.1,0.7c0.6,0.1,1.3,0.1,1.7-0.5c0.4,0.2,0.9,0.4,1.3,0.7c2.8,0.8,5.5,1.2,8.2-0.2c0.6-0.6,0.5-1.6,2-2.2
		c-1,2.6,0.6,2.6,2.1,2.7c1.9,0.2,1.7-1.5,2.2-2.6c0.7-1.7,1.1-3.4,1.8-5.1c0.2-0.5,0.9-1.1,1.4-1.2c0.8-0.1,0.7,0.9,0.9,1.4
		c0.8,2.3,1.7,4.6,2.4,6.9c0.4,1.4,1.2,2,2.7,2.1c1.7,0.1,1.9-1,2.3-2.1c1.2-3.4,2.3-6.8,3.4-10.3
		C200.8,112.8,201.6,112.3,202.4,111.9z M85.9,125.8c0.2,0.3,0.5,0.7,0.9,0.2c2.8,0.5,4.2-0.3,4.1-3.4c-0.1-2.6,0.3-5.2,0.4-7.8
		c1.8,2.8,4.3,4.9,5.9,7.6c1.4,2.4,3,3.3,5.1,0.8c0.8-0.9,0.9,0,1.4,0.2c3.3,1.3,4.5,1,5.3-2.5c0.9-3.9,3.7-3,6.1-3.2
		c2.7-0.2,1.7,2.2,2.2,3.4c0.7,1.9,1.2,2.7,1.7,2.1c1.2-1.2,4.8,0.2,3.7-3.6c-1.6-5.6-2.6-11.4-4-17c-0.3-1.1-0.1-2.6-1.4-2.9
		c-1.5-0.3-3,0.4-4,1.5c-0.7,0.7-1.2,1.8-1.6,2.7c-2.2,4.8-4.4,9.6-6.6,14.4c-1.5-1.2-0.9-2.9-1.1-4.3c-0.4-2.8,1-5.8-0.9-8.4
		c-2.5-0.9-3.9-0.3-4,2.7c0,2.3,0.2,4.7-0.8,7.5c-2.1-2.9-4-5.3-5.7-7.8c-1-1.5-2.2-1.3-3.6-1c-1.5,0.3-1.5,1.5-1.6,2.7
		c-0.1,2.6-0.3,5.3-0.4,7.9c-0.2-1-0.4-2-0.7-3c-0.1,0-0.2,0-0.3,0.1c0,2.4,0,4.8,0,7.3c-0.8-0.2-0.9-1.3-1.8-1.1
		c-1.4-3.6-2.7-7.1-4.1-10.6c-0.3-0.8-0.3-2.2-1.6-2.1c-1.2,0.1-2.6,0.3-3.1,1.7c-0.5,1.3-1.1,2.5-1.5,3.9
		c-1.1,3.6-2.2,7.3-3.4,10.9c-0.4,1.2-1,2.7-2.9,1.3c-1.1-0.9-3.6-0.9-1.6-3.5c0.9-1.2,1.5-2.9,1.2-4.5c-0.4-2.1-0.6-4.5-3.5-5
		c-2.4-0.4-9,1-9.6,2.3c-0.1,0.3-0.2,0.6-0.2,0.9c0.4,5.4,0.8,10.8,1.3,16.2c0.1,1.6,1,1.3,2.3,1c2.7-0.6,2.5-2.4,2.2-4.3
		c-0.1-0.8-0.3-1.7,0.6-2.3c0.9-0.6,1.4,0.2,1.9,0.6c0.5,0.4,0.8,0.9,1.3,1.3c4,3.5,9.4,2.6,10.2-1.9c0.5-3,2.5-2.9,4.5-3.3
		c2.5-0.5,1.9,1.7,2.6,2.8c0.4,0.6,0.6,1.3,1,2.1C83,127,85,127.2,85.9,125.8z M32.3,129.3c-0.2,2.3,0.7,4.7,1.8,7
		c1,2.2,6.8,4.9,8.7,3.8c3.4-2.1,7.4-3.8,9.5-7.1c1.5-2.3-0.6-5.7-1.1-8.6c0-0.1-0.1-0.2-0.1-0.3c-0.1-1.3-0.7-1.7-1.9-1.3
		c-2.3,0.9-4.6,1.7-6.8,2.8c-1.9,0.9-0.9,2.6-0.5,3.9c0.6,1.7,1.4,0,2.1,0c0.8,0,1.5-1.3,2.2-0.4c0.5,0.7,0.7,1.9,0.2,2.7
		c-0.9,1.3-1.7,2.6-3.7,2.5c-1.8-0.1-3.2-0.4-4-2.3c-2.6-5.7,0.7-12.2,6.9-13.4c2.4-0.5,2.7-2.3,2.3-4.3c-0.4-2.4-2.2-1.2-3.2-1
		C37.1,115.3,32.3,121.4,32.3,129.3z M151.3,111.9c0.2,0.1,0.4,0.1,0.6,0.2c0.3,2.3,0.5,4.7,0.8,7c0.2,1.1-0.2,2.7,1.3,2.8
		c1.3,0.1,2-0.9,2.7-2.2c1-1.9,1.4-4.5,4.4-5.1c-0.2,1.8-0.4,3.4-0.5,4.9c-0.1,1.1-0.9,2.7,1.4,2.7c1.6,0,2.9,0.1,3-2.2
		c0.3-4.6,0.8-9.1,1.2-13.7c0.1-0.9,1-2.4-0.6-2.7c-1.5-0.3-3.1-0.7-4.2,1.1c-1.6,2.7-3,5.6-5.3,8.2c-0.3-2.5-0.5-4.8-0.8-7.2
		c-0.1-1.2,0.2-2.7-1.8-2.7c-1.7,0-3.4-0.2-4,2.1c-1.2,4.8-2.6,9.6-4,14.4c-0.6,2,0.3,2.1,1.8,2.1c1.6,0,1.8-1.1,2.1-2.3
		C150,116.9,150.6,114.4,151.3,111.9z M221.7,131.2c7.8,0.3,12.6-9.3,11-14.9c-0.8-2.8-3-3.7-5.4-4.2c-6.5-1.2-12.5,3.3-13.5,10
		C213,127.8,216,131.2,221.7,131.2z M132.9,117.9c-3.1,0.2-3.1,0.2-2.8-2.6c0.4-3.2,1-6.3,1.3-9.5c0.1-0.9,1-2.4-0.9-2.4
		c-1.4,0-3.3-0.9-3.7,1.7c-0.7,5-1.6,10.1-2.3,15.1c-0.1,0.7-0.4,1.7,0.7,1.8c2.6,0.1,5.2,1,7.8,0.4c1.8-0.4,3.2-1.3,2.9-3.4
		C135.7,116.6,133.8,118.5,132.9,117.9z M143,103.2c-1.9-0.3-2.6,0.6-2.9,2.4c-0.8,4.6-1.7,9.2-2.5,13.8c-0.3,1.4-0.6,2.9,1.4,3.2
		c1.7,0.2,3.1-0.5,3.4-2.5c0.9-4.9,1.6-9.8,2.7-14.7C145.6,103.1,144.6,103,143,103.2z"/>
	<path class="st3" d="M225.5,136.7c0.5,0.2,1.1-0.7,1.5,0.2c0.6,1.6,2.8,0.6,3.4,2.4c-6.5,5.1-14.1,8.4-21.9,11.1
		c-18.2,6.4-37.1,9.3-56.2,10.7c-24.5,1.7-48.9,1-73.2-3.1c-7-1.2-14-2.7-21.3-4.8c4.5-2.7,8.9-4.6,13.6-6.1
		c4.1-1.3,8.2-3.1,12.4-3.9c5.4-1.1,10.6-3.2,16.3-3.4c3.2-0.1,6.4-1.8,9.8-2.2c6.6-0.8,13.2-1.7,19.8-2.5c0.5-0.1,1.1,0.1,1.3-0.6
		c1.8-0.1,3.7-0.2,5.5-0.3c6.5-0.2,13.1-0.5,19.6-0.7c8,0.1,15.9,0.1,23.9,0.2c1.3,0,2.8,0.5,4-0.4c9.1,0.6,18.2,1.2,27.4,1.7
		c1.5,1.4,3.2,0.5,4.8,0.6c0,0,0.1,0,0.1,0c1.9,1.2,4.1,0.7,6,1.2C223.3,137.2,224.4,136.9,225.5,136.7z"/>
	<path class="st4" d="M216.2,135.5C216.2,135.5,216.1,135.5,216.2,135.5c-1.6-0.9-3.3-0.5-4.9-0.6c-9.1-0.6-18.2-1.2-27.4-1.7
		c-2.3-0.1-4.6-0.1-7-0.2c-0.3-0.6-0.8-0.6-1.3-0.6c-12.5-0.3-25.1,0.1-37.6,0.8c-0.5,0-1.9-0.6-1.6,1c-1.8,0.1-3.7,0.2-5.5,0.3
		c-7.1-0.6-14.1,0.8-21.1,1.8c-15.8,2.2-31.4,5.3-46.2,11.4c-1.1,0.4-2.3,0.7-3.2,1.5c-4.9,4.1-9.7,2.5-14.6,0
		c7.3-4.5,15.4-6.8,23.5-8.9c18.2-4.8,36.8-7.1,55.6-8.5c19.4-1.4,38.7-1.6,58.1-0.4c12.8,0.8,25.7,1.9,38.4,3.8
		c1,0.1,2.1,0.1,2.8,1.1c-0.7,0-1.3,0.1-2,0.1C220.3,135.7,218.3,135.5,216.2,135.5z"/>
	<path class="st1" d="M105.1,118.4c2.2-4.8,4.4-9.6,6.6-14.4c0.4-1,0.9-2,1.6-2.7c1.1-1.1,2.6-1.8,4-1.5c1.3,0.3,1.2,1.9,1.4,2.9
		c1.3,5.7,2.4,11.4,4,17c1.1,3.9-2.5,2.5-3.7,3.6c-0.5,0.5-1-0.3-1.7-2.1c-0.5-1.2,0.5-3.6-2.2-3.4c-2.4,0.2-5.3-0.8-6.1,3.2
		c-0.8,3.5-2,3.8-5.3,2.5c-0.5-0.2-0.6-1.2-1.4-0.2c-2.1,2.5-3.7,1.5-5.1-0.8c-1.6-2.7-4.1-4.8-5.9-7.6c-0.2,2.6-0.5,5.2-0.4,7.8
		c0.1,3.1-1.3,3.9-4.1,3.4c0.1-2.8,0.2-5.5,0.3-8.3c0.2-2.6,0.3-5.3,0.4-7.9c0.1-1.2,0-2.4,1.6-2.7c1.4-0.3,2.6-0.4,3.6,1
		c1.7,2.5,3.6,4.9,5.7,7.8c1-2.8,0.7-5.2,0.8-7.5c0.1-3.1,1.5-3.6,4-2.7c0,0.2,0.1,0.4,0.2,0.5c-0.7,3.6-0.6,7.3-0.5,10.9
		c0.2,1.1-1.1,2.6,0.6,3.2C104.8,120.6,104.7,119.1,105.1,118.4z M115.4,113c-0.3-1.8-0.5-3.6-0.8-5.6c-1.5,0.8-0.9,2-1.3,2.9
		C111.8,113.3,111.9,113.4,115.4,113z"/>
	<path class="st1" d="M179.4,120.2c1.3,1.4,1.7,0.6,2.2-0.8c1.2-3.9,2.6-7.8,3.9-11.7c0.4-1.1,0.5-2.3,2.2-2.2
		c1.5,0.1,2.7,0.4,3.2,2.1c0.6,2,1.3,4,2.1,5.9c0.3,0.7,0.2,1.9,1.3,1.9c1.3,0.1,1.1-1.3,1.5-2.1c0.4-1,0.7-2,0.9-3
		c0.5-2.9,2-4,4.8-2.8c-0.5,1.9-1,3.7-1.5,5.6c-1.1,3.4-2.3,6.8-3.4,10.3c-0.4,1.1-0.7,2.1-2.3,2.1c-1.5-0.1-2.3-0.6-2.7-2.1
		c-0.7-2.3-1.5-4.6-2.4-6.9c-0.2-0.5-0.1-1.5-0.9-1.4c-0.5,0.1-1.2,0.6-1.4,1.2c-0.7,1.7-1.1,3.4-1.8,5.1c-0.4,1.1-0.2,2.8-2.2,2.6
		c-1.5-0.1-3.2-0.1-2.1-2.7c-1.5,0.6-1.5,1.6-2,2.2c-2.7,0.1-5.5,0.1-8.2,0.2c-0.4-0.2-0.9-0.4-1.3-0.7c-0.6,0-1.2-0.1-1.7-0.1
		c-0.9-0.7-0.5-1.5-0.2-2.3c1.3-4.6,2.6-9.2,3.7-13.8c0.4-1.8,1.3-2.5,3.1-2.2c2.1,0.3,4.2,0.4,6.4,0.6c0.8,0.1,1.9-0.2,1.7,1.2
		c-0.2,1-0.2,2.3-1.7,2.3c-1,0-1.9,0-2.9-0.2c-1.9-0.4-2.4,0.6-2.7,2.2c-0.4,2.3,1.4,1.2,2.3,1.5c1,0.4,2.6-0.5,3,1
		c0.2,0.6-0.3,1.7-0.8,2.3c-0.9,1-2.2,0.4-3.3,0.2c-2-0.4-3.1,0.1-3.2,2.2c-1.1,1.4-0.6,2,1,2C175.8,119.7,177.7,119.5,179.4,120.2z
		"/>
	<path class="st1" d="M85.9,125.8c-0.9,1.4-2.8,1.2-3.8,2.7c-0.4-0.8-0.7-1.5-1-2.1c-0.7-1.1-0.1-3.3-2.6-2.8c-2,0.4-4,0.3-4.5,3.3
		c-0.8,4.5-6.1,5.4-10.2,1.9c-0.5-0.4-0.8-1-1.3-1.3c-0.5-0.4-1-1.1-1.9-0.6c-0.9,0.6-0.7,1.4-0.6,2.3c0.3,1.9,0.5,3.7-2.2,4.3
		c-1.3,0.3-2.2,0.6-2.3-1c-0.5-5.4-0.9-10.8-1.3-16.2c0-0.3,0-0.7,0.2-0.9c0.7-1.3,7.2-2.7,9.6-2.3c2.9,0.5,3.1,2.9,3.5,5
		c0.3,1.6-0.3,3.3-1.2,4.5c-2,2.6,0.5,2.6,1.6,3.5c1.8,1.5,2.4,0,2.9-1.3c1.2-3.6,2.2-7.3,3.4-10.9c0.4-1.3,1-2.6,1.5-3.9
		c0.6-1.4,2-1.6,3.1-1.7c1.2-0.2,1.3,1.3,1.6,2.1c1.4,3.5,2.8,7.1,4.1,10.6C84.8,122.5,85.4,124.2,85.9,125.8z M60.8,116.5
		c-1.6,0.1-1.9,0.8-1.5,4.5c0.1,0.7-0.4,2.3,0.7,2c1.7-0.5,3-1.9,2.9-3.9C62.8,117.7,62.3,116.5,60.8,116.5z M76.8,115.1
		c-0.3,1.4-0.6,2.6-0.9,3.9c-0.1,0.6-0.5,1.4,0.6,1.4c0.8,0,2-0.2,1.7-1.3C77.7,117.8,78.3,116.3,76.8,115.1z"/>
	<path class="st1" d="M32.3,129.3c0-7.9,4.8-14,12.3-15.8c1.1-0.3,2.8-1.4,3.2,1c0.4,2.1,0.1,3.8-2.3,4.3c-6.1,1.2-9.4,7.7-6.9,13.4
		c0.9,1.9,2.2,2.2,4,2.3c2,0.1,2.9-1.2,3.7-2.5c0.6-0.9,0.4-2-0.2-2.7c-0.7-0.9-1.5,0.4-2.2,0.4c-0.7,0-1.5,1.8-2.1,0
		c-0.4-1.3-1.4-3,0.5-3.9c2.2-1.1,4.5-1.9,6.8-2.8c1.2-0.5,1.8,0,1.9,1.3c0,0.1,0,0.2,0.1,0.3c0.5,2.9,2.6,6.3,1.1,8.6
		c-2.1,3.2-6.1,5-9.5,7.1c-1.9,1.1-7.7-1.6-8.7-3.8C33,134,32.1,131.6,32.3,129.3z"/>
	<path class="st1" d="M151.3,111.9c-0.6,2.5-1.3,5.1-1.9,7.6c-0.3,1.2-0.5,2.3-2.1,2.3c-1.5,0-2.4-0.1-1.8-2.1
		c1.5-4.8,2.8-9.6,4-14.4c0.6-2.3,2.3-2.1,4-2.1c2,0,1.7,1.5,1.8,2.7c0.3,2.4,0.5,4.7,0.8,7.2c2.2-2.6,3.7-5.4,5.3-8.2
		c1.1-1.9,2.8-1.5,4.2-1.1c1.6,0.3,0.7,1.8,0.6,2.7c-0.4,4.6-0.9,9.1-1.2,13.7c-0.1,2.2-1.5,2.2-3,2.2c-2.3,0-1.5-1.6-1.4-2.7
		c0.1-1.6,0.3-3.2,0.5-4.9c-3,0.6-3.4,3.2-4.4,5.1c-0.7,1.3-1.4,2.3-2.7,2.2c-1.5-0.2-1.2-1.8-1.3-2.8c-0.3-2.3-0.5-4.6-0.8-7
		C151.6,112,151.5,111.9,151.3,111.9z"/>
	<path class="st1" d="M221.7,131.2c-5.8,0-8.7-3.4-7.9-9.2c1-6.7,7-11.2,13.5-10c2.4,0.5,4.6,1.4,5.4,4.2
		C234.3,122,229.5,131.5,221.7,131.2z M228.6,118.5c0-2.7-2.1-4.1-4.6-2.9c-3.4,1.7-5,4.8-5.7,8.3c-0.4,2.2,0.6,3.3,2.9,3.4
		C224.3,127.5,228.6,122.5,228.6,118.5z"/>
	<path class="st1" d="M203.2,109c0.8-0.8,1.7-0.7,2.6-0.5c3.1,0.6,6.3,1.1,9.4,1.7c1,0.2,2.4,0.1,1.8,1.8c-0.4,1.2-0.7,2.7-2.5,2.1
		c-2.7-0.8-3.5,0.9-4.3,2.9c-1.1,2.9-2.3,5.7-3.2,8.6c-0.8,2.6-2.5,1.8-4.1,1.3c-2.4-0.6-0.8-2-0.5-3c1.3-3.7,2.8-7.3,4.2-11
		c-1.4-0.9-2.9-0.6-4.3-1C202.6,110.9,202.9,109.9,203.2,109z"/>
	<path class="st1" d="M132.9,117.9c0.9,0.5,2.8-1.3,3.1,1.1c0.3,2.1-1.1,3-2.9,3.4c-2.6,0.6-5.2-0.4-7.8-0.4c-1.1,0-0.8-1.1-0.7-1.8
		c0.8-5,1.6-10.1,2.3-15.1c0.4-2.6,2.4-1.6,3.7-1.7c1.9-0.1,1,1.5,0.9,2.4c-0.4,3.2-0.9,6.3-1.3,9.5
		C129.8,118.1,129.8,118.1,132.9,117.9z"/>
	<path class="st1" d="M143,103.2c1.6-0.2,2.6-0.1,2.1,2.1c-1.1,4.9-1.9,9.8-2.7,14.7c-0.3,2-1.7,2.7-3.4,2.5c-2-0.2-1.7-1.7-1.4-3.2
		c0.9-4.6,1.8-9.2,2.5-13.8C140.4,103.8,141.1,102.8,143,103.2z"/>
	<path class="st5" d="M103.3,106.2c-0.1-0.2-0.1-0.3-0.2-0.5c1.9,2.6,0.5,5.6,0.9,8.4c0.2,1.5-0.5,3.2,1.1,4.3
		c-0.4,0.8-0.3,2.3-1.6,1.9c-1.7-0.5-0.5-2.1-0.6-3.2C104,113.5,103.2,109.8,103.3,106.2z"/>
	<path class="st5" d="M85.9,125.8c-0.5-1.6-1.1-3.2-1.6-4.8c0.9-0.2,1,1,1.8,1.1c0-2.5,0-4.9,0-7.3c0.1,0,0.2,0,0.3-0.1
		c0.2,1,0.4,2,0.7,3c-0.1,2.8-0.2,5.5-0.3,8.3C86.4,126.5,86.1,126.1,85.9,125.8z"/>
	<path class="st5" d="M179.4,120.2c-1.8-0.8-3.6-0.6-5.5-0.6c-1.6,0-2.1-0.6-1-2c1.5,1,3.4,0.8,5,1.3
		C178.7,119.2,179.3,119.3,179.4,120.2z"/>
	<path class="st5" d="M203.2,109c-0.3,1-0.5,2-0.8,3c-0.8,0.4-1.6,0.8-2.4,1.3c0.5-1.9,1-3.7,1.5-5.6
		C202.4,107.7,202.8,108.3,203.2,109z"/>
	<path class="st5" d="M170.5,123.5c2.7-0.1,5.5-0.1,8.2-0.2C176,124.7,173.3,124.3,170.5,123.5z"/>
	<path class="st1" d="M222.3,136.3c0.7,0,1.3-0.1,2-0.1c0.4,0.2,0.8,0.3,1.3,0.5c-1.1,0.2-2.1,0.5-3.2,0.1
		C222.3,136.6,222.3,136.4,222.3,136.3z"/>
	<path class="st5" d="M167.4,122.7c0.6,0,1.2,0.1,1.7,0.1c-0.4,0.6-1.1,0.7-1.7,0.5C167,123.3,167.2,123,167.4,122.7z"/>
	<path class="st6" d="M136.4,134.2c-0.2-1.6,1.1-0.9,1.6-1c12.5-0.7,25.1-1.1,37.6-0.8c0.5,0,1.1,0,1.3,0.6c-1.2,0-2.3,0.1-3.5,0.1
		c-5.8,0.1-11.6-0.4-17.4,0.3C149.5,133.7,142.9,134,136.4,134.2z"/>
	<path class="st2" d="M156,133.5c5.8-0.8,11.6-0.2,17.4-0.3c1.2,0,2.3-0.1,3.5-0.1c2.3,0.1,4.6,0.1,7,0.2c-1.3,0.9-2.7,0.4-4,0.4
		C172,133.6,164,133.6,156,133.5z"/>
	<path class="st6" d="M222.3,136.3c0,0.2,0,0.3,0,0.5c-2-0.5-4.2,0-6-1.2C218.3,135.5,220.3,135.7,222.3,136.3z"/>
	<path class="st6" d="M211.3,135c1.6,0.1,3.3-0.4,4.8,0.6C214.5,135.5,212.8,136.4,211.3,135z"/>
	<path class="st2" d="M115.4,113c-3.5,0.4-3.6,0.3-2.2-2.7c0.4-0.9-0.2-2.1,1.3-2.9C114.9,109.3,115.1,111.2,115.4,113z"/>
	<path class="st2" d="M103.3,106.2c-0.2,3.6,0.7,7.3-0.5,10.9C102.8,113.4,102.7,109.8,103.3,106.2z"/>
	<path class="st2" d="M60.8,116.5c1.5,0,2,1.2,2,2.5c0,2-1.2,3.4-2.9,3.9c-1,0.3-0.6-1.3-0.7-2C58.9,117.2,59.2,116.6,60.8,116.5z"
		/>
	<path class="st5" d="M76.8,115.1c1.5,1.2,1,2.7,1.3,4c0.3,1-0.8,1.3-1.7,1.3c-1.1,0-0.7-0.8-0.6-1.4
		C76.2,117.7,76.5,116.5,76.8,115.1z"/>
	<path class="st2" d="M228.6,118.5c0,4-4.3,9.1-7.3,8.9c-2.3-0.1-3.3-1.2-2.9-3.4c0.7-3.6,2.2-6.7,5.7-8.3
		C226.5,114.4,228.6,115.8,228.6,118.5z"/>
</g>
</svg>
