<?xml version="1.0" encoding="utf-8"?>
<!-- Generator: Adobe Illustrator 19.2.0, SVG Export Plug-In . SVG Version: 6.00 Build 0)  -->
<svg version="1.1" id="Capa_1" xmlns="http://www.w3.org/2000/svg" xmlns:xlink="http://www.w3.org/1999/xlink" x="0px" y="0px"
	 viewBox="0 0 255 255" style="enable-background:new 0 0 255 255;" xml:space="preserve">
<style type="text/css">
	.st0{fill:#592880;}
	.st1{fill:#FAB915;}
	.st2{fill:#FAB917;}
	.st3{fill:#F08123;}
</style>
<rect y="-0.4" class="st0" width="255" height="255"/>
<g>
	<g>
		<path class="st1" d="M127.8,72.4V26.5c0,0-4.5,9.5-7.9,12.8c0,0-5.4,5.4-5.4,14.5C114.6,53.8,117.3,63.3,127.8,72.4z"/>
		<path class="st1" d="M127.8,93.5c0,0,3.7-14.5-9.5-23.1c0,0-8.3-3.7-8.3-12C110.1,58.3,92.3,87.3,127.8,93.5z"/>
		<path class="st1" d="M127.8,115c0,0,2.1-16.2-16.1-20.5c0,0-10-3.9-12-12.1C99.6,82.3,87,118.3,127.8,115z"/>
		<path class="st1" d="M127.9,140.9c0,0,4.8-20.5-18.2-24.1c0,0-13.7-0.5-15.8-9.2C93.9,107.6,76,146.7,127.9,140.9z"/>
	</g>
	<g>
		<path class="st1" d="M127.1,72.4V26.5c0,0,4.5,9.5,7.9,12.8c0,0,5.4,5.4,5.4,14.5C140.3,53.8,137.7,63.3,127.1,72.4z"/>
		<path class="st1" d="M127.1,93.5c0,0-3.7-14.5,9.5-23.1c0,0,8.3-3.7,8.3-12C144.9,58.3,162.6,87.3,127.1,93.5z"/>
		<path class="st1" d="M127.1,115c0,0-2.1-16.2,16.1-20.5c0,0,10-3.9,12-12.1C155.3,82.3,167.9,118.3,127.1,115z"/>
		<path class="st1" d="M128.2,141.1c0,0-4.4-20.3,17.7-24.1c0,0,13.2-0.6,15.3-9.3C161.3,107.7,178.2,146.4,128.2,141.1z"/>
	</g>
	<path class="st2" d="M140.5,172c0,0-13.6-8.7-13.6-13.6c0,5-13.6,13.6-13.6,13.6c-12.1,9.5-11.2,21.5-11.2,21.5
		c2.5,19.8,16.3,20.2,16.3,20.2h8.3h0.5h8.3c0,0,13.8-0.4,16.3-20.2C151.7,193.5,152.5,181.5,140.5,172z"/>
	<path class="st3" d="M142.7,155.4c4.7,3.7,34.4,22,22,47.1c0,0,5.5-26.7-29.4-41.9c0,0,15.9,11.4,19.6,19.6
		c0,0,11.2,35.7-27.8,35.9c-39-0.3-27.8-35.9-27.8-35.9c3.7-8.3,19.6-19.6,19.6-19.6c-34.9,15.3-29.4,41.9-29.4,41.9
		c-12.4-25.1,17.4-43.4,22-47.1c-38.3,6.8-37,30.6-37,30.6c1,40,47.8,36.8,52.6,36.4c4.8,0.4,51.6,3.6,52.6-36.4
		C179.8,186,181,162.3,142.7,155.4z"/>
</g>
</svg>
