<?xml version="1.0" encoding="utf-8"?>
<!-- Generator: Adobe Illustrator 19.2.0, SVG Export Plug-In . SVG Version: 6.00 Build 0)  -->
<svg version="1.1" id="Capa_1" xmlns="http://www.w3.org/2000/svg" xmlns:xlink="http://www.w3.org/1999/xlink" x="0px" y="0px"
	 viewBox="0 0 255 255" style="enable-background:new 0 0 255 255;" xml:space="preserve">
<style type="text/css">
	.st0{fill:#1E428A;}
	.st1{fill:#FFC627;}
</style>
<g>
	<g>
		<polygon class="st0" points="179,76 148.3,76 106.6,76 106.6,106.7 148.3,106.7 179,106.7 199.1,106.7 199.1,148.4 179,148.4 
			179,179.2 229.8,179.2 229.8,76 		"/>
		<polygon class="st0" points="75.6,148.4 55.6,148.4 55.6,106.7 75.6,106.7 75.6,76 24.9,76 24.9,179.2 75.6,179.2 106.3,179.2 
			147.9,179.2 147.9,148.4 106.3,148.4 		"/>
	</g>
	<g>
		<polygon class="st1" points="147.9,148.4 147.9,179.2 147.9,199.3 106.6,199.3 106.6,179.2 76.2,179.2 76.2,230.1 178.3,230.1 
			178.3,179.2 178.3,148.4 178.3,106.7 147.9,106.7 		"/>
		<polygon class="st1" points="76.2,25.1 76.2,76 76.2,106.7 76.2,148.4 106.6,148.4 106.6,106.7 106.6,76 106.6,55.8 147.9,55.8 
			147.9,76 178.3,76 178.3,25.1 		"/>
	</g>
</g>
</svg>
