<?xml version="1.0" encoding="UTF-8" standalone="no"?>
<svg width="121px" height="53px" viewBox="0 0 121 53" version="1.1" xmlns="http://www.w3.org/2000/svg" xmlns:xlink="http://www.w3.org/1999/xlink">
    <!-- Generator: Sketch 3.6 (26304) - http://www.bohemiancoding.com/sketch -->
    <title>logo-next</title>
    <desc>Created with Sketch.</desc>
    <defs>
        <path id="path-1" d="M0,54.6022 L107.451,54.6022 L107.451,0.9982 L0,0.9982 L0,54.6022 Z"></path>
    </defs>
    <g id="Page-1" stroke="none" stroke-width="1" fill="none" fill-rule="evenodd">
        <g id="logo-next">
            <g id="Page-1" transform="translate(6.000000, 4.000000)">
                <path d="M26.98785,20.96875 L26.98785,37.15975 L19.54035,37.15975 L19.54035,21.99475 C19.54035,20.80675 19.54035,19.46125 19.43235,17.99875 C19.21635,14.97925 17.54235,12.92725 13.92885,12.92725 C10.31085,12.92725 7.44885,16.05925 7.44885,24.04675 L7.44885,37.15975 L0.00135,37.15975 L0.00135,8.44975 L7.44885,8.44975 L7.44885,13.08925 C8.53785,8.44975 13.81635,7.69375 16.57035,7.69375 C22.67235,7.69375 26.17785,10.71325 26.77185,15.73525 C26.93385,17.19325 26.98785,18.64675 26.98785,20.96875 L26.98785,20.96875 Z" id="Fill-1" fill="#1380EB"></path>
                <path d="M39.3102,19.1341 L51.9372,19.1341 C51.4512,14.6026 49.4037,12.1726 45.8397,12.1726 C42.3882,12.1726 39.9582,14.3821 39.3102,19.1341 M59.4927,23.9941 L39.0942,23.9941 C39.5802,30.0376 42.2802,31.9231 45.7317,31.9231 C48.9177,31.9231 51.2352,30.1456 51.7212,27.0676 L59.1732,27.0676 C57.7107,33.7591 52.3152,37.1611 45.5697,37.1611 C37.6902,37.1611 31.5927,32.2516 31.5927,22.1581 C31.5927,13.3606 37.3662,6.9391 46.1637,6.9391 C54.9612,6.9391 59.6007,13.6306 59.6007,21.4561 C59.6007,22.1581 59.6007,23.0176 59.4927,23.9941" id="Fill-3" fill="#1380EB"></path>
                <path d="M101.5146,26.25985 C101.5146,27.23185 101.5146,28.04185 101.5686,28.79335 C101.7846,31.60135 102.8106,32.24935 106.9641,31.92535 L106.9641,36.78085 C105.2946,37.05085 103.7286,37.15885 102.0546,37.15885 C96.4971,37.15885 94.4991,35.32735 94.1751,31.27735 C94.0671,29.98135 94.0671,28.73935 94.0671,27.12385 L94.0671,12.98035 L89.8596,12.98035 L89.8596,8.07085 L94.0671,8.07085 L94.0671,1.00135 L101.5146,1.00135 L101.5146,8.07085 L107.4501,8.07085 L107.4501,12.98035 L101.5146,12.98035 L101.5146,26.25985 Z" id="Fill-5" fill="#1380EB"></path>
                <path d="M78.9399,22.64275 L88.8714,8.44975 L80.2899,8.44975 L71.8209,22.80475 L80.2899,37.15975 L88.9794,37.15975 L78.9399,22.64275 Z" id="Fill-7" fill="#6CB8EB"></path>
                <path d="M69.0705,8.60005 L79.0065,22.56805 L68.6025,37.16155 L60.165,37.16155 L70.335,22.56805 L60.633,8.60005 L69.0705,8.60005 Z" id="Fill-9" fill="#2F96EB"></path>
                <mask id="mask-2" fill="white">
                    <use xlink:href="#path-1"></use>
                </mask>
                <g id="Clip-11"></g>
            </g>
        </g>
    </g>
</svg>