<?xml version="1.0" encoding="UTF-8" standalone="no"?>
<svg width="121px" height="53px" viewBox="0 0 121 53" version="1.1" xmlns="http://www.w3.org/2000/svg" xmlns:xlink="http://www.w3.org/1999/xlink">
    <!-- Generator: Sketch 3.6 (26304) - http://www.bohemiancoding.com/sketch -->
    <title>logo-next-o</title>
    <desc>Created with Sketch.</desc>
    <defs></defs>
    <g id="Page-1" stroke="none" stroke-width="1" fill="none" fill-rule="evenodd">
        <g id="logo-next-o">
            <path d="M32.98785,24.96875 L32.98785,41.15975 L25.54035,41.15975 L25.54035,25.99475 C25.54035,24.80675 25.54035,23.46125 25.43235,21.99875 C25.21635,18.97925 23.54235,16.92725 19.92885,16.92725 C16.31085,16.92725 13.44885,20.05925 13.44885,28.04675 L13.44885,41.15975 L6.00135,41.15975 L6.00135,12.44975 L13.44885,12.44975 L13.44885,17.08925 C14.53785,12.44975 19.81635,11.69375 22.57035,11.69375 C28.67235,11.69375 32.17785,14.71325 32.77185,19.73525 C32.93385,21.19325 32.98785,22.64675 32.98785,24.96875 L32.98785,24.96875 Z" id="Fill-1" fill="#FFFFFF"></path>
            <path d="M45.3102,23.1341 L57.9372,23.1341 C57.4512,18.6026 55.4037,16.1726 51.8397,16.1726 C48.3882,16.1726 45.9582,18.3821 45.3102,23.1341 M65.4927,27.9941 L45.0942,27.9941 C45.5802,34.0376 48.2802,35.9231 51.7317,35.9231 C54.9177,35.9231 57.2352,34.1456 57.7212,31.0676 L65.1732,31.0676 C63.7107,37.7591 58.3152,41.1611 51.5697,41.1611 C43.6902,41.1611 37.5927,36.2516 37.5927,26.1581 C37.5927,17.3606 43.3662,10.9391 52.1637,10.9391 C60.9612,10.9391 65.6007,17.6306 65.6007,25.4561 C65.6007,26.1581 65.6007,27.0176 65.4927,27.9941" id="Fill-3" fill="#FFFFFF"></path>
            <path d="M107.5146,30.25985 C107.5146,31.23185 107.5146,32.04185 107.5686,32.79335 C107.7846,35.60135 108.8106,36.24935 112.9641,35.92535 L112.9641,40.78085 C111.2946,41.05085 109.7286,41.15885 108.0546,41.15885 C102.4971,41.15885 100.4991,39.32735 100.1751,35.27735 C100.0671,33.98135 100.0671,32.73935 100.0671,31.12385 L100.0671,16.98035 L95.8596,16.98035 L95.8596,12.07085 L100.0671,12.07085 L100.0671,5.00135 L107.5146,5.00135 L107.5146,12.07085 L113.4501,12.07085 L113.4501,16.98035 L107.5146,16.98035 L107.5146,30.25985 Z" id="Fill-5" fill="#FFFFFF"></path>
            <path d="M84.9399,26.64275 L94.8714,12.44975 L86.2899,12.44975 L77.8209,26.80475 L86.2899,41.15975 L94.9794,41.15975 L84.9399,26.64275 Z" id="Fill-7" fill-opacity="0.7" fill="#FFFFFF"></path>
            <path d="M75.0705,12.60005 L85.0065,26.56805 L74.6025,41.16155 L66.165,41.16155 L76.335,26.56805 L66.633,12.60005 L75.0705,12.60005 Z" id="Fill-9" fill="#FEFEFE"></path>
        </g>
    </g>
</svg>